<?xml version="1.0" standalone="no"?>
<!DOCTYPE svg PUBLIC "-//W3C//DTD SVG 1.1//EN" "http://www.w3.org/Graphics/SVG/1.1/DTD/svg11.dtd" >
<svg>
<metadata>
Created by FontForge 20090622 at Sun Feb  9 13:56:36 2020
 By deploy user
Copyright &#194;&#169; 2016 by Red Hat, Inc. All rights reserved.
</metadata>
<defs>
<font id="Overpass-Bold" horiz-adv-x="569" >
  <font-face 
    font-family="Overpass"
    font-weight="700"
    font-stretch="normal"
    units-per-em="1000"
    panose-1="0 0 8 0 0 0 0 0 0 0"
    ascent="750"
    descent="-250"
    x-height="511"
    cap-height="700"
    bbox="-291 -378 1196 1062"
    underline-thickness="95"
    underline-position="-82"
    unicode-range="U+0020-U+1F427"
  />
<missing-glyph horiz-adv-x="245" 
 />
    <glyph glyph-name="fi" unicode="fi" horiz-adv-x="617" 
d="M483 581q-29 0 -49.5 20.5t-20.5 49.5t20.5 49t49.5 20t49 -20t20 -49t-20 -49.5t-49 -20.5zM226 409v-409h-117v409h-74v102h74v80q0 121 121 121q61 0 108 -24v-96q-41 17 -73 17q-39 0 -39 -40v-58h112v-102h-112zM424 0v511h117v-511h-117z" />
    <glyph glyph-name="fl" unicode="fl" horiz-adv-x="625" 
d="M428 0v667l117 55v-722h-117zM226 409v-409h-117v409h-74v102h74v80q0 121 121 121q61 0 108 -24v-96q-41 17 -73 17q-39 0 -39 -40v-58h112v-102h-112z" />
    <glyph glyph-name=".notdef" horiz-adv-x="245" 
 />
    <glyph glyph-name=".null" horiz-adv-x="0" 
 />
    <glyph glyph-name="nonmarkingreturn" horiz-adv-x="333" 
 />
    <glyph glyph-name="space" unicode=" " horiz-adv-x="245" 
 />
    <glyph glyph-name="exclam" unicode="!" horiz-adv-x="288" 
d="M114 193l-29 295v224h117v-224l-28 -295h-60zM144 -12q-35 0 -58 23t-23 56t23 56.5t58 23.5q34 0 58 -23.5t24 -56.5q0 -32 -24 -55.5t-58 -23.5z" />
    <glyph glyph-name="quotedbl" unicode="&#x22;" horiz-adv-x="434" 
d="M45 700h143l-22 -285h-98zM246 700h143l-22 -285h-98z" />
    <glyph glyph-name="numbersign" unicode="#" horiz-adv-x="690" 
d="M124 0l28 183h-110l15 99h110l23 153h-110l15 99h111l25 166h101l-25 -166h130l26 166h101l-26 -166h110l-14 -99h-111l-23 -153h110l-15 -99h-110l-28 -183h-101l28 183h-130l-28 -183h-102zM269 282h130l23 153h-130z" />
    <glyph glyph-name="dollar" unicode="$" horiz-adv-x="593" 
d="M237 -95v90q-68 15 -116 60t-71 113l111 41q21 -49 58 -78t84 -29q49 0 78 25.5t29 71.5q0 24 -10 42.5t-33.5 33.5t-42 23t-54.5 22q-37 14 -56 22.5t-50.5 27t-47 37.5t-28 50t-12.5 69q0 67 42.5 116.5t118.5 64.5v80h117v-81q59 -14 96.5 -51.5t53.5 -92.5l-108 -36
q-29 72 -110 72q-41 0 -64 -19t-23 -53q0 -15 7 -28t16.5 -21.5t29 -18.5t32.5 -15l40 -15q33 -13 49 -20t46 -22t46 -30.5t34 -38t26 -52t8 -65.5q0 -85 -50 -139t-129 -68v-88h-117z" />
    <glyph glyph-name="percent" unicode="%" horiz-adv-x="848" 
d="M212 351q-84 0 -125.5 54t-41.5 127q0 69 41.5 124.5t125.5 55.5t125.5 -54t41.5 -126q0 -70 -41 -125.5t-126 -55.5zM241 -12h-112l478 724h112zM212 445q34 0 51.5 24.5t17.5 62.5q0 39 -17.5 62.5t-51.5 23.5t-51.5 -24.5t-17.5 -61.5q0 -40 17.5 -63.5t51.5 -23.5z
M636 -12q-85 0 -126 54t-41 127q0 69 41.5 124.5t125.5 55.5t125.5 -53.5t41.5 -126.5q0 -71 -41 -126t-126 -55zM636 82q34 0 51.5 24.5t17.5 62.5q0 39 -18 62.5t-51 23.5q-34 0 -51.5 -24t-17.5 -62q0 -40 17.5 -63.5t51.5 -23.5z" />
    <glyph glyph-name="ampersand" unicode="&#x26;" horiz-adv-x="710" 
d="M271 -12q-95 0 -153 55t-58 145q0 73 41 121.5t112 86.5q-38 45 -53.5 79.5t-15.5 75.5q0 75 49.5 118t125.5 43q74 0 122.5 -45t48.5 -116q0 -59 -30.5 -99.5t-85.5 -75.5l93 -112q14 40 14 81h115q-2 -101 -48 -178l139 -167h-153l-58 71q-83 -83 -205 -83zM316 616
q-27 0 -44 -16.5t-17 -43.5q0 -37 55 -103q69 40 69 95q0 32 -18 50t-45 18zM285 100q68 0 123 55l-131 161q-93 -56 -93 -124q0 -42 27 -67t74 -25z" />
    <glyph glyph-name="quotesingle" unicode="'" horiz-adv-x="233" 
d="M45 700h143l-22 -285h-98z" />
    <glyph glyph-name="parenleft" unicode="(" horiz-adv-x="359" 
d="M192 -130q-122 160 -122 414q0 137 38.5 249t94.5 179h116q-44 -52 -87.5 -169t-43.5 -259q0 -140 39.5 -249t80.5 -165h-116z" />
    <glyph glyph-name="parenright" unicode=")" horiz-adv-x="359" 
d="M51 -130q24 35 47.5 82t48 140.5t24.5 191.5q0 142 -43.5 259t-87.5 169h116q56 -67 94.5 -179t38.5 -249q0 -254 -122 -414h-116z" />
    <glyph glyph-name="asterisk" unicode="*" horiz-adv-x="540" 
d="M288 383l-18 58l-17 -58l-72 -96l-86 62l71 97l48 30l-58 1l-106 35l33 102l107 -34l44 -32l-18 52v116h108v-116l-18 -53l45 33l106 34l33 -102l-105 -35l-59 -1l48 -30l71 -97l-86 -62z" />
    <glyph glyph-name="plus" unicode="+" horiz-adv-x="630" 
d="M374 287v-179h-117v179h-177v113h177v178h117v-178h176v-113h-176z" />
    <glyph glyph-name="comma" unicode="," horiz-adv-x="235" 
d="M38 -108q18 16 38 44.5t25 53.5q-26 6 -44 25.5t-18 48.5q0 35 23.5 57.5t55.5 22.5q35 0 58.5 -24.5t23.5 -69.5q0 -56 -33 -108.5t-82 -82.5z" />
    <glyph glyph-name="hyphen" unicode="-" horiz-adv-x="404" 
d="M75 240v113h254v-113h-254z" />
    <glyph glyph-name="period" unicode="." horiz-adv-x="232" 
d="M116 -12q-34 0 -57 22.5t-23 55.5t23 55.5t57 22.5t57 -23t23 -55q0 -33 -23 -55.5t-57 -22.5z" />
    <glyph glyph-name="slash" unicode="/" horiz-adv-x="508" 
d="M-15 -130l393 842h120l-393 -842h-120z" />
    <glyph glyph-name="zero" unicode="0" horiz-adv-x="654" 
d="M327 -12q-57 0 -102 21.5t-73 56t-46 83t-25.5 97.5t-7.5 104q0 53 7 102t25.5 97.5t46 83.5t73 57t102.5 22q71 0 122.5 -31.5t79 -85.5t40 -114.5t12.5 -130.5q0 -68 -12 -127.5t-39.5 -114.5t-79.5 -87.5t-123 -32.5zM327 102q38 0 65 21.5t41 58.5t20.5 78.5
t6.5 89.5q0 50 -6.5 91.5t-21 78t-41.5 57.5t-64 21q-38 0 -65 -21t-41 -58.5t-20 -78.5t-6 -90t6.5 -91t20.5 -78.5t41 -57.5t64 -21z" />
    <glyph glyph-name="one" unicode="1" horiz-adv-x="407" 
d="M144 0v531h-111v92q111 0 137 77h94v-700h-120z" />
    <glyph glyph-name="two" unicode="2" horiz-adv-x="613" 
d="M63 0q0 248 248 380q51 27 80 55.5t29 69.5t-29.5 67t-77.5 26q-94 0 -131 -86l-108 49q28 69 92 110t146 41q105 0 167 -58t62 -149q0 -82 -41.5 -129.5t-128.5 -95.5q-73 -40 -112 -78t-52 -86h340v-116h-484z" />
    <glyph glyph-name="three" unicode="3" horiz-adv-x="602" 
d="M294 -12q-89 0 -152.5 43.5t-94.5 119.5l110 44q44 -93 139 -93q53 0 87 26.5t34 75.5q0 45 -30 74t-91 29h-61v114h61q43 0 69.5 24t26.5 63q0 41 -25.5 65.5t-72.5 24.5q-75 0 -113 -71l-110 42q29 66 87 104.5t138 38.5q95 0 156.5 -55.5t61.5 -137.5q0 -103 -88 -151
q51 -20 82 -62t31 -100q0 -103 -67.5 -160.5t-177.5 -57.5z" />
    <glyph glyph-name="four" unicode="4" horiz-adv-x="649" 
d="M385 0v150h-372v76l358 474h132v-440h88v-110h-88v-150h-118zM385 260v288l-215 -288h215z" />
    <glyph glyph-name="five" unicode="5" horiz-adv-x="604" 
d="M274 -12q-137 0 -216 66l68 94q69 -46 148 -46q66 0 106.5 36t40.5 96q0 55 -30.5 85t-83.5 30q-65 0 -110 -48l-119 50l21 349h399v-115h-288l-11 -152q51 30 118 30q108 0 166.5 -66t58.5 -162q0 -112 -75 -179.5t-193 -67.5z" />
    <glyph glyph-name="six" unicode="6" horiz-adv-x="606" 
d="M312 -12q-120 0 -184.5 75.5t-64.5 195.5q0 180 98.5 300t298.5 153v-114q-90 -14 -158.5 -62.5t-95.5 -135.5q50 42 129 42q98 0 160.5 -63.5t62.5 -164.5t-68.5 -163.5t-177.5 -62.5zM312 102q55 0 90 30t35 82q0 53 -35 83.5t-90 30.5t-90 -30.5t-35 -83.5
q0 -52 35 -82t90 -30z" />
    <glyph glyph-name="seven" unicode="7" horiz-adv-x="538" 
d="M174 0q1 173 47.5 310.5t143.5 273.5h-342v116h477v-116q-104 -119 -154 -283.5t-51 -300.5h-121z" />
    <glyph glyph-name="eight" unicode="8" horiz-adv-x="621" 
d="M310 -12q-112 0 -179.5 61t-67.5 159q0 120 117 175q-88 49 -88 145q0 81 59.5 132.5t158.5 51.5t159 -51.5t60 -132.5q0 -95 -88 -144q54 -26 85.5 -71t31.5 -105q0 -98 -68 -159t-180 -61zM310 437q44 0 71.5 24t27.5 60t-27.5 58.5t-71.5 22.5t-71 -22.5t-27 -58.5
t27 -60t71 -24zM310 99q55 0 91 31.5t36 80.5q0 48 -36.5 81t-90.5 33q-55 0 -90 -32.5t-35 -81.5q0 -50 35 -81t90 -31z" />
    <glyph glyph-name="nine" unicode="9" horiz-adv-x="606" 
d="M166 -12v117q200 10 242 200q-45 -45 -129 -45q-102 0 -166.5 61.5t-64.5 165.5q0 101 69 163t179 62q124 0 185.5 -74t61.5 -197q0 -206 -94.5 -326t-282.5 -127zM295 377q58 0 92 29.5t34 81.5q0 49 -34.5 78.5t-90.5 29.5t-90.5 -29.5t-34.5 -78.5q0 -53 33 -82
t91 -29z" />
    <glyph glyph-name="colon" unicode=":" horiz-adv-x="232" 
d="M116 329q-34 0 -57 22.5t-23 55.5t23 55.5t57 22.5t57 -23t23 -55q0 -33 -23 -55.5t-57 -22.5zM116 -12q-34 0 -57 22.5t-23 55.5t23 55.5t57 22.5t57 -23t23 -55q0 -33 -23 -55.5t-57 -22.5z" />
    <glyph glyph-name="semicolon" unicode=";" horiz-adv-x="232" 
d="M117 329q-34 0 -56.5 22.5t-22.5 55.5t23 55.5t56 22.5q34 0 57.5 -23t23.5 -55q0 -33 -23.5 -55.5t-57.5 -22.5zM37 -108q18 16 37.5 43.5t25.5 54.5q-27 5 -44.5 25t-17.5 49q0 35 23.5 57.5t55.5 22.5q35 0 58.5 -24.5t23.5 -69.5q0 -58 -33 -109t-82 -82z" />
    <glyph glyph-name="less" unicode="&#x3c;" horiz-adv-x="630" 
d="M550 103l-470 192v97l470 191v-120l-302 -120l302 -120v-120z" />
    <glyph glyph-name="equal" unicode="=" horiz-adv-x="630" 
d="M80 391v113h470v-113h-470zM80 183v113h470v-113h-470z" />
    <glyph glyph-name="greater" unicode="&#x3e;" horiz-adv-x="630" 
d="M550 295l-470 -192v121l302 119l-302 120v120l470 -191v-97z" />
    <glyph glyph-name="question" unicode="?" horiz-adv-x="503" 
d="M184 190v28q0 44 12.5 79t31 55.5t40 40t40 34t31 37t12.5 48.5q0 39 -26 64t-72 25q-55 0 -85.5 -33.5t-30.5 -93.5h-117q0 111 64 174.5t169 63.5q102 0 158.5 -56t56.5 -144q0 -39 -12.5 -70t-31 -49.5l-40 -38.5l-40 -36.5t-31 -42.5t-12.5 -58v-27h-117zM243 -12
q-34 0 -57 22.5t-23 55.5t23 55.5t57 22.5t57 -23t23 -55q0 -33 -23 -55.5t-57 -22.5z" />
    <glyph glyph-name="at" unicode="@" horiz-adv-x="828" 
d="M421 -12q-163 0 -262 92.5t-99 257.5q0 162 107.5 268t263.5 106q151 0 244 -86.5t93 -213.5q0 -108 -58.5 -180t-142.5 -72q-26 0 -48.5 14.5t-28.5 41.5q-35 -58 -108 -58q-64 0 -104 47t-40 124q0 80 52 143.5t132 63.5q64 0 90 -49l7 36h94l-33 -173q-13 -68 -13 -86
q0 -21 17 -21q36 0 64.5 48t28.5 119q0 92 -63.5 152t-178.5 60q-122 0 -199.5 -81t-77.5 -204t71.5 -191t195.5 -68q64 0 130 17l-25 -100q-49 -7 -109 -7zM396 250q40 0 66 36.5t26 81.5q0 35 -16 55.5t-45 20.5q-40 0 -66.5 -34t-26.5 -82q0 -35 17 -56.5t45 -21.5z" />
    <glyph glyph-name="A" unicode="A" horiz-adv-x="714" 
d="M551 0l-55 153h-277l-55 -153h-127l261 700h119l260 -700h-126zM458 261l-77 210q-15 38 -23 71q-8 -29 -23 -71l-78 -210h201z" />
    <glyph glyph-name="B" unicode="B" horiz-adv-x="680" 
d="M85 700h286q117 0 170.5 -53t53.5 -134q0 -100 -90 -144q58 -21 86.5 -65.5t28.5 -96.5q0 -84 -57.5 -145.5t-176.5 -61.5h-301v700zM355 418q58 0 88.5 23t30.5 63q0 85 -100 85h-169v-171h150zM393 111q56 0 80.5 27.5t24.5 65.5q0 103 -134 103h-159v-196h188z" />
    <glyph glyph-name="C" unicode="C" horiz-adv-x="645" 
d="M353 -12q-63 0 -114 21t-83.5 56t-54.5 83t-31.5 98t-9.5 104q0 64 16 125t49 115.5t92 88t136 33.5q93 0 156 -43.5t88 -105.5l-108 -49q-28 43 -58.5 63t-77.5 20q-46 0 -80.5 -22.5t-53 -60t-27 -79t-8.5 -85.5q0 -98 43.5 -172t125.5 -74q80 0 134 90l111 -42
q-73 -164 -245 -164z" />
    <glyph glyph-name="D" unicode="D" horiz-adv-x="698" 
d="M85 700h216q71 0 129 -20t96 -53t63.5 -78.5t37 -95t11.5 -103.5q0 -50 -10.5 -98t-36 -94.5t-63.5 -81t-97.5 -55.5t-133.5 -21h-212v700zM314 113q53 0 93.5 21t63 56.5t33 75.5t10.5 84q0 98 -48 167.5t-141 69.5h-120v-474h109z" />
    <glyph glyph-name="E" unicode="E" horiz-adv-x="613" 
d="M85 0v700h456v-113h-336v-169h207v-113h-207v-192h358v-113h-478z" />
    <glyph glyph-name="F" unicode="F" horiz-adv-x="567" 
d="M85 0v700h452v-113h-332v-169h212v-113h-212v-305h-120z" />
    <glyph glyph-name="G" unicode="G" horiz-adv-x="682" 
d="M367 -12q-78 0 -138.5 30.5t-96.5 82.5t-54 115t-18 134q0 52 11.5 103t36.5 98t60 82.5t86.5 57t112.5 21.5q92 0 148 -37.5t97 -103.5l-107 -61q-58 86 -138 86q-50 0 -87.5 -22.5t-57.5 -60t-29 -78.5t-9 -85q0 -104 46 -175t137 -71q58 0 96.5 38t38.5 93v11h-123
v113h245v-97q0 -129 -72 -201.5t-185 -72.5z" />
    <glyph glyph-name="H" unicode="H" horiz-adv-x="715" 
d="M511 0v304h-306v-304h-120v700h120v-283h306v283h119v-700h-119z" />
    <glyph glyph-name="I" unicode="I" horiz-adv-x="300" 
d="M90 0v700h120v-700h-120z" />
    <glyph glyph-name="J" unicode="J" horiz-adv-x="565" 
d="M249 -12q-76 0 -136.5 37.5t-92.5 105.5l104 50q39 -78 125 -78q117 0 117 149v448h119v-461q0 -57 -14.5 -102t-37.5 -72.5t-55 -45t-63.5 -24.5t-65.5 -7z" />
    <glyph glyph-name="K" unicode="K" horiz-adv-x="695" 
d="M520 0l-188 351l-127 -155v-196h-120v700h120v-336l267 336h140l-200 -248l248 -452h-140z" />
    <glyph glyph-name="L" unicode="L" horiz-adv-x="565" 
d="M85 0v700h120v-585h340v-115h-460z" />
    <glyph glyph-name="M" unicode="M" horiz-adv-x="807" 
d="M722 0h-120v372q0 46 4 84q-12 -36 -32 -86l-170 -382l-170 384q-18 40 -33 84q4 -38 4 -84v-372h-120v700h121l180 -411q11 -28 19 -52q8 24 19 52l181 411h117v-700z" />
    <glyph glyph-name="N" unicode="N" horiz-adv-x="714" 
d="M629 0h-109l-290 442q-14 21 -29 52q3 -24 3 -52v-442h-119v700h116l283 -435q10 -15 29 -53q-3 27 -3 53v435h119v-700z" />
    <glyph glyph-name="O" unicode="O" horiz-adv-x="734" 
d="M367 -12q-65 0 -118 21t-87.5 56.5t-58 82.5t-33.5 97.5t-10 104.5t10 104.5t33.5 97.5t58 82.5t87.5 56.5t118 21q81 0 142.5 -31.5t96 -85t51.5 -115.5t17 -130t-17 -130t-51.5 -115.5t-96 -85t-142.5 -31.5zM367 103q48 0 85 23t57.5 60.5t30.5 79t10 84.5
q0 46 -10 87.5t-30.5 78.5t-57 59t-85.5 22q-64 0 -107 -40.5t-59.5 -93.5t-16.5 -113q0 -45 10 -87t30.5 -79t57 -59t85.5 -22z" />
    <glyph glyph-name="P" unicode="P" horiz-adv-x="636" 
d="M85 0v700h291q121 0 178 -63t57 -154q0 -86 -59.5 -152t-175.5 -66h-171v-265h-120zM382 379q53 0 79 31t26 73q0 40 -24.5 71.5t-80.5 31.5h-177v-207h177z" />
    <glyph glyph-name="Q" unicode="Q" horiz-adv-x="734" 
d="M367 -12q-65 0 -118 21t-87.5 56.5t-58 82.5t-33.5 97.5t-10 104.5t10 104.5t33.5 97.5t58 82.5t87.5 56.5t118 21q81 0 142.5 -31.5t96 -85t51.5 -115.5t17 -130q0 -187 -106 -289l47 -69l-90 -60l-50 73q-49 -17 -108 -17zM367 103q19 0 39 5l-52 78l92 60l51 -77
q53 67 53 181q0 46 -10 87.5t-30.5 78.5t-57 59t-85.5 22q-64 0 -107 -40.5t-59.5 -93.5t-16.5 -113q0 -45 10 -87t30.5 -79t57 -59t85.5 -22z" />
    <glyph glyph-name="R" unicode="R" horiz-adv-x="685" 
d="M85 0v700h310q121 0 175.5 -60t54.5 -153q0 -65 -37 -122t-107 -78l140 -287h-135l-135 274h-146v-274h-120zM205 388h192q54 0 79 28t25 71q0 42 -24 70.5t-80 28.5h-192v-198z" />
    <glyph glyph-name="S" unicode="S" horiz-adv-x="610" 
d="M309 -12q-96 0 -165.5 48.5t-98.5 132.5l111 41q22 -49 63 -78.5t94 -29.5q55 0 87.5 25t32.5 72q0 19 -9 35.5t-20.5 27.5t-34.5 22t-39 17.5t-47 16.5l-61.5 22t-55 26.5t-51 37.5t-31 50.5t-13.5 69.5q0 80 62 134t168 54q88 0 146 -41.5t78 -108.5l-108 -36
q-32 72 -124 72q-47 0 -73.5 -19.5t-26.5 -55.5q0 -24 20.5 -43t44 -28.5t69.5 -24.5l45.5 -16.5t43.5 -18.5t44 -23.5t36.5 -28.5t31.5 -37.5t19 -46t8 -57.5q0 -98 -69.5 -154.5t-176.5 -56.5z" />
    <glyph glyph-name="T" unicode="T" horiz-adv-x="598" 
d="M359 585v-585h-120v585h-199v115h518v-115h-199z" />
    <glyph glyph-name="U" unicode="U" horiz-adv-x="706" 
d="M353 -12q-57 0 -104 14.5t-86 46t-61 87t-22 131.5v433h120v-433q0 -91 39.5 -127.5t113.5 -36.5t113.5 37t39.5 127v433h120v-433q0 -75 -21.5 -130.5t-60 -87t-86 -46.5t-105.5 -15z" />
    <glyph glyph-name="V" unicode="V" horiz-adv-x="674" 
d="M279 0l-244 700h129l157 -473q13 -45 18 -64q4 21 17 64l156 473h127l-243 -700h-117z" />
    <glyph glyph-name="W" unicode="W" horiz-adv-x="852" 
d="M190 0l-150 700h123l83 -412q11 -58 12 -67q3 22 14 67l103 412h102l105 -411q10 -36 14 -67q4 29 12 66l83 412h121l-151 -700h-110l-113 433q-11 39 -14 65q-3 -24 -13 -64l-111 -434h-110z" />
    <glyph glyph-name="X" unicode="X" horiz-adv-x="671" 
d="M487 0l-151 248l-152 -248h-139l221 362l-206 338h139l137 -225l137 225h139l-207 -338l221 -362h-139z" />
    <glyph glyph-name="Y" unicode="Y" horiz-adv-x="679" 
d="M280 0v274l-252 426h136l176 -303l176 303h136l-253 -426v-274h-119z" />
    <glyph glyph-name="Z" unicode="Z" horiz-adv-x="654" 
d="M50 0v94l385 492h-362v114h521v-93l-387 -493h387v-114h-544z" />
    <glyph glyph-name="bracketleft" unicode="[" horiz-adv-x="381" 
d="M100 -130v842h241v-111h-124v-620h124v-111h-241z" />
    <glyph glyph-name="backslash" unicode="\" horiz-adv-x="508" 
d="M378 -130l-393 842h120l393 -842h-120z" />
    <glyph glyph-name="bracketright" unicode="]" horiz-adv-x="381" 
d="M281 -130h-241v111h124v620h-124v111h241v-842z" />
    <glyph glyph-name="asciicircum" unicode="^" horiz-adv-x="630" 
d="M445 345l-130 217l-130 -217h-121l205 367h93l204 -367h-121z" />
    <glyph glyph-name="underscore" unicode="_" horiz-adv-x="500" 
d="M-5 -177v95h510v-95h-510z" />
    <glyph glyph-name="grave" unicode="`" horiz-adv-x="438" 
d="M234 576l-178 156h152l142 -156h-116z" />
    <glyph glyph-name="a" unicode="a" horiz-adv-x="545" 
d="M366 0v41q-51 -53 -136 -53q-82 0 -133.5 44.5t-51.5 125.5q0 83 58.5 126t141.5 43q73 0 121 -27v27q0 49 -24.5 71t-75.5 22q-83 0 -152 -48l-36 95q83 56 200 56q40 0 70.5 -6.5t63 -25.5t50.5 -60t18 -102v-329h-114zM252 91q67 0 114 49v66q-44 21 -102 21
q-47 0 -76 -17t-29 -52q0 -31 24 -49t69 -18z" />
    <glyph glyph-name="b" unicode="b" 
d="M305 -12q-72 0 -113 51v-39h-117v669l117 53v-249q43 50 115 50q95 0 153.5 -72t58.5 -195q0 -128 -57 -198t-157 -70zM291 100q54 0 82.5 41.5t28.5 114.5q0 76 -29 116t-82 40q-66 0 -99 -50v-213q32 -49 99 -49z" />
    <glyph glyph-name="c" unicode="c" horiz-adv-x="533" 
d="M278 -12q-105 0 -166.5 71t-61.5 196t61.5 196.5t166.5 71.5q158 0 203 -141l-111 -37q-25 66 -88 66q-53 0 -83 -42t-30 -114q0 -71 29.5 -112.5t79.5 -41.5q71 0 93 74l112 -34q-44 -153 -205 -153z" />
    <glyph glyph-name="d" unicode="d" 
d="M262 -12q-98 0 -155 71t-57 197q0 123 59 195t153 72q74 0 115 -48v194l117 53v-722h-117v37q-38 -49 -115 -49zM280 100q65 0 97 49v214q-33 49 -97 49q-54 0 -83.5 -40.5t-29.5 -115.5q0 -71 30 -113.5t83 -42.5z" />
    <glyph glyph-name="e" unicode="e" horiz-adv-x="554" 
d="M286 -12q-109 0 -172.5 71.5t-63.5 196.5q0 124 64 195.5t172 71.5q98 0 160.5 -61t62.5 -179q0 -41 -4 -72h-339q3 -54 37.5 -87t82.5 -33q68 0 108 53l74 -76q-67 -80 -182 -80zM167 308h226q-4 55 -34 83.5t-73 28.5q-50 0 -82.5 -27.5t-36.5 -84.5z" />
    <glyph glyph-name="f" unicode="f" horiz-adv-x="348" 
d="M226 409v-409h-117v409h-74v102h74v80q0 121 121 121q61 0 108 -24v-96q-41 17 -73 17q-39 0 -39 -40v-58h112v-102h-112z" />
    <glyph glyph-name="g" unicode="g" 
d="M253 -200l-62 94q105 7 145.5 32.5t40.5 78.5v29q-42 -46 -116 -46q-94 0 -152.5 69.5t-58.5 198.5q0 124 58.5 195.5t153.5 71.5q72 0 115 -43v31h117v-460q0 -127 -54.5 -184t-186.5 -67zM281 100q63 0 96 50v212q-35 50 -96 50q-55 0 -84.5 -40t-29.5 -116
q0 -72 30 -114t84 -42z" />
    <glyph glyph-name="h" unicode="h" horiz-adv-x="578" 
d="M75 0v668l117 54v-259q50 60 135 60q80 0 130.5 -50t50.5 -159v-314h-117v295q0 117 -95 117q-104 0 -104 -115v-297h-117z" />
    <glyph glyph-name="i" unicode="i" horiz-adv-x="269" 
d="M135 581q-29 0 -49.5 20.5t-20.5 49.5t20.5 49t49.5 20t49 -20t20 -49t-20 -49.5t-49 -20.5zM76 0v511h117v-511h-117z" />
    <glyph glyph-name="j" unicode="j" horiz-adv-x="269" 
d="M135 581q-29 0 -49.5 20.5t-20.5 49.5t20.5 49t49.5 20t49 -20t20 -49t-20 -49.5t-49 -20.5zM-7 -214l-58 90q80 17 110.5 42t30.5 74v519h117v-485q0 -111 -49 -162q-54 -57 -151 -78z" />
    <glyph glyph-name="k" unicode="k" horiz-adv-x="558" 
d="M523 0h-128l-146 282l-57 -56v-226h-117v667l117 55v-359l144 148h142l-145 -145z" />
    <glyph glyph-name="l" unicode="l" horiz-adv-x="277" 
d="M80 0v667l117 55v-722h-117z" />
    <glyph glyph-name="m" unicode="m" horiz-adv-x="862" 
d="M675 0v293q0 119 -87 119q-45 0 -70.5 -30.5t-25.5 -90.5v-291h-117v293q0 119 -87 119q-45 0 -70.5 -30.5t-25.5 -90.5v-291h-117v511h117v-47q44 59 125 59q94 0 134 -72q49 72 154 72q86 0 136.5 -47.5t50.5 -149.5v-326h-117z" />
    <glyph glyph-name="n" unicode="n" horiz-adv-x="578" 
d="M391 0v293q0 119 -95 119q-104 0 -104 -117v-295h-117v511h117v-48q50 60 135 60q80 0 130.5 -50t50.5 -159v-314h-117z" />
    <glyph glyph-name="o" unicode="o" 
d="M284 -12q-108 0 -171 71t-63 196t63 196.5t171 71.5t171.5 -71.5t63.5 -196.5t-63 -196t-172 -71zM284 100q55 0 86.5 41t31.5 114t-31.5 115t-86.5 42q-53 0 -85 -42.5t-32 -114.5t31.5 -113.5t85.5 -41.5z" />
    <glyph glyph-name="p" unicode="p" 
d="M308 -12q-74 0 -116 53v-188l-117 -54v712h117v-39q42 51 117 51q97 0 153.5 -70.5t56.5 -197.5q0 -124 -58 -195.5t-153 -71.5zM291 100q53 0 82 40t29 115q0 71 -29 114t-82 43q-65 0 -99 -50v-212q35 -50 99 -50z" />
    <glyph glyph-name="q" unicode="q" 
d="M262 -12q-94 0 -153 71.5t-59 195.5q0 126 58.5 197t156.5 71q71 0 112 -51v39h117v-658l-117 -53v241q-43 -53 -115 -53zM279 100q63 0 98 50v212q-33 50 -98 50q-53 0 -82.5 -43t-29.5 -114q0 -75 29 -115t83 -40z" />
    <glyph glyph-name="r" unicode="r" horiz-adv-x="408" 
d="M75 0v511h117v-53q31 65 105 65q54 0 95 -35l-17 -107q-38 27 -87 27q-40 0 -68 -28t-28 -94v-286h-117z" />
    <glyph glyph-name="s" unicode="s" horiz-adv-x="485" 
d="M239 -12q-62 0 -116.5 24t-82.5 64l80 68q54 -54 119 -54q83 0 83 50q0 17 -14.5 31t-31 21.5t-53.5 22.5q-88 29 -128.5 66.5t-40.5 99.5q0 67 51.5 104.5t130.5 37.5q116 0 183 -79l-81 -66q-45 43 -102 43q-69 0 -69 -42q0 -21 25.5 -36t74.5 -31q83 -28 125.5 -66
t42.5 -106q0 -73 -53 -112.5t-143 -39.5z" />
    <glyph glyph-name="t" unicode="t" horiz-adv-x="386" 
d="M225 -12q-119 0 -119 131v290h-76v102h76v155l117 56v-211h118v-102h-118v-267q0 -49 43 -49q39 0 80 23l-14 -105q-44 -23 -107 -23z" />
    <glyph glyph-name="u" unicode="u" horiz-adv-x="578" 
d="M386 0v49q-48 -61 -134 -61q-80 0 -131 50.5t-51 159.5v313h117v-292q0 -119 96 -119q103 0 103 117v294h117v-511h-117z" />
    <glyph glyph-name="v" unicode="v" horiz-adv-x="540" 
d="M212 0l-187 511h119l113 -319q12 -40 14 -46q6 26 14 46l111 319h119l-187 -511h-116z" />
    <glyph glyph-name="w" unicode="w" horiz-adv-x="739" 
d="M175 0l-140 511h115l66 -283q5 -23 12 -60q5 27 13 60l75 283h107l74 -283q8 -33 13 -60q7 37 12 60l67 283h115l-140 -511h-104l-75 276q-15 59 -16 70q-4 -20 -16 -70l-75 -276h-103z" />
    <glyph glyph-name="x" unicode="x" horiz-adv-x="556" 
d="M33 0l177 266l-164 245h135l69 -104q24 -36 28 -46q17 31 27 46l70 104h135l-165 -245l178 -266h-135l-83 124q-10 15 -27 46q-7 -16 -28 -46l-82 -124h-135z" />
    <glyph glyph-name="y" unicode="y" horiz-adv-x="554" 
d="M138 -194l79 202l-192 503h118l119 -314q9 -22 15 -46q5 22 14 46l120 314h118l-270 -705h-121z" />
    <glyph glyph-name="z" unicode="z" horiz-adv-x="528" 
d="M55 0v94l268 313h-248v104h393v-90l-267 -317h266v-104h-412z" />
    <glyph glyph-name="braceleft" unicode="{" horiz-adv-x="373" 
d="M333 -130q-103 2 -161.5 61.5t-58.5 172.5v62q0 34 -13 53.5t-37 19.5h-23v105h23q24 0 37 20t13 53v61q0 113 58.5 172t161.5 62v-105q-103 -6 -103 -111v-69q0 -63 -20.5 -94.5t-61.5 -41.5q82 -21 82 -136v-69q0 -107 103 -111v-105z" />
    <glyph glyph-name="bar" unicode="|" horiz-adv-x="287" 
d="M85 -378v1440h117v-1440h-117z" />
    <glyph glyph-name="braceright" unicode="}" horiz-adv-x="373" 
d="M40 -130v105q104 5 104 111v69q0 115 82 136q-41 10 -61.5 41.5t-20.5 94.5v69q0 105 -104 111v105q103 -3 162 -62.5t59 -171.5v-61q0 -33 13 -53t37 -20h22v-105h-22q-24 0 -37 -19.5t-13 -53.5v-62q0 -113 -59 -172.5t-162 -61.5z" />
    <glyph glyph-name="asciitilde" unicode="~" horiz-adv-x="630" 
d="M413 259q-46 0 -107.5 28t-84.5 28q-46 0 -53 -56h-89q0 73 34 121t104 48q47 0 107.5 -28t84.5 -28q48 0 53 56h89q0 -73 -34 -121t-104 -48z" />
    <glyph glyph-name="uni00A0" unicode="&#xa0;" horiz-adv-x="245" 
 />
    <glyph glyph-name="exclamdown" unicode="&#xa1;" horiz-adv-x="288" 
d="M145 364q-34 0 -58 23.5t-24 56.5q0 32 24 55.5t58 23.5t57.5 -23.5t23.5 -55.5q0 -33 -23.5 -56.5t-57.5 -23.5zM203 -200h-117v224l29 295h60l28 -295v-224z" />
    <glyph glyph-name="cent" unicode="&#xa2;" horiz-adv-x="533" 
d="M211 -12v104q-76 21 -118.5 88t-42.5 170t42.5 171t118.5 88v103h112v-97q120 -19 158 -138l-111 -37q-25 66 -88 66q-53 0 -83 -42t-30 -114q0 -71 29.5 -112.5t79.5 -41.5q71 0 93 74l112 -34q-36 -129 -160 -149v-99h-112z" />
    <glyph glyph-name="sterling" unicode="&#xa3;" horiz-adv-x="595" 
d="M80 0v114q66 31 81 138q1 9 1 24h-87v106h60q-31 66 -31 126q0 84 60.5 144t174.5 60q121 0 219 -72l-46 -111q-24 20 -41 32t-53.5 25t-78.5 13q-57 0 -85.5 -26.5t-28.5 -64.5q0 -13 4 -28.5t8 -26.5t13.5 -34l15.5 -37h168v-106h-151q0 -16 -1 -24q-10 -81 -60 -138
h343v-114h-485z" />
    <glyph glyph-name="currency" unicode="&#xa4;" horiz-adv-x="640" 
d="M320 86q-73 0 -128 32l-68 -69l-88 88l72 72q-27 53 -27 124q0 67 29 125l-74 74l85 84l69 -69q56 34 130 34t128 -33l68 68l88 -87l-72 -72q28 -58 28 -124q0 -72 -29 -127l73 -72l-85 -85l-70 70q-57 -33 -129 -33zM320 199q54 0 87 37.5t33 96.5t-33 97t-87 38
q-53 0 -86 -38t-33 -97q0 -58 33 -96t86 -38z" />
    <glyph glyph-name="yen" unicode="&#xa5;" horiz-adv-x="591" 
d="M365 337h128v-94h-139v-66h139v-94h-139v-83h-117v83h-141v94h141v66h-141v94h129l-210 363h134l146 -262l145 262h136z" />
    <glyph glyph-name="brokenbar" unicode="&#xa6;" horiz-adv-x="287" 
d="M85 366v459h117v-459h-117zM85 -225v459h117v-459h-117z" />
    <glyph glyph-name="section" unicode="&#xa7;" horiz-adv-x="527" 
d="M267 -120q-143 0 -217 95l85 73q61 -56 132 -56q88 0 88 60q0 7 -2 13.5t-7.5 13t-10.5 11.5t-15.5 11.5l-17.5 10.5t-21.5 10.5l-22.5 10l-25.5 11t-25.5 11.5q-36 16 -55 26t-43.5 29t-35.5 44.5t-11 59.5q0 72 64 108q-64 47 -64 125q0 77 55.5 121t142.5 44
q127 0 197 -86l-89 -71q-43 45 -108 45q-35 0 -56 -14t-21 -37q0 -17 21 -34t44 -27.5t68 -27.5q38 -15 60.5 -26.5t49 -31.5t39 -48t12.5 -65q0 -71 -56 -109q56 -49 56 -125q0 -83 -55.5 -129t-154.5 -46zM328 235q27 11 27 44q0 28 -31.5 47t-95.5 41q-45 -8 -45 -43
q0 -34 122 -80z" />
    <glyph glyph-name="dieresis" unicode="&#xa8;" horiz-adv-x="438" 
d="M126 586q-28 0 -48 20t-20 48t20 48t48 20t48 -20t20 -48t-20 -48t-48 -20zM311 586q-29 0 -48.5 20t-19.5 48t19.5 48t48.5 20t48.5 -20t19.5 -48t-19.5 -48t-48.5 -20z" />
    <glyph glyph-name="copyright" unicode="&#xa9;" horiz-adv-x="844" 
d="M422 -12q-154 0 -258 104t-104 258t104 258t258 104t258 -104t104 -258t-104 -258t-258 -104zM422 67q120 0 199 81t79 202t-79 202t-199 81t-198.5 -81t-78.5 -202t78.5 -202t198.5 -81zM426 132q-64 0 -106 34t-57.5 80.5t-15.5 103.5q0 54 16.5 101t58.5 82t104 35
q55 0 93 -25.5t56 -65.5l-79 -37q-28 43 -70 43q-45 0 -66.5 -40.5t-21.5 -92.5t23 -92.5t65 -40.5t70 45l80 -28q-45 -102 -150 -102z" />
    <glyph glyph-name="ordfeminine" unicode="&#xaa;" horiz-adv-x="439" 
d="M288 283v30q-40 -40 -106 -40q-64 0 -105.5 36.5t-41.5 103.5q0 68 47 104t112 36q54 0 94 -20v18q0 40 -19 57.5t-58 17.5q-67 0 -119 -40l-29 80q65 46 159 46q32 0 56.5 -5.5t50.5 -20.5t40.5 -49t14.5 -84v-270h-96zM201 360q51 0 87 36v56q-37 16 -77 16
q-35 0 -57 -13.5t-22 -41.5q0 -24 18 -38.5t51 -14.5z" />
    <glyph glyph-name="guillemotleft" unicode="&#xab;" horiz-adv-x="543" 
d="M182 0l-152 256l152 255h127l-152 -255l152 -256h-127zM402 0l-152 256l152 255h126l-152 -255l152 -256h-126z" />
    <glyph glyph-name="logicalnot" unicode="&#xac;" horiz-adv-x="630" 
d="M433 165v199h-353v113h470v-312h-117z" />
    <glyph glyph-name="uni00AD" unicode="&#xad;" horiz-adv-x="404" 
d="M75 240v113h254v-113h-254z" />
    <glyph glyph-name="registered" unicode="&#xae;" horiz-adv-x="844" 
d="M422 -12q-154 0 -258 104t-104 258t104 258t258 104t258 -104t104 -258t-104 -258t-258 -104zM422 67q120 0 199 81t79 202t-79 202t-199 81t-198.5 -81t-78.5 -202t78.5 -202t198.5 -81zM275 139v422h173q74 0 106.5 -36.5t32.5 -92.5q0 -39 -22 -72.5t-66 -47.5
l97 -173h-98l-86 164h-49v-164h-88zM363 385h82q26 0 38.5 13.5t12.5 33.5q0 47 -51 47h-82v-94z" />
    <glyph glyph-name="macron" unicode="&#xaf;" horiz-adv-x="438" 
d="M54 592v96h330v-96h-330z" />
    <glyph glyph-name="degree" unicode="&#xb0;" horiz-adv-x="406" 
d="M203 450q-74 0 -126 51.5t-52 125.5q0 75 51.5 125.5t126.5 50.5t126.5 -50.5t51.5 -125.5q0 -74 -51.5 -125.5t-126.5 -51.5zM203 554q29 0 48.5 21t19.5 52t-19.5 51t-48.5 20t-48.5 -20t-19.5 -51t19.5 -52t48.5 -21z" />
    <glyph glyph-name="plusminus" unicode="&#xb1;" horiz-adv-x="630" 
d="M374 345v-150h-117v150h-177v113h177v150h117v-150h176v-113h-176zM80 0v113h470v-113h-470z" />
    <glyph glyph-name="uni00B2" unicode="&#xb2;" horiz-adv-x="364" 
d="M25 444q0 167 147 242q18 10 27 16t17.5 17t8.5 24q0 17 -12.5 29t-34.5 12q-51 0 -63 -57l-90 22q13 55 55 89.5t100 34.5q66 0 106 -36t40 -93q0 -26 -7 -46t-24 -36t-31.5 -25.5t-41.5 -24.5q-64 -36 -84 -78h187v-90h-300z" />
    <glyph glyph-name="uni00B3" unicode="&#xb3;" horiz-adv-x="351" 
d="M168 437q-58 0 -98.5 32.5t-57.5 90.5l92 24q14 -59 66 -59q23 0 37 12.5t14 34.5q0 47 -59 47h-34v85h33q23 0 34.5 11.5t11.5 28.5q0 18 -11 29.5t-31 11.5q-37 0 -52 -42l-86 31q18 46 56 72.5t88 26.5q60 0 96.5 -35t36.5 -86q0 -27 -14.5 -51t-36.5 -37
q65 -28 65 -97q0 -58 -40.5 -94t-109.5 -36z" />
    <glyph glyph-name="acute" unicode="&#xb4;" horiz-adv-x="438" 
d="M89 576l142 156h152l-178 -156h-116z" />
    <glyph glyph-name="uni00B5" unicode="&#xb5;" horiz-adv-x="581" 
d="M389 0v48q-41 -60 -115 -60q-54 0 -84 33v-166l-117 -55v711h117v-292q0 -64 23.5 -91.5t71.5 -27.5q104 0 104 117v294h117v-511h-117z" />
    <glyph glyph-name="paragraph" unicode="&#xb6;" horiz-adv-x="638" 
d="M244 -200v475q-76 1 -128.5 35t-74 79.5t-21.5 97.5q0 89 56.5 151t175.5 62h306v-761l-117 -53v702h-80v-735z" />
    <glyph glyph-name="periodcentered" unicode="&#xb7;" horiz-adv-x="232" 
d="M116 272q-34 0 -57 22.5t-23 54.5q0 33 23 56t57 23t57 -23t23 -56q0 -32 -23 -54.5t-57 -22.5z" />
    <glyph glyph-name="cedilla" unicode="&#xb8;" horiz-adv-x="438" 
d="M210 -242q-71 0 -105 43l53 39q14 -17 40 -17q23 0 36 11.5t13 30.5q0 18 -14 29.5t-37 11.5q-24 0 -42 -12l-23 29l71 87h63l-36 -58q56 0 84 -24.5t28 -63.5q0 -47 -35 -76.5t-96 -29.5z" />
    <glyph glyph-name="uni00B9" unicode="&#xb9;" horiz-adv-x="212" 
d="M63 444v322h-53v72q56 0 73 28h76v-422h-96z" />
    <glyph glyph-name="ordmasculine" unicode="&#xba;" horiz-adv-x="465" 
d="M232 273q-88 0 -140 58.5t-52 160.5q0 103 52 161.5t140 58.5t140.5 -58.5t52.5 -161.5q0 -102 -52.5 -160.5t-140.5 -58.5zM232 367q44 0 69 33t25 92t-25 93t-69 34t-68.5 -33.5t-24.5 -93.5q0 -59 24.5 -92t68.5 -33z" />
    <glyph glyph-name="guillemotright" unicode="&#xbb;" horiz-adv-x="543" 
d="M15 0l152 256l-152 255h127l152 -255l-152 -256h-127zM235 0l152 256l-152 255h126l152 -255l-152 -256h-126z" />
    <glyph glyph-name="onequarter" unicode="&#xbc;" horiz-adv-x="703" 
d="M12 -12l478 724h110l-478 -724h-110zM66 283v322h-53v72q56 0 72 28h77v-422h-96zM534 0v83h-209v63l211 277h89v-255h55v-85h-55v-83h-91zM534 168v129l-99 -129h99z" />
    <glyph glyph-name="onehalf" unicode="&#xbd;" horiz-adv-x="745" 
d="M12 -12l478 724h110l-478 -724h-110zM66 283v322h-53v72q56 0 72 28h77v-422h-96zM406 0q0 167 147 242q18 10 27 16t17.5 17t8.5 24q0 17 -12.5 29t-34.5 12q-50 0 -63 -57l-90 22q13 55 55 89.5t100 34.5q66 0 106 -36t40 -93q0 -28 -8 -49t-26 -37t-33.5 -26
t-44.5 -25q-56 -29 -76 -73h187v-90h-300z" />
    <glyph glyph-name="threequarters" unicode="&#xbe;" horiz-adv-x="821" 
d="M168 276q-58 0 -98.5 32.5t-57.5 90.5l92 24q14 -59 66 -59q23 0 37 12.5t14 34.5q0 47 -59 47h-34v85h33q46 0 46 40q0 18 -11 29.5t-31 11.5q-37 0 -52 -42l-86 31q18 46 56 72.5t88 26.5q60 0 96.5 -35t36.5 -86q0 -57 -51 -88q65 -28 65 -97q0 -59 -40.5 -94.5
t-109.5 -35.5zM131 -12l478 724h110l-478 -724h-110zM652 0v83h-208v63l211 277h88v-255h55v-85h-55v-83h-91zM652 168v129l-98 -129h98z" />
    <glyph glyph-name="questiondown" unicode="&#xbf;" horiz-adv-x="503" 
d="M261 367q-34 0 -57 23t-23 55q0 33 23 55.5t57 22.5t57 -23t23 -55t-23.5 -55t-56.5 -23zM251 -200q-102 0 -159 56t-57 145q0 45 17 79.5t41.5 56.5l49.5 42.5t42 49.5t17 67v27h117v-28q0 -52 -17 -91t-41.5 -62t-49.5 -42t-42 -43.5t-17 -55.5q0 -40 26 -65t73 -25
q55 0 85 33t30 95h117q0 -112 -64 -175.5t-168 -63.5z" />
    <glyph glyph-name="Agrave" unicode="&#xc0;" horiz-adv-x="714" 
d="M372 765l-178 156h152l142 -156h-116zM551 0l-55 153h-277l-55 -153h-127l261 700h119l260 -700h-126zM458 261l-77 210q-15 38 -23 71q-8 -29 -23 -71l-78 -210h201z" />
    <glyph glyph-name="Aacute" unicode="&#xc1;" horiz-adv-x="714" 
d="M227 765l142 156h152l-178 -156h-116zM551 0l-55 153h-277l-55 -153h-127l261 700h119l260 -700h-126zM458 261l-77 210q-15 38 -23 71q-8 -29 -23 -71l-78 -210h201z" />
    <glyph glyph-name="Acircumflex" unicode="&#xc2;" horiz-adv-x="714" 
d="M446 765l-89 74l-89 -74h-110l142 156h115l141 -156h-110zM551 0l-55 153h-277l-55 -153h-127l261 700h119l260 -700h-126zM458 261l-77 210q-15 38 -23 71q-8 -29 -23 -71l-78 -210h201z" />
    <glyph glyph-name="Atilde" unicode="&#xc3;" horiz-adv-x="714" 
d="M436 774q-38 0 -90.5 23.5t-74.5 23.5q-46 0 -47 -43h-56q0 134 110 134q38 0 90 -23.5t75 -23.5q44 0 47 43h56q0 -134 -110 -134zM551 0l-55 153h-277l-55 -153h-127l261 700h119l260 -700h-126zM458 261l-77 210q-15 38 -23 71q-8 -29 -23 -71l-78 -210h201z" />
    <glyph glyph-name="Adieresis" unicode="&#xc4;" horiz-adv-x="714" 
d="M264 775q-28 0 -48 19.5t-20 48.5t20 48.5t48 19.5t48 -19.5t20 -48.5t-20 -48.5t-48 -19.5zM449 775q-29 0 -48.5 19.5t-19.5 48.5t19.5 48.5t48.5 19.5t48.5 -19.5t19.5 -48.5t-19.5 -48.5t-48.5 -19.5zM551 0l-55 153h-277l-55 -153h-127l261 700h119l260 -700h-126z
M458 261l-77 210q-15 38 -23 71q-8 -29 -23 -71l-78 -210h201z" />
    <glyph glyph-name="Aring" unicode="&#xc5;" horiz-adv-x="714" 
d="M37 0l239 643q-45 37 -45 96q0 52 37 88t89 36t89.5 -36.5t37.5 -87.5q0 -58 -46 -96l239 -643h-126l-55 153h-277l-55 -153h-127zM357 695q17 0 29.5 12.5t12.5 31.5t-12.5 31t-29.5 12q-18 0 -30 -12t-12 -31t12 -31.5t30 -12.5zM257 261h201l-77 210q-17 47 -23 71
q-11 -38 -23 -71z" />
    <glyph glyph-name="AE" unicode="&#xc6;" horiz-adv-x="866" 
d="M-19 0l407 700h414v-113h-287v-169h158v-113h-158v-192h308v-113h-428v153h-198l-87 -153h-129zM260 261h135v246q-9 -21 -32 -64z" />
    <glyph glyph-name="Ccedilla" unicode="&#xc7;" horiz-adv-x="645" 
d="M344 -242q-71 0 -105 43l53 39q14 -17 40 -17q23 0 36 11.5t13 30.5q0 18 -14 29.5t-37 11.5q-24 0 -42 -12l-23 29l54 67q-69 7 -121 40.5t-81 85.5t-43 110.5t-14 123.5q0 64 16 125t49 115.5t92 88t136 33.5q93 0 156 -43.5t88 -105.5l-108 -49q-28 43 -58.5 63
t-77.5 20q-46 0 -80.5 -22.5t-53 -60t-27 -79t-8.5 -85.5q0 -98 43.5 -172t125.5 -74q80 0 134 90l111 -42q-62 -145 -211 -162l-24 -38q56 0 84 -24.5t28 -63.5q0 -47 -35 -76.5t-96 -29.5z" />
    <glyph glyph-name="Egrave" unicode="&#xc8;" horiz-adv-x="613" 
d="M312 765l-178 156h152l142 -156h-116zM85 0v700h456v-113h-336v-169h207v-113h-207v-192h358v-113h-478z" />
    <glyph glyph-name="Eacute" unicode="&#xc9;" horiz-adv-x="613" 
d="M203 765l142 156h152l-178 -156h-116zM85 0v700h456v-113h-336v-169h207v-113h-207v-192h358v-113h-478z" />
    <glyph glyph-name="Ecircumflex" unicode="&#xca;" horiz-adv-x="613" 
d="M411 765l-89 74l-89 -74h-110l142 156h115l141 -156h-110zM85 0v700h456v-113h-336v-169h207v-113h-207v-192h358v-113h-478z" />
    <glyph glyph-name="Edieresis" unicode="&#xcb;" horiz-adv-x="613" 
d="M229 775q-29 0 -48.5 19.5t-19.5 48.5t19.5 48.5t48.5 19.5t48.5 -19.5t19.5 -48.5t-19.5 -48.5t-48.5 -19.5zM414 775q-28 0 -48 19.5t-20 48.5t20 48.5t48 19.5t48 -19.5t20 -48.5t-20 -48.5t-48 -19.5zM85 0v700h456v-113h-336v-169h207v-113h-207v-192h358v-113h-478
z" />
    <glyph glyph-name="Igrave" unicode="&#xcc;" horiz-adv-x="300" 
d="M165 765l-178 156h152l142 -156h-116zM90 0v700h120v-700h-120z" />
    <glyph glyph-name="Iacute" unicode="&#xcd;" horiz-adv-x="300" 
d="M30 765l142 156h152l-178 -156h-116zM90 0v700h120v-700h-120z" />
    <glyph glyph-name="Icircumflex" unicode="&#xce;" horiz-adv-x="300" 
d="M239 765l-89 74l-89 -74h-110l142 156h115l141 -156h-110zM90 0v700h120v-700h-120z" />
    <glyph glyph-name="Idieresis" unicode="&#xcf;" horiz-adv-x="300" 
d="M57 775q-29 0 -48.5 19.5t-19.5 48.5t19.5 48.5t48.5 19.5t48.5 -19.5t19.5 -48.5t-19.5 -48.5t-48.5 -19.5zM242 775q-28 0 -48 19.5t-20 48.5t20 48.5t48 19.5t48 -19.5t20 -48.5t-20 -48.5t-48 -19.5zM90 0v700h120v-700h-120z" />
    <glyph glyph-name="Eth" unicode="&#xd0;" horiz-adv-x="698" 
d="M85 295h-63v111h63v294h216q71 0 129 -20t96 -53t63.5 -78.5t37 -95t11.5 -103.5q0 -50 -10.5 -98t-36 -94.5t-63.5 -81t-97.5 -55.5t-133.5 -21h-212v295zM314 113q53 0 93.5 21t63 56.5t33 75.5t10.5 84q0 98 -48 167.5t-141 69.5h-120v-181h147v-111h-147v-182h109z
" />
    <glyph glyph-name="Ntilde" unicode="&#xd1;" horiz-adv-x="714" 
d="M446 774q-38 0 -90.5 23.5t-74.5 23.5q-46 0 -47 -43h-56q0 134 110 134q38 0 90 -23.5t75 -23.5q44 0 47 43h56q0 -134 -110 -134zM629 0h-109l-290 442q-14 21 -29 52q3 -24 3 -52v-442h-119v700h116l283 -435q10 -15 29 -53q-3 27 -3 53v435h119v-700z" />
    <glyph glyph-name="Ograve" unicode="&#xd2;" horiz-adv-x="734" 
d="M362 766l-178 156h152l142 -156h-116zM367 -12q-65 0 -118 21t-87.5 56.5t-58 82.5t-33.5 97.5t-10 104.5t10 104.5t33.5 97.5t58 82.5t87.5 56.5t118 21q81 0 142.5 -31.5t96 -85t51.5 -115.5t17 -130t-17 -130t-51.5 -115.5t-96 -85t-142.5 -31.5zM367 103q48 0 85 23
t57.5 60.5t30.5 79t10 84.5q0 46 -10 87.5t-30.5 78.5t-57 59t-85.5 22q-64 0 -107 -40.5t-59.5 -93.5t-16.5 -113q0 -45 10 -87t30.5 -79t57 -59t85.5 -22z" />
    <glyph glyph-name="Oacute" unicode="&#xd3;" horiz-adv-x="734" 
d="M237 765l142 156h152l-178 -156h-116zM367 -12q-65 0 -118 21t-87.5 56.5t-58 82.5t-33.5 97.5t-10 104.5t10 104.5t33.5 97.5t58 82.5t87.5 56.5t118 21q81 0 142.5 -31.5t96 -85t51.5 -115.5t17 -130t-17 -130t-51.5 -115.5t-96 -85t-142.5 -31.5zM367 103q48 0 85 23
t57.5 60.5t30.5 79t10 84.5q0 46 -10 87.5t-30.5 78.5t-57 59t-85.5 22q-64 0 -107 -40.5t-59.5 -93.5t-16.5 -113q0 -45 10 -87t30.5 -79t57 -59t85.5 -22z" />
    <glyph glyph-name="Ocircumflex" unicode="&#xd4;" horiz-adv-x="734" 
d="M456 765l-89 74l-89 -74h-110l142 156h115l141 -156h-110zM367 -12q-65 0 -118 21t-87.5 56.5t-58 82.5t-33.5 97.5t-10 104.5t10 104.5t33.5 97.5t58 82.5t87.5 56.5t118 21q81 0 142.5 -31.5t96 -85t51.5 -115.5t17 -130t-17 -130t-51.5 -115.5t-96 -85t-142.5 -31.5z
M367 103q48 0 85 23t57.5 60.5t30.5 79t10 84.5q0 46 -10 87.5t-30.5 78.5t-57 59t-85.5 22q-64 0 -107 -40.5t-59.5 -93.5t-16.5 -113q0 -45 10 -87t30.5 -79t57 -59t85.5 -22z" />
    <glyph glyph-name="Otilde" unicode="&#xd5;" horiz-adv-x="734" 
d="M446 774q-38 0 -90.5 23.5t-74.5 23.5q-46 0 -47 -43h-56q0 134 110 134q38 0 90 -23.5t75 -23.5q44 0 47 43h56q0 -134 -110 -134zM367 -12q-65 0 -118 21t-87.5 56.5t-58 82.5t-33.5 97.5t-10 104.5t10 104.5t33.5 97.5t58 82.5t87.5 56.5t118 21q81 0 142.5 -31.5
t96 -85t51.5 -115.5t17 -130t-17 -130t-51.5 -115.5t-96 -85t-142.5 -31.5zM367 103q48 0 85 23t57.5 60.5t30.5 79t10 84.5q0 46 -10 87.5t-30.5 78.5t-57 59t-85.5 22q-64 0 -107 -40.5t-59.5 -93.5t-16.5 -113q0 -45 10 -87t30.5 -79t57 -59t85.5 -22z" />
    <glyph glyph-name="Odieresis" unicode="&#xd6;" horiz-adv-x="734" 
d="M274 775q-28 0 -48 19.5t-20 48.5t20 48.5t48 19.5t48 -19.5t20 -48.5t-20 -48.5t-48 -19.5zM459 775q-29 0 -48.5 19.5t-19.5 48.5t19.5 48.5t48.5 19.5t48.5 -19.5t19.5 -48.5t-19.5 -48.5t-48.5 -19.5zM367 -12q-65 0 -118 21t-87.5 56.5t-58 82.5t-33.5 97.5
t-10 104.5t10 104.5t33.5 97.5t58 82.5t87.5 56.5t118 21q81 0 142.5 -31.5t96 -85t51.5 -115.5t17 -130t-17 -130t-51.5 -115.5t-96 -85t-142.5 -31.5zM367 103q48 0 85 23t57.5 60.5t30.5 79t10 84.5q0 46 -10 87.5t-30.5 78.5t-57 59t-85.5 22q-64 0 -107 -40.5
t-59.5 -93.5t-16.5 -113q0 -45 10 -87t30.5 -79t57 -59t85.5 -22z" />
    <glyph glyph-name="multiply" unicode="&#xd7;" horiz-adv-x="630" 
d="M316 261l-153 -154l-84 85l153 152l-152 153l81 82l153 -153l153 154l85 -85l-154 -153l153 -152l-82 -82z" />
    <glyph glyph-name="Oslash" unicode="&#xd8;" horiz-adv-x="729" 
d="M60 -12l73 107q-75 100 -75 255q0 68 17 130t51.5 115.5t96 85t142.5 31.5q91 0 159 -41l28 41h117l-73 -107q75 -100 75 -255q0 -68 -17 -130t-51.5 -115.5t-95.5 -85t-142 -31.5q-92 0 -160 42l-28 -42h-117zM210 208l246 363q-39 26 -91 26q-49 0 -86 -23t-57.5 -60.5
t-30 -79t-9.5 -84.5q0 -80 28 -142zM365 103q48 0 85 23t57 60.5t30 79t10 84.5q0 82 -28 142l-246 -362q38 -27 92 -27z" />
    <glyph glyph-name="Ugrave" unicode="&#xd9;" horiz-adv-x="706" 
d="M368 765l-178 156h152l142 -156h-116zM353 -12q-57 0 -104 14.5t-86 46t-61 87t-22 131.5v433h120v-433q0 -91 39.5 -127.5t113.5 -36.5t113.5 37t39.5 127v433h120v-433q0 -75 -21.5 -130.5t-60 -87t-86 -46.5t-105.5 -15z" />
    <glyph glyph-name="Uacute" unicode="&#xda;" horiz-adv-x="706" 
d="M241 765l142 156h152l-178 -156h-116zM353 -12q-57 0 -104 14.5t-86 46t-61 87t-22 131.5v433h120v-433q0 -91 39.5 -127.5t113.5 -36.5t113.5 37t39.5 127v433h120v-433q0 -75 -21.5 -130.5t-60 -87t-86 -46.5t-105.5 -15z" />
    <glyph glyph-name="Ucircumflex" unicode="&#xdb;" horiz-adv-x="706" 
d="M442 765l-89 74l-89 -74h-110l142 156h115l141 -156h-110zM353 -12q-57 0 -104 14.5t-86 46t-61 87t-22 131.5v433h120v-433q0 -91 39.5 -127.5t113.5 -36.5t113.5 37t39.5 127v433h120v-433q0 -75 -21.5 -130.5t-60 -87t-86 -46.5t-105.5 -15z" />
    <glyph glyph-name="Udieresis" unicode="&#xdc;" horiz-adv-x="706" 
d="M260 775q-28 0 -48 19.5t-20 48.5t20 48.5t48 19.5t48 -19.5t20 -48.5t-20 -48.5t-48 -19.5zM445 775q-29 0 -48.5 19.5t-19.5 48.5t19.5 48.5t48.5 19.5t48.5 -19.5t19.5 -48.5t-19.5 -48.5t-48.5 -19.5zM353 -12q-57 0 -104 14.5t-86 46t-61 87t-22 131.5v433h120v-433
q0 -91 39.5 -127.5t113.5 -36.5t113.5 37t39.5 127v433h120v-433q0 -75 -21.5 -130.5t-60 -87t-86 -46.5t-105.5 -15z" />
    <glyph glyph-name="Yacute" unicode="&#xdd;" horiz-adv-x="679" 
d="M229 765l142 156h152l-178 -156h-116zM280 0v274l-252 426h136l176 -303l176 303h136l-253 -426v-274h-119z" />
    <glyph glyph-name="Thorn" unicode="&#xde;" horiz-adv-x="646" 
d="M85 0v700h120v-126h171q121 0 178 -63.5t57 -154.5q0 -39 -13.5 -76t-40 -69.5t-73.5 -52t-108 -19.5h-171v-139h-120zM382 253q53 0 79 30.5t26 72.5q0 41 -24.5 72.5t-80.5 31.5h-177v-207h177z" />
    <glyph glyph-name="germandbls" unicode="&#xdf;" horiz-adv-x="567" 
d="M65 -200v671q0 122 63 181.5t155 59.5q93 0 150.5 -50.5t57.5 -132.5q0 -106 -94 -144q61 -18 95.5 -63.5t34.5 -109.5q0 -105 -59.5 -164.5t-151.5 -59.5q-61 0 -101 20l56 90q22 -6 42 -6q38 0 67.5 31.5t29.5 85.5q0 50 -32 84.5t-95 34.5h-30v104h30q40 0 65.5 24.5
t25.5 65.5q0 38 -24 62t-66 24q-102 0 -102 -134v-620z" />
    <glyph glyph-name="agrave" unicode="&#xe0;" horiz-adv-x="545" 
d="M267 576l-178 156h152l142 -156h-116zM366 0v41q-51 -53 -136 -53q-82 0 -133.5 44.5t-51.5 125.5q0 83 58.5 126t141.5 43q73 0 121 -27v27q0 49 -24.5 71t-75.5 22q-83 0 -152 -48l-36 95q83 56 200 56q40 0 70.5 -6.5t63 -25.5t50.5 -60t18 -102v-329h-114zM252 91
q67 0 114 49v66q-44 21 -102 21q-47 0 -76 -17t-29 -52q0 -31 24 -49t69 -18z" />
    <glyph glyph-name="aacute" unicode="&#xe1;" horiz-adv-x="545" 
d="M170 576l142 156h152l-178 -156h-116zM366 0v41q-51 -53 -136 -53q-82 0 -133.5 44.5t-51.5 125.5q0 83 58.5 126t141.5 43q73 0 121 -27v27q0 49 -24.5 71t-75.5 22q-83 0 -152 -48l-36 95q83 56 200 56q40 0 70.5 -6.5t63 -25.5t50.5 -60t18 -102v-329h-114zM252 91
q67 0 114 49v66q-44 21 -102 21q-47 0 -76 -17t-29 -52q0 -31 24 -49t69 -18z" />
    <glyph glyph-name="acircumflex" unicode="&#xe2;" horiz-adv-x="545" 
d="M368 576l-89 74l-89 -74h-110l142 156h115l141 -156h-110zM366 0v41q-51 -53 -136 -53q-82 0 -133.5 44.5t-51.5 125.5q0 83 58.5 126t141.5 43q73 0 121 -27v27q0 49 -24.5 71t-75.5 22q-83 0 -152 -48l-36 95q83 56 200 56q40 0 70.5 -6.5t63 -25.5t50.5 -60t18 -102
v-329h-114zM252 91q67 0 114 49v66q-44 21 -102 21q-47 0 -76 -17t-29 -52q0 -31 24 -49t69 -18z" />
    <glyph glyph-name="atilde" unicode="&#xe3;" horiz-adv-x="545" 
d="M358 585q-38 0 -90.5 23.5t-74.5 23.5q-46 0 -47 -43h-56q0 134 110 134q38 0 90 -23.5t75 -23.5q44 0 47 43h56q0 -134 -110 -134zM366 0v41q-51 -53 -136 -53q-82 0 -133.5 44.5t-51.5 125.5q0 83 58.5 126t141.5 43q73 0 121 -27v27q0 49 -24.5 71t-75.5 22
q-83 0 -152 -48l-36 95q83 56 200 56q40 0 70.5 -6.5t63 -25.5t50.5 -60t18 -102v-329h-114zM252 91q67 0 114 49v66q-44 21 -102 21q-47 0 -76 -17t-29 -52q0 -31 24 -49t69 -18z" />
    <glyph glyph-name="adieresis" unicode="&#xe4;" horiz-adv-x="545" 
d="M186 586q-28 0 -48 20t-20 48t20 48t48 20t48 -20t20 -48t-20 -48t-48 -20zM371 586q-29 0 -48.5 20t-19.5 48t19.5 48t48.5 20t48.5 -20t19.5 -48t-19.5 -48t-48.5 -20zM366 0v41q-51 -53 -136 -53q-82 0 -133.5 44.5t-51.5 125.5q0 83 58.5 126t141.5 43q73 0 121 -27
v27q0 49 -24.5 71t-75.5 22q-83 0 -152 -48l-36 95q83 56 200 56q40 0 70.5 -6.5t63 -25.5t50.5 -60t18 -102v-329h-114zM252 91q67 0 114 49v66q-44 21 -102 21q-47 0 -76 -17t-29 -52q0 -31 24 -49t69 -18z" />
    <glyph glyph-name="aring" unicode="&#xe5;" horiz-adv-x="545" 
d="M279 564q-53 0 -90 36.5t-37 88.5t37 88.5t90 36.5q52 0 89 -36.5t37 -88.5t-37 -88.5t-89 -36.5zM279 646q17 0 29.5 12.5t12.5 30.5t-12.5 31t-29.5 13q-18 0 -30 -12.5t-12 -31.5t12 -31t30 -12zM366 0v41q-51 -53 -136 -53q-82 0 -133.5 44.5t-51.5 125.5
q0 83 58.5 126t141.5 43q73 0 121 -27v27q0 49 -24.5 71t-75.5 22q-83 0 -152 -48l-36 95q83 56 200 56q40 0 70.5 -6.5t63 -25.5t50.5 -60t18 -102v-329h-114zM252 91q67 0 114 49v66q-44 21 -102 21q-47 0 -76 -17t-29 -52q0 -31 24 -49t69 -18z" />
    <glyph glyph-name="ae" unicode="&#xe6;" horiz-adv-x="857" 
d="M224 -12q-79 0 -129 44.5t-50 125.5q0 84 56.5 127t136.5 43q72 0 118 -27v26q0 49 -23.5 71t-73.5 22q-79 0 -145 -48l-36 95q84 56 195 56t155 -61q59 61 161 61q98 0 160.5 -61t62.5 -179q0 -42 -5 -72h-337q2 -54 36.5 -87t82.5 -33q68 0 108 53l74 -76
q-67 -80 -182 -80q-118 0 -180 82q-78 -82 -185 -82zM470 310h226q-4 54 -34 82t-73 28q-50 0 -82 -27t-37 -83zM248 91q64 0 108 49v66q-40 21 -97 21q-44 0 -72 -17t-28 -52q0 -31 23 -49t66 -18z" />
    <glyph glyph-name="ccedilla" unicode="&#xe7;" horiz-adv-x="533" 
d="M262 -242q-71 0 -105 43l53 39q14 -17 40 -17q23 0 36 11.5t13 30.5q0 18 -14 29.5t-37 11.5q-24 0 -42 -12l-23 29l55 68q-88 13 -138 82.5t-50 181.5q0 125 61.5 196.5t166.5 71.5q158 0 203 -141l-111 -37q-25 66 -88 66q-53 0 -83 -42t-30 -114q0 -71 29.5 -112.5
t79.5 -41.5q71 0 93 74l112 -34q-41 -140 -179 -152l-23 -37q56 0 84 -24.5t28 -63.5q0 -47 -35 -76.5t-96 -29.5z" />
    <glyph glyph-name="egrave" unicode="&#xe8;" horiz-adv-x="554" 
d="M301 576l-178 156h152l142 -156h-116zM286 -12q-109 0 -172.5 71.5t-63.5 196.5q0 124 64 195.5t172 71.5q98 0 160.5 -61t62.5 -179q0 -41 -4 -72h-339q3 -54 37.5 -87t82.5 -33q68 0 108 53l74 -76q-67 -80 -182 -80zM167 308h226q-4 55 -34 83.5t-73 28.5
q-50 0 -82.5 -27.5t-36.5 -84.5z" />
    <glyph glyph-name="eacute" unicode="&#xe9;" horiz-adv-x="554" 
d="M156 576l142 156h152l-178 -156h-116zM286 -12q-109 0 -172.5 71.5t-63.5 196.5q0 124 64 195.5t172 71.5q98 0 160.5 -61t62.5 -179q0 -41 -4 -72h-339q3 -54 37.5 -87t82.5 -33q68 0 108 53l74 -76q-67 -80 -182 -80zM167 308h226q-4 55 -34 83.5t-73 28.5
q-50 0 -82.5 -27.5t-36.5 -84.5z" />
    <glyph glyph-name="ecircumflex" unicode="&#xea;" horiz-adv-x="554" 
d="M375 576l-89 74l-89 -74h-110l142 156h115l141 -156h-110zM286 -12q-109 0 -172.5 71.5t-63.5 196.5q0 124 64 195.5t172 71.5q98 0 160.5 -61t62.5 -179q0 -41 -4 -72h-339q3 -54 37.5 -87t82.5 -33q68 0 108 53l74 -76q-67 -80 -182 -80zM167 308h226q-4 55 -34 83.5
t-73 28.5q-50 0 -82.5 -27.5t-36.5 -84.5z" />
    <glyph glyph-name="edieresis" unicode="&#xeb;" horiz-adv-x="554" 
d="M193 586q-29 0 -48.5 20t-19.5 48t19.5 48t48.5 20t48.5 -20t19.5 -48t-19.5 -48t-48.5 -20zM378 586q-28 0 -48 20t-20 48t20 48t48 20t48 -20t20 -48t-20 -48t-48 -20zM286 -12q-109 0 -172.5 71.5t-63.5 196.5q0 124 64 195.5t172 71.5q98 0 160.5 -61t62.5 -179
q0 -41 -4 -72h-339q3 -54 37.5 -87t82.5 -33q68 0 108 53l74 -76q-67 -80 -182 -80zM167 308h226q-4 55 -34 83.5t-73 28.5q-50 0 -82.5 -27.5t-36.5 -84.5z" />
    <glyph glyph-name="igrave" unicode="&#xec;" horiz-adv-x="269" 
d="M128 576l-178 156h152l142 -156h-116zM76 0v511h117v-511h-117z" />
    <glyph glyph-name="iacute" unicode="&#xed;" horiz-adv-x="269" 
d="M25 576l142 156h152l-178 -156h-116zM76 0v511h117v-511h-117z" />
    <glyph glyph-name="icircumflex" unicode="&#xee;" horiz-adv-x="269" 
d="M224 576l-89 74l-89 -74h-110l142 156h115l141 -156h-110zM76 0v511h117v-511h-117z" />
    <glyph glyph-name="idieresis" unicode="&#xef;" horiz-adv-x="269" 
d="M42 586q-28 0 -48 20t-20 48t20 48t48 20t48 -20t20 -48t-20 -48t-48 -20zM227 586q-29 0 -48.5 20t-19.5 48t19.5 48t48.5 20t48.5 -20t19.5 -48t-19.5 -48t-48.5 -20zM76 0v511h117v-511h-117z" />
    <glyph glyph-name="eth" unicode="&#xf0;" 
d="M284 -12q-101 0 -167.5 66t-66.5 167q0 100 64.5 167.5t159.5 67.5q78 0 116 -50q-18 89 -82 143l-60 -62l-64 59l45 47q-47 16 -97 17v102q101 -3 175 -37l57 59l63 -60l-45 -48q68 -58 102.5 -151t34.5 -206q0 -124 -60 -202.5t-175 -78.5zM284 100q50 0 84 34.5
t34 85.5q0 55 -33.5 90t-85.5 35q-50 0 -83 -34.5t-33 -89.5q0 -51 34 -86t83 -35z" />
    <glyph glyph-name="ntilde" unicode="&#xf1;" horiz-adv-x="578" 
d="M375 585q-38 0 -90.5 23.5t-74.5 23.5q-46 0 -47 -43h-56q0 134 110 134q38 0 90 -23.5t75 -23.5q44 0 47 43h56q0 -134 -110 -134zM391 0v293q0 119 -95 119q-104 0 -104 -117v-295h-117v511h117v-48q50 60 135 60q80 0 130.5 -50t50.5 -159v-314h-117z" />
    <glyph glyph-name="ograve" unicode="&#xf2;" 
d="M299 576l-178 156h152l142 -156h-116zM284 -12q-108 0 -171 71t-63 196t63 196.5t171 71.5t171.5 -71.5t63.5 -196.5t-63 -196t-172 -71zM284 100q55 0 86.5 41t31.5 114t-31.5 115t-86.5 42q-53 0 -85 -42.5t-32 -114.5t31.5 -113.5t85.5 -41.5z" />
    <glyph glyph-name="oacute" unicode="&#xf3;" 
d="M155 576l142 156h152l-178 -156h-116zM284 -12q-108 0 -171 71t-63 196t63 196.5t171 71.5t171.5 -71.5t63.5 -196.5t-63 -196t-172 -71zM284 100q55 0 86.5 41t31.5 114t-31.5 115t-86.5 42q-53 0 -85 -42.5t-32 -114.5t31.5 -113.5t85.5 -41.5z" />
    <glyph glyph-name="ocircumflex" unicode="&#xf4;" 
d="M374 576l-89 74l-89 -74h-110l142 156h115l141 -156h-110zM284 -12q-108 0 -171 71t-63 196t63 196.5t171 71.5t171.5 -71.5t63.5 -196.5t-63 -196t-172 -71zM284 100q55 0 86.5 41t31.5 114t-31.5 115t-86.5 42q-53 0 -85 -42.5t-32 -114.5t31.5 -113.5t85.5 -41.5z" />
    <glyph glyph-name="otilde" unicode="&#xf5;" 
d="M364 585q-38 0 -90.5 23.5t-74.5 23.5q-46 0 -47 -43h-56q0 134 110 134q38 0 90 -23.5t75 -23.5q44 0 47 43h56q0 -134 -110 -134zM284 -12q-108 0 -171 71t-63 196t63 196.5t171 71.5t171.5 -71.5t63.5 -196.5t-63 -196t-172 -71zM284 100q55 0 86.5 41t31.5 114
t-31.5 115t-86.5 42q-53 0 -85 -42.5t-32 -114.5t31.5 -113.5t85.5 -41.5z" />
    <glyph glyph-name="odieresis" unicode="&#xf6;" 
d="M192 586q-28 0 -48 20t-20 48t20 48t48 20t48 -20t20 -48t-20 -48t-48 -20zM377 586q-29 0 -48.5 20t-19.5 48t19.5 48t48.5 20t48.5 -20t19.5 -48t-19.5 -48t-48.5 -20zM284 -12q-108 0 -171 71t-63 196t63 196.5t171 71.5t171.5 -71.5t63.5 -196.5t-63 -196t-172 -71z
M284 100q55 0 86.5 41t31.5 114t-31.5 115t-86.5 42q-53 0 -85 -42.5t-32 -114.5t31.5 -113.5t85.5 -41.5z" />
    <glyph glyph-name="divide" unicode="&#xf7;" horiz-adv-x="630" 
d="M315 459q-31 0 -51.5 20t-20.5 49t20.5 49.5t51.5 20.5q30 0 51 -20.5t21 -49.5t-21 -49t-51 -20zM80 287v113h470v-113h-470zM315 88q-31 0 -51.5 20.5t-20.5 49.5t20.5 49.5t51.5 20.5q30 0 51 -20.5t21 -49.5t-21 -49.5t-51 -20.5z" />
    <glyph glyph-name="oslash" unicode="&#xf8;" 
d="M519 523l-55 -81q55 -72 55 -187q0 -125 -63 -196t-172 -71q-64 0 -111 25l-17 -25h-106l55 81q-55 71 -55 186q0 125 63 196.5t171 71.5q62 0 112 -25l17 25h106zM167 255q0 -44 12 -77l152 224q-20 10 -47 10q-53 0 -85 -42.5t-32 -114.5zM402 255q0 45 -12 78
l-152 -224q21 -9 46 -9q55 0 86.5 41t31.5 114z" />
    <glyph glyph-name="ugrave" unicode="&#xf9;" horiz-adv-x="578" 
d="M299 576l-178 156h152l142 -156h-116zM386 0v49q-48 -61 -134 -61q-80 0 -131 50.5t-51 159.5v313h117v-292q0 -119 96 -119q103 0 103 117v294h117v-511h-117z" />
    <glyph glyph-name="uacute" unicode="&#xfa;" horiz-adv-x="578" 
d="M154 576l142 156h152l-178 -156h-116zM386 0v49q-48 -61 -134 -61q-80 0 -131 50.5t-51 159.5v313h117v-292q0 -119 96 -119q103 0 103 117v294h117v-511h-117z" />
    <glyph glyph-name="ucircumflex" unicode="&#xfb;" horiz-adv-x="578" 
d="M373 576l-89 74l-89 -74h-110l142 156h115l141 -156h-110zM386 0v49q-48 -61 -134 -61q-80 0 -131 50.5t-51 159.5v313h117v-292q0 -119 96 -119q103 0 103 117v294h117v-511h-117z" />
    <glyph glyph-name="udieresis" unicode="&#xfc;" horiz-adv-x="578" 
d="M191 586q-29 0 -48.5 20t-19.5 48t19.5 48t48.5 20t48.5 -20t19.5 -48t-19.5 -48t-48.5 -20zM376 586q-28 0 -48 20t-20 48t20 48t48 20t48 -20t20 -48t-20 -48t-48 -20zM386 0v49q-48 -61 -134 -61q-80 0 -131 50.5t-51 159.5v313h117v-292q0 -119 96 -119
q103 0 103 117v294h117v-511h-117z" />
    <glyph glyph-name="yacute" unicode="&#xfd;" horiz-adv-x="554" 
d="M147 576l142 156h152l-178 -156h-116zM138 -194l79 202l-192 503h118l119 -314q9 -22 15 -46q5 22 14 46l120 314h118l-270 -705h-121z" />
    <glyph glyph-name="thorn" unicode="&#xfe;" horiz-adv-x="567" 
d="M306 -12q-74 0 -116 53v-186l-117 -54v856l117 55v-240q42 51 116 51q97 0 154 -70.5t57 -197.5q0 -124 -58 -195.5t-153 -71.5zM288 100q54 0 83 40t29 115q0 71 -29.5 114t-82.5 43q-64 0 -98 -50v-212q35 -50 98 -50z" />
    <glyph glyph-name="ydieresis" unicode="&#xff;" horiz-adv-x="554" 
d="M184 586q-28 0 -48 20t-20 48t20 48t48 20t48 -20t20 -48t-20 -48t-48 -20zM369 586q-29 0 -48.5 20t-19.5 48t19.5 48t48.5 20t48.5 -20t19.5 -48t-19.5 -48t-48.5 -20zM138 -194l79 202l-192 503h118l119 -314q9 -22 15 -46q5 22 14 46l120 314h118l-270 -705h-121z
" />
    <glyph glyph-name="Amacron" unicode="&#x100;" horiz-adv-x="714" 
d="M192 781v96h330v-96h-330zM551 0l-55 153h-277l-55 -153h-127l261 700h119l260 -700h-126zM458 261l-77 210q-15 38 -23 71q-8 -29 -23 -71l-78 -210h201z" />
    <glyph glyph-name="amacron" unicode="&#x101;" horiz-adv-x="545" 
d="M114 592v96h330v-96h-330zM366 0v41q-51 -53 -136 -53q-82 0 -133.5 44.5t-51.5 125.5q0 83 58.5 126t141.5 43q73 0 121 -27v27q0 49 -24.5 71t-75.5 22q-83 0 -152 -48l-36 95q83 56 200 56q40 0 70.5 -6.5t63 -25.5t50.5 -60t18 -102v-329h-114zM252 91q67 0 114 49
v66q-44 21 -102 21q-47 0 -76 -17t-29 -52q0 -31 24 -49t69 -18z" />
    <glyph glyph-name="Abreve" unicode="&#x102;" horiz-adv-x="714" 
d="M357 763q-92 0 -140 48t-48 120h94q0 -33 24.5 -56t69.5 -23q44 0 69 23t25 56h94q0 -72 -48 -120t-140 -48zM551 0l-55 153h-277l-55 -153h-127l261 700h119l260 -700h-126zM458 261l-77 210q-15 38 -23 71q-8 -29 -23 -71l-78 -210h201z" />
    <glyph glyph-name="abreve" unicode="&#x103;" horiz-adv-x="545" 
d="M279 574q-92 0 -140 48t-48 120h94q0 -33 24.5 -56t69.5 -23q44 0 69 23t25 56h94q0 -72 -48 -120t-140 -48zM366 0v41q-51 -53 -136 -53q-82 0 -133.5 44.5t-51.5 125.5q0 83 58.5 126t141.5 43q73 0 121 -27v27q0 49 -24.5 71t-75.5 22q-83 0 -152 -48l-36 95
q83 56 200 56q40 0 70.5 -6.5t63 -25.5t50.5 -60t18 -102v-329h-114zM252 91q67 0 114 49v66q-44 21 -102 21q-47 0 -76 -17t-29 -52q0 -31 24 -49t69 -18z" />
    <glyph glyph-name="Aogonek" unicode="&#x104;" horiz-adv-x="714" 
d="M558 -242q-55 0 -88.5 29t-33.5 77q0 91 115 136l-55 153h-277l-55 -153h-127l261 700h119l260 -700q-57 0 -101 -39.5t-44 -86.5q0 -24 12.5 -36t31.5 -12q26 0 40 19l55 -40q-41 -47 -113 -47zM257 261h201l-77 210q-17 41 -23 71q-5 -21 -23 -71z" />
    <glyph glyph-name="aogonek" unicode="&#x105;" horiz-adv-x="545" 
d="M377 -242q-56 0 -89.5 28.5t-33.5 77.5q0 89 112 137v40q-51 -53 -136 -53q-82 0 -133.5 44.5t-51.5 125.5q0 83 58.5 126t141.5 43q73 0 121 -27v27q0 49 -24.5 71t-75.5 22q-83 0 -152 -48l-36 95q83 56 200 56q40 0 70.5 -6.5t63 -25.5t50.5 -60t18 -102v-329
q-55 -14 -92.5 -50t-37.5 -76q0 -24 12.5 -36t31.5 -12q26 0 40 19l56 -40q-43 -47 -113 -47zM252 91q67 0 114 49v66q-44 21 -102 21q-47 0 -76 -17t-29 -52q0 -31 24 -49t69 -18z" />
    <glyph glyph-name="Cacute" unicode="&#x106;" horiz-adv-x="645" 
d="M242 765l142 156h152l-178 -156h-116zM353 -12q-63 0 -114 21t-83.5 56t-54.5 83t-31.5 98t-9.5 104q0 64 16 125t49 115.5t92 88t136 33.5q93 0 156 -43.5t88 -105.5l-108 -49q-28 43 -58.5 63t-77.5 20q-46 0 -80.5 -22.5t-53 -60t-27 -79t-8.5 -85.5q0 -98 43.5 -172
t125.5 -74q80 0 134 90l111 -42q-73 -164 -245 -164z" />
    <glyph glyph-name="cacute" unicode="&#x107;" horiz-adv-x="533" 
d="M148 576l142 156h152l-178 -156h-116zM278 -12q-105 0 -166.5 71t-61.5 196t61.5 196.5t166.5 71.5q158 0 203 -141l-111 -37q-25 66 -88 66q-53 0 -83 -42t-30 -114q0 -71 29.5 -112.5t79.5 -41.5q71 0 93 74l112 -34q-44 -153 -205 -153z" />
    <glyph glyph-name="Ccircumflex" unicode="&#x108;" horiz-adv-x="645" 
d="M442 765l-89 74l-89 -74h-110l142 156h115l141 -156h-110zM353 -12q-63 0 -114 21t-83.5 56t-54.5 83t-31.5 98t-9.5 104q0 64 16 125t49 115.5t92 88t136 33.5q93 0 156 -43.5t88 -105.5l-108 -49q-28 43 -58.5 63t-77.5 20q-46 0 -80.5 -22.5t-53 -60t-27 -79
t-8.5 -85.5q0 -98 43.5 -172t125.5 -74q80 0 134 90l111 -42q-73 -164 -245 -164z" />
    <glyph glyph-name="ccircumflex" unicode="&#x109;" horiz-adv-x="533" 
d="M367 576l-89 74l-89 -74h-110l142 156h115l141 -156h-110zM278 -12q-105 0 -166.5 71t-61.5 196t61.5 196.5t166.5 71.5q158 0 203 -141l-111 -37q-25 66 -88 66q-53 0 -83 -42t-30 -114q0 -71 29.5 -112.5t79.5 -41.5q71 0 93 74l112 -34q-44 -153 -205 -153z" />
    <glyph glyph-name="Cdotaccent" unicode="&#x10a;" horiz-adv-x="645" 
d="M353 775q-29 0 -48.5 19.5t-19.5 48.5t19.5 48.5t48.5 19.5t48.5 -19.5t19.5 -48.5t-19.5 -48.5t-48.5 -19.5zM353 -12q-63 0 -114 21t-83.5 56t-54.5 83t-31.5 98t-9.5 104q0 64 16 125t49 115.5t92 88t136 33.5q93 0 156 -43.5t88 -105.5l-108 -49q-28 43 -58.5 63
t-77.5 20q-46 0 -80.5 -22.5t-53 -60t-27 -79t-8.5 -85.5q0 -98 43.5 -172t125.5 -74q80 0 134 90l111 -42q-73 -164 -245 -164z" />
    <glyph glyph-name="cdotaccent" unicode="&#x10b;" horiz-adv-x="533" 
d="M278 586q-29 0 -48.5 19.5t-19.5 48.5t19.5 48.5t48.5 19.5q28 0 48 -20t20 -48t-20 -48t-48 -20zM278 -12q-105 0 -166.5 71t-61.5 196t61.5 196.5t166.5 71.5q158 0 203 -141l-111 -37q-25 66 -88 66q-53 0 -83 -42t-30 -114q0 -71 29.5 -112.5t79.5 -41.5q71 0 93 74
l112 -34q-44 -153 -205 -153z" />
    <glyph glyph-name="Ccaron" unicode="&#x10c;" horiz-adv-x="645" 
d="M410 765h-115l-141 156h110l89 -74l89 74h110zM353 -12q-63 0 -114 21t-83.5 56t-54.5 83t-31.5 98t-9.5 104q0 64 16 125t49 115.5t92 88t136 33.5q93 0 156 -43.5t88 -105.5l-108 -49q-28 43 -58.5 63t-77.5 20q-46 0 -80.5 -22.5t-53 -60t-27 -79t-8.5 -85.5
q0 -98 43.5 -172t125.5 -74q80 0 134 90l111 -42q-73 -164 -245 -164z" />
    <glyph glyph-name="ccaron" unicode="&#x10d;" horiz-adv-x="533" 
d="M335 576h-115l-141 156h110l89 -74l89 74h110zM278 -12q-105 0 -166.5 71t-61.5 196t61.5 196.5t166.5 71.5q158 0 203 -141l-111 -37q-25 66 -88 66q-53 0 -83 -42t-30 -114q0 -71 29.5 -112.5t79.5 -41.5q71 0 93 74l112 -34q-44 -153 -205 -153z" />
    <glyph glyph-name="Dcaron" unicode="&#x10e;" horiz-adv-x="698" 
d="M372 765h-115l-141 156h110l89 -74l89 74h110zM85 700h216q71 0 129 -20t96 -53t63.5 -78.5t37 -95t11.5 -103.5q0 -50 -10.5 -98t-36 -94.5t-63.5 -81t-97.5 -55.5t-133.5 -21h-212v700zM314 113q53 0 93.5 21t63 56.5t33 75.5t10.5 84q0 98 -48 167.5t-141 69.5h-120
v-474h109z" />
    <glyph glyph-name="dcaron" unicode="&#x10f;" horiz-adv-x="738" 
d="M262 -12q-98 0 -155 71t-57 197q0 123 59 195t153 72q74 0 115 -48v194l117 53v-722h-117v37q-38 -49 -115 -49zM713 712v-8q0 -143 -104 -244l-37 28q30 62 30 224h111zM280 100q65 0 97 49v214q-33 49 -97 49q-54 0 -83.5 -40.5t-29.5 -115.5q0 -71 30 -113.5t83 -42.5
z" />
    <glyph glyph-name="Dcroat" unicode="&#x110;" horiz-adv-x="698" 
d="M85 295h-63v111h63v294h216q71 0 129 -20t96 -53t63.5 -78.5t37 -95t11.5 -103.5q0 -50 -10.5 -98t-36 -94.5t-63.5 -81t-97.5 -55.5t-133.5 -21h-212v295zM314 113q53 0 93.5 21t63 56.5t33 75.5t10.5 84q0 98 -48 167.5t-141 69.5h-120v-181h147v-111h-147v-182h109z
" />
    <glyph glyph-name="dcroat" unicode="&#x111;" 
d="M494 540v-540h-117v37q-38 -49 -115 -49q-97 0 -154.5 68t-57.5 185q0 113 59.5 181.5t152.5 68.5q74 0 115 -48v97h-121v94h121v35l117 53v-88h63v-94h-63zM280 100q65 0 97 49v182q-12 20 -37.5 34.5t-59.5 14.5q-53 0 -83 -37.5t-30 -101.5q0 -61 30.5 -101t82.5 -40z
" />
    <glyph glyph-name="Emacron" unicode="&#x112;" horiz-adv-x="613" 
d="M157 781v96h330v-96h-330zM85 0v700h456v-113h-336v-169h207v-113h-207v-192h358v-113h-478z" />
    <glyph glyph-name="emacron" unicode="&#x113;" horiz-adv-x="554" 
d="M121 592v96h330v-96h-330zM286 -12q-109 0 -172.5 71.5t-63.5 196.5q0 124 64 195.5t172 71.5q98 0 160.5 -61t62.5 -179q0 -41 -4 -72h-339q3 -54 37.5 -87t82.5 -33q68 0 108 53l74 -76q-67 -80 -182 -80zM167 308h226q-4 55 -34 83.5t-73 28.5q-50 0 -82.5 -27.5
t-36.5 -84.5z" />
    <glyph glyph-name="Ebreve" unicode="&#x114;" horiz-adv-x="613" 
d="M322 763q-92 0 -140 48t-48 120h94q0 -33 24.5 -56t69.5 -23q44 0 69 23t25 56h94q0 -72 -48 -120t-140 -48zM85 0v700h456v-113h-336v-169h207v-113h-207v-192h358v-113h-478z" />
    <glyph glyph-name="ebreve" unicode="&#x115;" horiz-adv-x="554" 
d="M286 574q-92 0 -140 48t-48 120h94q0 -33 24.5 -56t69.5 -23q44 0 69 23t25 56h94q0 -72 -48 -120t-140 -48zM286 -12q-109 0 -172.5 71.5t-63.5 196.5q0 124 64 195.5t172 71.5q98 0 160.5 -61t62.5 -179q0 -41 -4 -72h-339q3 -54 37.5 -87t82.5 -33q68 0 108 53l74 -76
q-67 -80 -182 -80zM167 308h226q-4 55 -34 83.5t-73 28.5q-50 0 -82.5 -27.5t-36.5 -84.5z" />
    <glyph glyph-name="Edotaccent" unicode="&#x116;" horiz-adv-x="613" 
d="M322 775q-29 0 -48.5 19.5t-19.5 48.5t19.5 48.5t48.5 19.5q28 0 48 -19.5t20 -48.5t-20 -48.5t-48 -19.5zM85 0v700h456v-113h-336v-169h207v-113h-207v-192h358v-113h-478z" />
    <glyph glyph-name="edotaccent" unicode="&#x117;" horiz-adv-x="554" 
d="M286 586q-29 0 -48.5 19.5t-19.5 48.5t19.5 48.5t48.5 19.5q28 0 48 -20t20 -48t-20 -48t-48 -20zM286 -12q-109 0 -172.5 71.5t-63.5 196.5q0 124 64 195.5t172 71.5q98 0 160.5 -61t62.5 -179q0 -41 -4 -72h-339q3 -54 37.5 -87t82.5 -33q68 0 108 53l74 -76
q-67 -80 -182 -80zM167 308h226q-4 55 -34 83.5t-73 28.5q-50 0 -82.5 -27.5t-36.5 -84.5z" />
    <glyph glyph-name="Eogonek" unicode="&#x118;" horiz-adv-x="613" 
d="M419 -242q-56 0 -89.5 28.5t-33.5 77.5q0 44 29 79.5t81 56.5h-321v700h456v-113h-336v-169h207v-113h-207v-192h358v-113h-25q-63 0 -104.5 -41.5t-41.5 -84.5q0 -24 12.5 -36t31.5 -12q26 0 40 19l56 -40q-43 -47 -113 -47z" />
    <glyph glyph-name="eogonek" unicode="&#x119;" horiz-adv-x="554" 
d="M297 -242q-56 0 -89 28.5t-33 77.5q0 79 90 124q-101 8 -158 79t-57 189q0 124 64 195.5t172 71.5q98 0 160.5 -61t62.5 -179q0 -41 -4 -72h-339q3 -54 37.5 -87t82.5 -33q68 0 108 53l74 -76q-26 -31 -92 -70q-36 -22 -53 -33.5t-34.5 -36.5t-17.5 -54q0 -24 12 -36
t32 -12q26 0 40 19l55 -40q-41 -47 -113 -47zM286 420q-50 0 -82.5 -27.5t-36.5 -84.5h226q-4 55 -34 83.5t-73 28.5z" />
    <glyph glyph-name="Ecaron" unicode="&#x11a;" horiz-adv-x="613" 
d="M379 765h-115l-141 156h110l89 -74l89 74h110zM85 0v700h456v-113h-336v-169h207v-113h-207v-192h358v-113h-478z" />
    <glyph glyph-name="ecaron" unicode="&#x11b;" horiz-adv-x="554" 
d="M343 576h-115l-141 156h110l89 -74l89 74h110zM286 -12q-109 0 -172.5 71.5t-63.5 196.5q0 124 64 195.5t172 71.5q98 0 160.5 -61t62.5 -179q0 -41 -4 -72h-339q3 -54 37.5 -87t82.5 -33q68 0 108 53l74 -76q-67 -80 -182 -80zM167 308h226q-4 55 -34 83.5t-73 28.5
q-50 0 -82.5 -27.5t-36.5 -84.5z" />
    <glyph glyph-name="Gcircumflex" unicode="&#x11c;" horiz-adv-x="682" 
d="M456 765l-89 74l-89 -74h-110l142 156h115l141 -156h-110zM367 -12q-78 0 -138.5 30.5t-96.5 82.5t-54 115t-18 134q0 52 11.5 103t36.5 98t60 82.5t86.5 57t112.5 21.5q92 0 148 -37.5t97 -103.5l-107 -61q-58 86 -138 86q-50 0 -87.5 -22.5t-57.5 -60t-29 -78.5t-9 -85
q0 -104 46 -175t137 -71q58 0 96.5 38t38.5 93v11h-123v113h245v-97q0 -129 -72 -201.5t-185 -72.5z" />
    <glyph glyph-name="gcircumflex" unicode="&#x11d;" 
d="M383 576l-89 74l-89 -74h-110l142 156h115l141 -156h-110zM253 -200l-62 94q105 7 145.5 32.5t40.5 78.5v29q-42 -46 -116 -46q-94 0 -152.5 69.5t-58.5 198.5q0 124 58.5 195.5t153.5 71.5q72 0 115 -43v31h117v-460q0 -127 -54.5 -184t-186.5 -67zM281 100q63 0 96 50
v212q-35 50 -96 50q-55 0 -84.5 -40t-29.5 -116q0 -72 30 -114t84 -42z" />
    <glyph glyph-name="Gbreve" unicode="&#x11e;" horiz-adv-x="682" 
d="M367 763q-92 0 -140 48t-48 120h94q0 -33 24.5 -56t69.5 -23q44 0 69 23t25 56h94q0 -72 -48 -120t-140 -48zM367 -12q-78 0 -138.5 30.5t-96.5 82.5t-54 115t-18 134q0 52 11.5 103t36.5 98t60 82.5t86.5 57t112.5 21.5q92 0 148 -37.5t97 -103.5l-107 -61
q-58 86 -138 86q-50 0 -87.5 -22.5t-57.5 -60t-29 -78.5t-9 -85q0 -104 46 -175t137 -71q58 0 96.5 38t38.5 93v11h-123v113h245v-97q0 -129 -72 -201.5t-185 -72.5z" />
    <glyph glyph-name="gbreve" unicode="&#x11f;" 
d="M294 574q-92 0 -140 48t-48 120h94q0 -33 24.5 -56t69.5 -23q44 0 69 23t25 56h94q0 -72 -48 -120t-140 -48zM253 -200l-62 94q105 7 145.5 32.5t40.5 78.5v29q-42 -46 -116 -46q-94 0 -152.5 69.5t-58.5 198.5q0 124 58.5 195.5t153.5 71.5q72 0 115 -43v31h117v-460
q0 -127 -54.5 -184t-186.5 -67zM281 100q63 0 96 50v212q-35 50 -96 50q-55 0 -84.5 -40t-29.5 -116q0 -72 30 -114t84 -42z" />
    <glyph glyph-name="Gdotaccent" unicode="&#x120;" horiz-adv-x="682" 
d="M368 775q-29 0 -48.5 19.5t-19.5 48.5t19.5 48.5t48.5 19.5q28 0 48 -19.5t20 -48.5t-20 -48.5t-48 -19.5zM367 -12q-78 0 -138.5 30.5t-96.5 82.5t-54 115t-18 134q0 52 11.5 103t36.5 98t60 82.5t86.5 57t112.5 21.5q92 0 148 -37.5t97 -103.5l-107 -61q-58 86 -138 86
q-50 0 -87.5 -22.5t-57.5 -60t-29 -78.5t-9 -85q0 -104 46 -175t137 -71q58 0 96.5 38t38.5 93v11h-123v113h245v-97q0 -129 -72 -201.5t-185 -72.5z" />
    <glyph glyph-name="gdotaccent" unicode="&#x121;" 
d="M294 586q-29 0 -48.5 19.5t-19.5 48.5t19.5 48.5t48.5 19.5q28 0 48 -20t20 -48t-20 -48t-48 -20zM253 -200l-62 94q105 7 145.5 32.5t40.5 78.5v29q-42 -46 -116 -46q-94 0 -152.5 69.5t-58.5 198.5q0 124 58.5 195.5t153.5 71.5q72 0 115 -43v31h117v-460
q0 -127 -54.5 -184t-186.5 -67zM281 100q63 0 96 50v212q-35 50 -96 50q-55 0 -84.5 -40t-29.5 -116q0 -72 30 -114t84 -42z" />
    <glyph glyph-name="Gcommaaccent" unicode="&#x122;" horiz-adv-x="682" 
d="M367 -12q-78 0 -138.5 30.5t-96.5 82.5t-54 115t-18 134q0 52 11.5 103t36.5 98t60 82.5t86.5 57t112.5 21.5q92 0 148 -37.5t97 -103.5l-107 -61q-58 86 -138 86q-50 0 -87.5 -22.5t-57.5 -60t-29 -78.5t-9 -85q0 -104 46 -175t137 -71q58 0 96.5 38t38.5 93v11h-123
v113h245v-97q0 -129 -72 -201.5t-185 -72.5zM312 -247q37 33 50 72q-27 0 -46 18t-19 46q0 31 20 51t49 20q32 0 52 -20.5t20 -56.5q0 -86 -86 -156z" />
    <glyph glyph-name="gcommaaccent" unicode="&#x123;" 
d="M295 586q-32 0 -52 20.5t-20 56.5q0 86 86 156l40 -26q-37 -33 -50 -72q27 0 46 -18t19 -46q0 -31 -20.5 -51t-48.5 -20zM253 -200l-62 94q105 7 145.5 32.5t40.5 78.5v29q-42 -46 -116 -46q-94 0 -152.5 69.5t-58.5 198.5q0 124 58.5 195.5t153.5 71.5q72 0 115 -43v31
h117v-460q0 -127 -54.5 -184t-186.5 -67zM281 100q63 0 96 50v212q-35 50 -96 50q-55 0 -84.5 -40t-29.5 -116q0 -72 30 -114t84 -42z" />
    <glyph glyph-name="Hcircumflex" unicode="&#x124;" horiz-adv-x="715" 
d="M447 765l-89 74l-89 -74h-110l142 156h115l141 -156h-110zM511 0v304h-306v-304h-120v700h120v-283h306v283h119v-700h-119z" />
    <glyph glyph-name="hcircumflex" unicode="&#x125;" horiz-adv-x="578" 
d="M385 765l-89 74l-89 -74h-110l142 156h115l141 -156h-110zM75 0v668l117 54v-259q50 60 135 60q80 0 130.5 -50t50.5 -159v-314h-117v295q0 117 -95 117q-104 0 -104 -115v-297h-117z" />
    <glyph glyph-name="Hbar" unicode="&#x126;" horiz-adv-x="715" 
d="M511 0v304h-306v-304h-120v506h-85v113h85v81h120v-81h306v81h119v-81h85v-113h-85v-506h-119zM511 417v89h-306v-89h306z" />
    <glyph glyph-name="hbar" unicode="&#x127;" horiz-adv-x="578" 
d="M75 0v540h-58v94h58v34l117 54v-88h137v-94h-137v-107q50 60 135 60q80 0 130.5 -50t50.5 -159v-284h-117v273q0 55 -26 82t-69 27q-47 0 -75.5 -25.5t-28.5 -81.5v-275h-117z" />
    <glyph glyph-name="Itilde" unicode="&#x128;" horiz-adv-x="300" 
d="M229 774q-38 0 -90.5 23.5t-74.5 23.5q-46 0 -47 -43h-56q0 134 110 134q38 0 90 -23.5t75 -23.5q44 0 47 43h56q0 -134 -110 -134zM90 0v700h120v-700h-120z" />
    <glyph glyph-name="itilde" unicode="&#x129;" horiz-adv-x="269" 
d="M214 585q-38 0 -90.5 23.5t-74.5 23.5q-46 0 -47 -43h-56q0 134 110 134q38 0 90 -23.5t75 -23.5q44 0 47 43h56q0 -134 -110 -134zM76 0v511h117v-511h-117z" />
    <glyph glyph-name="Imacron" unicode="&#x12a;" horiz-adv-x="300" 
d="M-15 781v96h330v-96h-330zM90 0v700h120v-700h-120z" />
    <glyph glyph-name="imacron" unicode="&#x12b;" horiz-adv-x="269" 
d="M-30 592v96h330v-96h-330zM76 0v511h117v-511h-117z" />
    <glyph glyph-name="Ibreve" unicode="&#x12c;" horiz-adv-x="300" 
d="M150 763q-92 0 -140 48t-48 120h94q0 -33 24.5 -56t69.5 -23q44 0 69 23t25 56h94q0 -72 -48 -120t-140 -48zM90 0v700h120v-700h-120z" />
    <glyph glyph-name="ibreve" unicode="&#x12d;" horiz-adv-x="269" 
d="M135 574q-92 0 -140 48t-48 120h94q0 -33 24.5 -56t69.5 -23q44 0 69 23t25 56h94q0 -72 -48 -120t-140 -48zM76 0v511h117v-511h-117z" />
    <glyph glyph-name="Iogonek" unicode="&#x12e;" horiz-adv-x="300" 
d="M101 -242q-56 0 -89.5 28.5t-33.5 77.5q0 43 29.5 78.5t82.5 57.5v700h120v-700q-63 -15 -99 -49.5t-36 -76.5q0 -24 12 -36t32 -12q26 0 40 19l55 -40q-41 -47 -113 -47z" />
    <glyph glyph-name="iogonek" unicode="&#x12f;" horiz-adv-x="266" 
d="M133 581q-29 0 -49 20.5t-20 49.5t20 49t49 20t49.5 -20t20.5 -49t-20.5 -49.5t-49.5 -20.5zM86 -242q-56 0 -89.5 28.5t-33.5 77.5q0 90 112 136v511h117v-511q-68 -18 -100 -53t-32 -73q0 -24 12 -36t32 -12q26 0 40 19l55 -40q-41 -47 -113 -47z" />
    <glyph glyph-name="Idotaccent" unicode="&#x130;" horiz-adv-x="300" 
d="M150 775q-29 0 -48.5 19.5t-19.5 48.5t19.5 48.5t48.5 19.5q28 0 48 -19.5t20 -48.5t-20 -48.5t-48 -19.5zM90 0v700h120v-700h-120z" />
    <glyph glyph-name="dotlessi" unicode="&#x131;" horiz-adv-x="269" 
d="M76 0v511h117v-511h-117z" />
    <glyph glyph-name="IJ" unicode="&#x132;" horiz-adv-x="875" 
d="M90 0v700h120v-700h-120zM559 -12q-76 0 -136.5 37.5t-92.5 105.5l104 50q39 -78 125 -78q117 0 117 149v448h119v-461q0 -57 -14.5 -102t-37.5 -72.5t-55 -45t-63.5 -24.5t-65.5 -7z" />
    <glyph glyph-name="ij" unicode="&#x133;" horiz-adv-x="538" 
d="M135 581q-29 0 -49.5 20.5t-20.5 49.5t20.5 49t49.5 20t49 -20t20 -49t-20 -49.5t-49 -20.5zM404 581q-29 0 -49.5 20.5t-20.5 49.5t20.5 49t49.5 20t49 -20t20 -49t-20 -49.5t-49 -20.5zM76 0v511h117v-511h-117zM262 -214l-58 90q80 17 110.5 42t30.5 74v519h117v-485
q0 -111 -49 -162q-54 -57 -151 -78z" />
    <glyph glyph-name="Jcircumflex" unicode="&#x134;" horiz-adv-x="565" 
d="M515 765l-89 74l-89 -74h-110l142 156h115l141 -156h-110zM249 -12q-76 0 -136.5 37.5t-92.5 105.5l104 50q39 -78 125 -78q117 0 117 149v448h119v-461q0 -57 -14.5 -102t-37.5 -72.5t-55 -45t-63.5 -24.5t-65.5 -7z" />
    <glyph glyph-name="jcircumflex" unicode="&#x135;" horiz-adv-x="269" 
d="M224 576l-89 74l-89 -74h-110l142 156h115l141 -156h-110zM-7 -214l-58 90q80 17 110.5 42t30.5 74v519h117v-485q0 -111 -49 -162q-54 -57 -151 -78z" />
    <glyph glyph-name="Kcommaaccent" unicode="&#x136;" horiz-adv-x="695" 
d="M520 0l-188 351l-127 -155v-196h-120v700h120v-336l267 336h140l-200 -248l248 -452h-140zM293 -247q37 33 50 72q-27 0 -46 18t-19 46q0 31 20 51t49 20q32 0 52 -20.5t20 -56.5q0 -86 -86 -156z" />
    <glyph glyph-name="kcommaaccent" unicode="&#x137;" horiz-adv-x="558" 
d="M523 0h-128l-146 282l-57 -56v-226h-117v667l117 55v-359l144 148h142l-145 -145zM224 -247q37 33 50 72q-27 0 -46 18t-19 46q0 31 20 51t49 20q32 0 52 -20.5t20 -56.5q0 -86 -86 -156z" />
    <glyph glyph-name="kgreenlandic" unicode="&#x138;" horiz-adv-x="547" 
d="M383 0l-122 227l-69 -84v-143h-117v511h117v-213l171 213h130l-155 -191l174 -320h-129z" />
    <glyph glyph-name="Lacute" unicode="&#x139;" horiz-adv-x="565" 
d="M37 765l142 156h152l-178 -156h-116zM85 0v700h120v-585h340v-115h-460z" />
    <glyph glyph-name="lacute" unicode="&#x13a;" horiz-adv-x="277" 
d="M9 756l142 156h152l-178 -156h-116zM80 0v667l117 55v-722h-117z" />
    <glyph glyph-name="Lcommaaccent" unicode="&#x13b;" horiz-adv-x="565" 
d="M85 0v700h120v-585h340v-115h-460zM260 -247q37 33 50 72q-27 0 -46 18t-19 46q0 31 20 51t49 20q32 0 52 -20.5t20 -56.5q0 -86 -86 -156z" />
    <glyph glyph-name="lcommaaccent" unicode="&#x13c;" horiz-adv-x="277" 
d="M80 0v667l117 55v-722h-117zM84 -247q37 33 50 72q-27 0 -46 18t-19 46q0 31 20 51t49 20q32 0 52 -20.5t20 -56.5q0 -86 -86 -156z" />
    <glyph glyph-name="Lcaron" unicode="&#x13d;" horiz-adv-x="565" 
d="M202 765h-115l-141 156h110l89 -74l89 74h110zM85 0v700h120v-585h340v-115h-460z" />
    <glyph glyph-name="lcaron" unicode="&#x13e;" horiz-adv-x="433" 
d="M80 0v667l117 55v-722h-117zM408 712v-8q0 -143 -104 -244l-37 28q30 62 30 224h111z" />
    <glyph glyph-name="Ldot" unicode="&#x13f;" horiz-adv-x="565" 
d="M85 0v700h120v-585h340v-115h-460zM432 272q-34 0 -57 22.5t-23 54.5q0 33 23 56t57 23t57 -23t23 -56q0 -32 -23 -54.5t-57 -22.5z" />
    <glyph glyph-name="ldot" unicode="&#x140;" horiz-adv-x="400" 
d="M80 0v667l117 55v-722h-117zM335 239q-34 0 -57 22.5t-23 54.5q0 33 23 56t57 23q33 0 56.5 -23.5t23.5 -55.5t-23 -54.5t-57 -22.5z" />
    <glyph glyph-name="Lslash" unicode="&#x141;" horiz-adv-x="565" 
d="M85 0v224l-68 -52v131l68 52v345h120v-255l138 105v-131l-138 -104v-200h340v-115h-460z" />
    <glyph glyph-name="lslash" unicode="&#x142;" horiz-adv-x="277" 
d="M80 0v224l-58 -44v113l58 44v330l117 55v-296l58 45v-113l-58 -45v-313h-117z" />
    <glyph glyph-name="Nacute" unicode="&#x143;" horiz-adv-x="714" 
d="M266 766l142 156h152l-178 -156h-116zM629 0h-109l-290 442q-14 21 -29 52q3 -24 3 -52v-442h-119v700h116l283 -435q10 -15 29 -53q-3 27 -3 53v435h119v-700z" />
    <glyph glyph-name="nacute" unicode="&#x144;" horiz-adv-x="578" 
d="M166 576l142 156h152l-178 -156h-116zM391 0v293q0 119 -95 119q-104 0 -104 -117v-295h-117v511h117v-48q50 60 135 60q80 0 130.5 -50t50.5 -159v-314h-117z" />
    <glyph glyph-name="Ncommaaccent" unicode="&#x145;" horiz-adv-x="714" 
d="M629 0h-109l-290 442q-14 21 -29 52q3 -24 3 -52v-442h-119v700h116l283 -435q10 -15 29 -53q-3 27 -3 53v435h119v-700zM302 -247q37 33 50 72q-27 0 -46 18t-19 46q0 31 20 51t49 20q32 0 52 -20.5t20 -56.5q0 -86 -86 -156z" />
    <glyph glyph-name="ncommaaccent" unicode="&#x146;" horiz-adv-x="578" 
d="M391 0v293q0 119 -95 119q-104 0 -104 -117v-295h-117v511h117v-48q50 60 135 60q80 0 130.5 -50t50.5 -159v-314h-117zM235 -247q37 33 50 72q-27 0 -46 18t-19 46q0 31 20 51t49 20q32 0 52 -20.5t20 -56.5q0 -86 -86 -156z" />
    <glyph glyph-name="Ncaron" unicode="&#x147;" horiz-adv-x="714" 
d="M424 765h-115l-141 156h110l89 -74l89 74h110zM629 0h-109l-290 442q-14 21 -29 52q3 -24 3 -52v-442h-119v700h116l283 -435q10 -15 29 -53q-3 27 -3 53v435h119v-700z" />
    <glyph glyph-name="ncaron" unicode="&#x148;" horiz-adv-x="578" 
d="M353 576h-115l-141 156h110l89 -74l89 74h110zM391 0v293q0 119 -95 119q-104 0 -104 -117v-295h-117v511h117v-48q50 60 135 60q80 0 130.5 -50t50.5 -159v-314h-117z" />
    <glyph glyph-name="napostrophe" unicode="&#x149;" horiz-adv-x="773" 
d="M38 461q18 16 38 44.5t25 53.5q-26 6 -44 25.5t-18 48.5q0 35 23.5 57t55.5 22q35 0 58.5 -24.5t23.5 -68.5q0 -56 -33 -108.5t-82 -82.5zM586 0v293q0 119 -96 119q-103 0 -103 -117v-295h-117v511h117v-48q48 60 134 60q81 0 131.5 -49.5t50.5 -159.5v-314h-117z" />
    <glyph glyph-name="Eng" unicode="&#x14a;" horiz-adv-x="714" 
d="M423 -244l-59 91q81 17 112 42.5t31 75.5v55l-278 423q-19 31 -28 51q3 -21 3 -52v-442h-119v700h116l283 -435q10 -15 29 -53q-3 48 -3 53v435h119v-702q0 -109 -51 -164q-55 -58 -155 -78z" />
    <glyph glyph-name="eng" unicode="&#x14b;" horiz-adv-x="578" 
d="M308 -244l-58 90q80 17 110.5 42t30.5 74v331q0 119 -95 119q-104 0 -104 -117v-295h-117v511h117v-48q50 60 135 60q80 0 130.5 -50t50.5 -159v-318q0 -111 -49 -162q-54 -57 -151 -78z" />
    <glyph glyph-name="Omacron" unicode="&#x14c;" horiz-adv-x="734" 
d="M202 781v96h330v-96h-330zM367 -12q-65 0 -118 21t-87.5 56.5t-58 82.5t-33.5 97.5t-10 104.5t10 104.5t33.5 97.5t58 82.5t87.5 56.5t118 21q81 0 142.5 -31.5t96 -85t51.5 -115.5t17 -130t-17 -130t-51.5 -115.5t-96 -85t-142.5 -31.5zM367 103q48 0 85 23t57.5 60.5
t30.5 79t10 84.5q0 46 -10 87.5t-30.5 78.5t-57 59t-85.5 22q-64 0 -107 -40.5t-59.5 -93.5t-16.5 -113q0 -45 10 -87t30.5 -79t57 -59t85.5 -22z" />
    <glyph glyph-name="omacron" unicode="&#x14d;" 
d="M120 592v96h330v-96h-330zM284 -12q-108 0 -171 71t-63 196t63 196.5t171 71.5t171.5 -71.5t63.5 -196.5t-63 -196t-172 -71zM284 100q55 0 86.5 41t31.5 114t-31.5 115t-86.5 42q-53 0 -85 -42.5t-32 -114.5t31.5 -113.5t85.5 -41.5z" />
    <glyph glyph-name="Obreve" unicode="&#x14e;" horiz-adv-x="734" 
d="M367 763q-92 0 -140 48t-48 120h94q0 -33 24.5 -56t69.5 -23q44 0 69 23t25 56h94q0 -72 -48 -120t-140 -48zM367 -12q-65 0 -118 21t-87.5 56.5t-58 82.5t-33.5 97.5t-10 104.5t10 104.5t33.5 97.5t58 82.5t87.5 56.5t118 21q81 0 142.5 -31.5t96 -85t51.5 -115.5
t17 -130t-17 -130t-51.5 -115.5t-96 -85t-142.5 -31.5zM367 103q48 0 85 23t57.5 60.5t30.5 79t10 84.5q0 46 -10 87.5t-30.5 78.5t-57 59t-85.5 22q-64 0 -107 -40.5t-59.5 -93.5t-16.5 -113q0 -45 10 -87t30.5 -79t57 -59t85.5 -22z" />
    <glyph glyph-name="obreve" unicode="&#x14f;" 
d="M285 574q-92 0 -140 48t-48 120h94q0 -33 24.5 -56t69.5 -23q44 0 69 23t25 56h94q0 -72 -48 -120t-140 -48zM284 -12q-108 0 -171 71t-63 196t63 196.5t171 71.5t171.5 -71.5t63.5 -196.5t-63 -196t-172 -71zM284 100q55 0 86.5 41t31.5 114t-31.5 115t-86.5 42
q-53 0 -85 -42.5t-32 -114.5t31.5 -113.5t85.5 -41.5z" />
    <glyph glyph-name="Ohungarumlaut" unicode="&#x150;" horiz-adv-x="734" 
d="M310 765h-116l142 156h152zM525 765h-116l142 156h152zM367 -12q-65 0 -118 21t-87.5 56.5t-58 82.5t-33.5 97.5t-10 104.5t10 104.5t33.5 97.5t58 82.5t87.5 56.5t118 21q81 0 142.5 -31.5t96 -85t51.5 -115.5t17 -130t-17 -130t-51.5 -115.5t-96 -85t-142.5 -31.5z
M367 103q48 0 85 23t57.5 60.5t30.5 79t10 84.5q0 46 -10 87.5t-30.5 78.5t-57 59t-85.5 22q-64 0 -107 -40.5t-59.5 -93.5t-16.5 -113q0 -45 10 -87t30.5 -79t57 -59t85.5 -22z" />
    <glyph glyph-name="ohungarumlaut" unicode="&#x151;" 
d="M227 576h-116l142 156h152zM442 576h-116l142 156h152zM284 -12q-108 0 -171 71t-63 196t63 196.5t171 71.5t171.5 -71.5t63.5 -196.5t-63 -196t-172 -71zM284 100q55 0 86.5 41t31.5 114t-31.5 115t-86.5 42q-53 0 -85 -42.5t-32 -114.5t31.5 -113.5t85.5 -41.5z" />
    <glyph glyph-name="OE" unicode="&#x152;" horiz-adv-x="936" 
d="M473 0v5q-51 -17 -106 -17q-65 0 -118 21t-87.5 56.5t-58 82.5t-33.5 97.5t-10 104.5q0 67 16.5 128t50.5 115t96 86.5t144 32.5q53 0 106 -17v5h412v-113h-293v-169h164v-113h-164v-192h315v-113h-434zM367 103q62 0 106 39v418q-42 37 -106 37q-49 0 -86 -23t-57.5 -61
t-30 -79t-9.5 -84q0 -46 10 -88t30.5 -78.5t57 -58.5t85.5 -22z" />
    <glyph glyph-name="oe" unicode="&#x153;" horiz-adv-x="905" 
d="M284 -12q-108 0 -171 71t-63 196t63 196.5t171 71.5q113 0 175 -77q62 77 178 77q98 0 160.5 -61t62.5 -179q0 -42 -5 -72h-338q3 -54 37.5 -87t82.5 -33q68 0 108 53l74 -76q-67 -80 -182 -80q-117 0 -178 76q-64 -76 -175 -76zM518 308h226q-4 55 -34 83.5t-73 28.5
q-50 0 -82.5 -27.5t-36.5 -84.5zM284 100q55 0 86.5 41t31.5 114t-31.5 115t-86.5 42q-53 0 -85 -42.5t-32 -114.5t31.5 -113.5t85.5 -41.5z" />
    <glyph glyph-name="Racute" unicode="&#x154;" horiz-adv-x="685" 
d="M204 765l142 156h152l-178 -156h-116zM85 0v700h310q121 0 175.5 -60t54.5 -153q0 -65 -37 -122t-107 -78l140 -287h-135l-135 274h-146v-274h-120zM205 388h192q54 0 79 28t25 71q0 42 -24 70.5t-80 28.5h-192v-198z" />
    <glyph glyph-name="racute" unicode="&#x155;" horiz-adv-x="408" 
d="M116 576l142 156h152l-178 -156h-116zM75 0v511h117v-53q31 65 105 65q54 0 95 -35l-17 -107q-38 27 -87 27q-40 0 -68 -28t-28 -94v-286h-117z" />
    <glyph glyph-name="Rcommaaccent" unicode="&#x156;" horiz-adv-x="685" 
d="M85 0v700h310q121 0 175.5 -60t54.5 -153q0 -65 -37 -122t-107 -78l140 -287h-135l-135 274h-146v-274h-120zM205 388h192q54 0 79 28t25 71q0 42 -24 70.5t-80 28.5h-192v-198zM288 -247q37 33 50 72q-27 0 -46 18t-19 46q0 31 20 51t49 20q32 0 52 -20.5t20 -56.5
q0 -86 -86 -156z" />
    <glyph glyph-name="rcommaaccent" unicode="&#x157;" horiz-adv-x="408" 
d="M75 0v511h117v-53q31 65 105 65q54 0 95 -35l-17 -107q-38 27 -87 27q-40 0 -68 -28t-28 -94v-286h-117zM78 -267q37 33 50 72q-27 0 -46 18t-19 46q0 31 20 51t49 20q32 0 52 -20.5t20 -56.5q0 -86 -86 -156z" />
    <glyph glyph-name="Rcaron" unicode="&#x158;" horiz-adv-x="685" 
d="M391 765h-115l-141 156h110l89 -74l89 74h110zM85 0v700h310q121 0 175.5 -60t54.5 -153q0 -65 -37 -122t-107 -78l140 -287h-135l-135 274h-146v-274h-120zM205 388h192q54 0 79 28t25 71q0 42 -24 70.5t-80 28.5h-192v-198z" />
    <glyph glyph-name="rcaron" unicode="&#x159;" horiz-adv-x="408" 
d="M303 576h-115l-141 156h110l89 -74l89 74h110zM75 0v511h117v-53q31 65 105 65q54 0 95 -35l-17 -107q-38 27 -87 27q-40 0 -68 -28t-28 -94v-286h-117z" />
    <glyph glyph-name="Sacute" unicode="&#x15a;" horiz-adv-x="610" 
d="M195 765l142 156h152l-178 -156h-116zM309 -12q-96 0 -165.5 48.5t-98.5 132.5l111 41q22 -49 63 -78.5t94 -29.5q55 0 87.5 25t32.5 72q0 19 -9 35.5t-20.5 27.5t-34.5 22t-39 17.5t-47 16.5l-61.5 22t-55 26.5t-51 37.5t-31 50.5t-13.5 69.5q0 80 62 134t168 54
q88 0 146 -41.5t78 -108.5l-108 -36q-32 72 -124 72q-47 0 -73.5 -19.5t-26.5 -55.5q0 -24 20.5 -43t44 -28.5t69.5 -24.5l45.5 -16.5t43.5 -18.5t44 -23.5t36.5 -28.5t31.5 -37.5t19 -46t8 -57.5q0 -98 -69.5 -154.5t-176.5 -56.5z" />
    <glyph glyph-name="sacute" unicode="&#x15b;" horiz-adv-x="485" 
d="M117 576l142 156h152l-178 -156h-116zM239 -12q-62 0 -116.5 24t-82.5 64l80 68q54 -54 119 -54q83 0 83 50q0 17 -14.5 31t-31 21.5t-53.5 22.5q-88 29 -128.5 66.5t-40.5 99.5q0 67 51.5 104.5t130.5 37.5q116 0 183 -79l-81 -66q-45 43 -102 43q-69 0 -69 -42
q0 -21 25.5 -36t74.5 -31q83 -28 125.5 -66t42.5 -106q0 -73 -53 -112.5t-143 -39.5z" />
    <glyph glyph-name="Scircumflex" unicode="&#x15c;" horiz-adv-x="610" 
d="M391 765l-89 74l-89 -74h-110l142 156h115l141 -156h-110zM309 -12q-96 0 -165.5 48.5t-98.5 132.5l111 41q22 -49 63 -78.5t94 -29.5q55 0 87.5 25t32.5 72q0 19 -9 35.5t-20.5 27.5t-34.5 22t-39 17.5t-47 16.5l-61.5 22t-55 26.5t-51 37.5t-31 50.5t-13.5 69.5
q0 80 62 134t168 54q88 0 146 -41.5t78 -108.5l-108 -36q-32 72 -124 72q-47 0 -73.5 -19.5t-26.5 -55.5q0 -24 20.5 -43t44 -28.5t69.5 -24.5l45.5 -16.5t43.5 -18.5t44 -23.5t36.5 -28.5t31.5 -37.5t19 -46t8 -57.5q0 -98 -69.5 -154.5t-176.5 -56.5z" />
    <glyph glyph-name="scircumflex" unicode="&#x15d;" horiz-adv-x="485" 
d="M325 576l-89 74l-89 -74h-110l142 156h115l141 -156h-110zM239 -12q-62 0 -116.5 24t-82.5 64l80 68q54 -54 119 -54q83 0 83 50q0 17 -14.5 31t-31 21.5t-53.5 22.5q-88 29 -128.5 66.5t-40.5 99.5q0 67 51.5 104.5t130.5 37.5q116 0 183 -79l-81 -66q-45 43 -102 43
q-69 0 -69 -42q0 -21 25.5 -36t74.5 -31q83 -28 125.5 -66t42.5 -106q0 -73 -53 -112.5t-143 -39.5z" />
    <glyph glyph-name="Scedilla" unicode="&#x15e;" horiz-adv-x="610" 
d="M304 -242q-71 0 -105 43l53 39q14 -17 40 -17q23 0 36 11.5t13 30.5q0 18 -14 29.5t-37 11.5q-24 0 -42 -12l-23 29l54 66q-84 7 -146 55t-88 125l111 41q22 -49 63 -78.5t94 -29.5q55 0 87.5 25t32.5 72q0 19 -9 35.5t-20.5 27.5t-34.5 22t-39 17.5t-47 16.5l-61.5 22
t-55 26.5t-51 37.5t-31 50.5t-13.5 69.5q0 80 62 134t168 54q88 0 146 -41.5t78 -108.5l-108 -36q-32 72 -124 72q-47 0 -73.5 -19.5t-26.5 -55.5q0 -24 20.5 -43t44 -28.5t69.5 -24.5l45.5 -16.5t43.5 -18.5t44 -23.5t36.5 -28.5t31.5 -37.5t19 -46t8 -57.5
q0 -89 -57.5 -144t-151.5 -65l-23 -38q56 0 84 -24.5t28 -63.5q0 -47 -35 -76.5t-96 -29.5z" />
    <glyph glyph-name="scedilla" unicode="&#x15f;" horiz-adv-x="485" 
d="M226 -242q-71 0 -105 43l53 39q14 -17 40 -17q23 0 36 11.5t13 30.5q0 18 -14 29.5t-37 11.5q-24 0 -42 -12l-23 29l55 67q-114 17 -162 86l80 68q54 -54 119 -54q83 0 83 50q0 7 -1.5 12.5t-6 11t-8.5 9.5t-12 9t-13.5 8t-17 8t-18 7.5l-20 8l-20.5 8.5
q-76 28 -113.5 62.5t-37.5 96.5q0 67 51.5 104.5t130.5 37.5q116 0 183 -79l-81 -66q-45 43 -102 43q-69 0 -69 -42q0 -12 8 -21.5t28 -19.5t32.5 -15t44.5 -16q74 -27 114.5 -63t40.5 -104q0 -67 -44.5 -105.5t-122.5 -45.5l-23 -37q56 0 84 -24.5t28 -63.5
q0 -47 -35 -76.5t-96 -29.5z" />
    <glyph glyph-name="Scaron" unicode="&#x160;" horiz-adv-x="610" 
d="M359 765h-115l-141 156h110l89 -74l89 74h110zM309 -12q-96 0 -165.5 48.5t-98.5 132.5l111 41q22 -49 63 -78.5t94 -29.5q55 0 87.5 25t32.5 72q0 19 -9 35.5t-20.5 27.5t-34.5 22t-39 17.5t-47 16.5l-61.5 22t-55 26.5t-51 37.5t-31 50.5t-13.5 69.5q0 80 62 134
t168 54q88 0 146 -41.5t78 -108.5l-108 -36q-32 72 -124 72q-47 0 -73.5 -19.5t-26.5 -55.5q0 -24 20.5 -43t44 -28.5t69.5 -24.5l45.5 -16.5t43.5 -18.5t44 -23.5t36.5 -28.5t31.5 -37.5t19 -46t8 -57.5q0 -98 -69.5 -154.5t-176.5 -56.5z" />
    <glyph glyph-name="scaron" unicode="&#x161;" horiz-adv-x="485" 
d="M293 576h-115l-141 156h110l89 -74l89 74h110zM239 -12q-62 0 -116.5 24t-82.5 64l80 68q54 -54 119 -54q83 0 83 50q0 17 -14.5 31t-31 21.5t-53.5 22.5q-88 29 -128.5 66.5t-40.5 99.5q0 67 51.5 104.5t130.5 37.5q116 0 183 -79l-81 -66q-45 43 -102 43q-69 0 -69 -42
q0 -21 25.5 -36t74.5 -31q83 -28 125.5 -66t42.5 -106q0 -73 -53 -112.5t-143 -39.5z" />
    <glyph glyph-name="uni0162" unicode="&#x162;" horiz-adv-x="598" 
d="M284 -242q-71 0 -105 43l53 39q14 -17 40 -17q23 0 36 11.5t13 30.5q0 18 -14 29.5t-37 11.5q-24 0 -42 -12l-23 29l62 77h-28v585h-199v115h518v-115h-199v-585h-26l-30 -48q56 0 84 -24.5t28 -63.5q0 -47 -35 -76.5t-96 -29.5z" />
    <glyph glyph-name="uni0163" unicode="&#x163;" horiz-adv-x="386" 
d="M204 -242q-71 0 -105 43l53 39q14 -17 40 -17q23 0 36 11.5t13 30.5q0 18 -14 29.5t-37 11.5q-24 0 -42 -12l-23 29l57 71q-76 20 -76 125v290h-76v102h76v155l117 56v-211h118v-102h-118v-267q0 -49 43 -49q39 0 80 23l-14 -105q-35 -17 -72 -21l-14 -2l-23 -36
q56 0 84 -24.5t28 -63.5q0 -47 -35 -76.5t-96 -29.5z" />
    <glyph glyph-name="Tcaron" unicode="&#x164;" horiz-adv-x="598" 
d="M356 765h-115l-141 156h110l89 -74l89 74h110zM359 585v-585h-120v585h-199v115h518v-115h-199z" />
    <glyph glyph-name="tcaron" unicode="&#x165;" horiz-adv-x="460" 
d="M435 840v-8q0 -143 -104 -244l-37 28q30 62 30 224h111zM225 -12q-119 0 -119 131v290h-76v102h76v155l117 56v-211h118v-102h-118v-267q0 -49 43 -49q39 0 80 23l-14 -105q-44 -23 -107 -23z" />
    <glyph glyph-name="Tbar" unicode="&#x166;" horiz-adv-x="593" 
d="M553 585h-197v-210h117v-112h-117v-263h-119v263h-118v112h118v210h-197v115h513v-115z" />
    <glyph glyph-name="tbar" unicode="&#x167;" horiz-adv-x="396" 
d="M230 -12q-119 0 -119 131v86h-76v102h76v102h-76v102h76v155l117 56v-211h118v-102h-118v-102h118v-102h-118v-63q0 -49 43 -49q37 0 80 23l-14 -105q-44 -23 -107 -23z" />
    <glyph glyph-name="Utilde" unicode="&#x168;" horiz-adv-x="706" 
d="M432 774q-38 0 -90.5 23.5t-74.5 23.5q-46 0 -47 -43h-56q0 134 110 134q38 0 90 -23.5t75 -23.5q44 0 47 43h56q0 -134 -110 -134zM353 -12q-57 0 -104 14.5t-86 46t-61 87t-22 131.5v433h120v-433q0 -91 39.5 -127.5t113.5 -36.5t113.5 37t39.5 127v433h120v-433
q0 -75 -21.5 -130.5t-60 -87t-86 -46.5t-105.5 -15z" />
    <glyph glyph-name="utilde" unicode="&#x169;" horiz-adv-x="578" 
d="M363 585q-38 0 -90.5 23.5t-74.5 23.5q-46 0 -47 -43h-56q0 134 110 134q38 0 90 -23.5t75 -23.5q44 0 47 43h56q0 -134 -110 -134zM386 0v49q-48 -61 -134 -61q-80 0 -131 50.5t-51 159.5v313h117v-292q0 -119 96 -119q103 0 103 117v294h117v-511h-117z" />
    <glyph glyph-name="Umacron" unicode="&#x16a;" horiz-adv-x="706" 
d="M188 781v96h330v-96h-330zM353 -12q-57 0 -104 14.5t-86 46t-61 87t-22 131.5v433h120v-433q0 -91 39.5 -127.5t113.5 -36.5t113.5 37t39.5 127v433h120v-433q0 -75 -21.5 -130.5t-60 -87t-86 -46.5t-105.5 -15z" />
    <glyph glyph-name="umacron" unicode="&#x16b;" horiz-adv-x="578" 
d="M119 592v96h330v-96h-330zM386 0v49q-48 -61 -134 -61q-80 0 -131 50.5t-51 159.5v313h117v-292q0 -119 96 -119q103 0 103 117v294h117v-511h-117z" />
    <glyph glyph-name="Ubreve" unicode="&#x16c;" horiz-adv-x="706" 
d="M353 763q-92 0 -140 48t-48 120h94q0 -33 24.5 -56t69.5 -23q44 0 69 23t25 56h94q0 -72 -48 -120t-140 -48zM353 -12q-57 0 -104 14.5t-86 46t-61 87t-22 131.5v433h120v-433q0 -91 39.5 -127.5t113.5 -36.5t113.5 37t39.5 127v433h120v-433q0 -75 -21.5 -130.5t-60 -87
t-86 -46.5t-105.5 -15z" />
    <glyph glyph-name="ubreve" unicode="&#x16d;" horiz-adv-x="578" 
d="M284 574q-92 0 -140 48t-48 120h94q0 -33 24.5 -56t69.5 -23q44 0 69 23t25 56h94q0 -72 -48 -120t-140 -48zM386 0v49q-48 -61 -134 -61q-80 0 -131 50.5t-51 159.5v313h117v-292q0 -119 96 -119q103 0 103 117v294h117v-511h-117z" />
    <glyph glyph-name="Uring" unicode="&#x16e;" horiz-adv-x="706" 
d="M353 718q-53 0 -90 36.5t-37 88.5t37 88.5t90 36.5q52 0 89 -36.5t37 -88.5t-37 -88.5t-89 -36.5zM353 800q17 0 29.5 12.5t12.5 30.5t-12.5 31t-29.5 13q-18 0 -30 -12.5t-12 -31.5t12 -31t30 -12zM353 -12q-57 0 -104 14.5t-86 46t-61 87t-22 131.5v433h120v-433
q0 -91 39.5 -127.5t113.5 -36.5t113.5 37t39.5 127v433h120v-433q0 -75 -21.5 -130.5t-60 -87t-86 -46.5t-105.5 -15z" />
    <glyph glyph-name="uring" unicode="&#x16f;" horiz-adv-x="578" 
d="M284 529q-53 0 -90 36.5t-37 88.5t37 88.5t90 36.5q52 0 89 -36.5t37 -88.5t-37 -88.5t-89 -36.5zM284 611q17 0 29.5 12.5t12.5 30.5t-12.5 31t-29.5 13q-18 0 -30 -12.5t-12 -31.5t12 -31t30 -12zM386 0v49q-48 -61 -134 -61q-80 0 -131 50.5t-51 159.5v313h117v-292
q0 -119 96 -119q103 0 103 117v294h117v-511h-117z" />
    <glyph glyph-name="Uhungarumlaut" unicode="&#x170;" horiz-adv-x="706" 
d="M269 765h-116l142 156h152zM484 765h-116l142 156h152zM353 -12q-57 0 -104 14.5t-86 46t-61 87t-22 131.5v433h120v-433q0 -91 39.5 -127.5t113.5 -36.5t113.5 37t39.5 127v433h120v-433q0 -75 -21.5 -130.5t-60 -87t-86 -46.5t-105.5 -15z" />
    <glyph glyph-name="uhungarumlaut" unicode="&#x171;" horiz-adv-x="578" 
d="M200 576h-116l142 156h152zM415 576h-116l142 156h152zM386 0v49q-48 -61 -134 -61q-80 0 -131 50.5t-51 159.5v313h117v-292q0 -119 96 -119q103 0 103 117v294h117v-511h-117z" />
    <glyph glyph-name="Uogonek" unicode="&#x172;" horiz-adv-x="706" 
d="M376 -242q-55 0 -88.5 29t-33.5 77q0 77 86 124h-7q-112 5 -182.5 72t-70.5 207v433h120v-433q0 -91 39.5 -127.5t113.5 -36.5t113.5 37t39.5 127v433h120v-433q0 -111 -42.5 -172.5t-119.5 -91.5q-57 -23 -85.5 -58t-28.5 -71q0 -24 12.5 -36t31.5 -12q26 0 40 19
l55 -40q-41 -47 -113 -47z" />
    <glyph glyph-name="uogonek" unicode="&#x173;" horiz-adv-x="578" 
d="M399 -242q-56 0 -89 28.5t-33 77.5q0 89 109 136v49q-48 -61 -134 -61q-80 0 -131 50.5t-51 159.5v313h117v-292q0 -119 96 -119q103 0 103 117v294h117v-511q-66 -19 -98 -54t-32 -72q0 -24 12 -36t32 -12q26 0 40 19l55 -40q-41 -47 -113 -47z" />
    <glyph glyph-name="Wcircumflex" unicode="&#x174;" horiz-adv-x="852" 
d="M515 765l-89 74l-89 -74h-110l142 156h115l141 -156h-110zM190 0l-150 700h123l83 -412q11 -58 12 -67q3 22 14 67l103 412h102l105 -411q10 -36 14 -67q4 29 12 66l83 412h121l-151 -700h-110l-113 433q-11 39 -14 65q-3 -24 -13 -64l-111 -434h-110z" />
    <glyph glyph-name="wcircumflex" unicode="&#x175;" horiz-adv-x="739" 
d="M459 576l-89 74l-89 -74h-110l142 156h115l141 -156h-110zM175 0l-140 511h115l66 -283q5 -23 12 -60q5 27 13 60l75 283h107l74 -283q8 -33 13 -60q7 37 12 60l67 283h115l-140 -511h-104l-75 276q-15 59 -16 70q-4 -20 -16 -70l-75 -276h-103z" />
    <glyph glyph-name="Ycircumflex" unicode="&#x176;" horiz-adv-x="679" 
d="M429 765l-89 74l-89 -74h-110l142 156h115l141 -156h-110zM280 0v274l-252 426h136l176 -303l176 303h136l-253 -426v-274h-119z" />
    <glyph glyph-name="ycircumflex" unicode="&#x177;" horiz-adv-x="554" 
d="M366 576l-89 74l-89 -74h-110l142 156h115l141 -156h-110zM138 -194l79 202l-192 503h118l119 -314q9 -22 15 -46q5 22 14 46l120 314h118l-270 -705h-121z" />
    <glyph glyph-name="Ydieresis" unicode="&#x178;" horiz-adv-x="679" 
d="M247 775q-29 0 -48.5 19.5t-19.5 48.5t19.5 48.5t48.5 19.5t48.5 -19.5t19.5 -48.5t-19.5 -48.5t-48.5 -19.5zM432 775q-28 0 -48 19.5t-20 48.5t20 48.5t48 19.5t48 -19.5t20 -48.5t-20 -48.5t-48 -19.5zM280 0v274l-252 426h136l176 -303l176 303h136l-253 -426v-274
h-119z" />
    <glyph glyph-name="Zacute" unicode="&#x179;" horiz-adv-x="654" 
d="M218 765l142 156h152l-178 -156h-116zM50 0v94l385 492h-362v114h521v-93l-387 -493h387v-114h-544z" />
    <glyph glyph-name="zacute" unicode="&#x17a;" horiz-adv-x="528" 
d="M138 576l142 156h152l-178 -156h-116zM55 0v94l268 313h-248v104h393v-90l-267 -317h266v-104h-412z" />
    <glyph glyph-name="Zdotaccent" unicode="&#x17b;" horiz-adv-x="654" 
d="M333 775q-29 0 -48.5 19.5t-19.5 48.5t19.5 48.5t48.5 19.5t48.5 -19.5t19.5 -48.5t-19.5 -48.5t-48.5 -19.5zM50 0v94l385 492h-362v114h521v-93l-387 -493h387v-114h-544z" />
    <glyph glyph-name="zdotaccent" unicode="&#x17c;" horiz-adv-x="528" 
d="M268 586q-29 0 -48.5 19.5t-19.5 48.5t19.5 48.5t48.5 19.5q28 0 48 -20t20 -48t-20 -48t-48 -20zM55 0v94l268 313h-248v104h393v-90l-267 -317h266v-104h-412z" />
    <glyph glyph-name="Zcaron" unicode="&#x17d;" horiz-adv-x="654" 
d="M405 765h-115l-141 156h110l89 -74l89 74h110zM50 0v94l385 492h-362v114h521v-93l-387 -493h387v-114h-544z" />
    <glyph glyph-name="zcaron" unicode="&#x17e;" horiz-adv-x="528" 
d="M325 576h-115l-141 156h110l89 -74l89 74h110zM55 0v94l268 313h-248v104h393v-90l-267 -317h266v-104h-412z" />
    <glyph glyph-name="longs" unicode="&#x17f;" horiz-adv-x="315" 
d="M80 0v591q0 121 122 121q60 0 108 -24v-96q-42 17 -73 17q-40 0 -40 -40v-569h-117z" />
    <glyph glyph-name="florin" unicode="&#x192;" horiz-adv-x="376" 
d="M43 -244l-60 93q79 17 111 44t32 77v438h-73v103h73v80q0 121 122 121q60 0 108 -24v-95q-43 16 -73 16q-40 0 -40 -40v-58h113v-103h-113v-421q0 -98 -49 -153t-151 -78z" />
    <glyph glyph-name="uni01CD" unicode="&#x1cd;" horiz-adv-x="714" 
d="M414 765h-115l-141 156h110l89 -74l89 74h110zM551 0l-55 153h-277l-55 -153h-127l261 700h119l260 -700h-126zM458 261l-77 210q-15 38 -23 71q-8 -29 -23 -71l-78 -210h201z" />
    <glyph glyph-name="uni01CE" unicode="&#x1ce;" horiz-adv-x="545" 
d="M336 576h-115l-141 156h110l89 -74l89 74h110zM366 0v41q-51 -53 -136 -53q-82 0 -133.5 44.5t-51.5 125.5q0 83 58.5 126t141.5 43q73 0 121 -27v27q0 49 -24.5 71t-75.5 22q-83 0 -152 -48l-36 95q83 56 200 56q40 0 70.5 -6.5t63 -25.5t50.5 -60t18 -102v-329h-114z
M252 91q67 0 114 49v66q-44 21 -102 21q-47 0 -76 -17t-29 -52q0 -31 24 -49t69 -18z" />
    <glyph glyph-name="uni01CF" unicode="&#x1cf;" horiz-adv-x="300" 
d="M207 765h-115l-141 156h110l89 -74l89 74h110zM90 0v700h120v-700h-120z" />
    <glyph glyph-name="uni01D0" unicode="&#x1d0;" horiz-adv-x="269" 
d="M192 576h-115l-141 156h110l89 -74l89 74h110zM76 0v511h117v-511h-117z" />
    <glyph glyph-name="uni01D1" unicode="&#x1d1;" horiz-adv-x="734" 
d="M424 765h-115l-141 156h110l89 -74l89 74h110zM367 -12q-65 0 -118 21t-87.5 56.5t-58 82.5t-33.5 97.5t-10 104.5t10 104.5t33.5 97.5t58 82.5t87.5 56.5t118 21q81 0 142.5 -31.5t96 -85t51.5 -115.5t17 -130t-17 -130t-51.5 -115.5t-96 -85t-142.5 -31.5zM367 103
q48 0 85 23t57.5 60.5t30.5 79t10 84.5q0 46 -10 87.5t-30.5 78.5t-57 59t-85.5 22q-64 0 -107 -40.5t-59.5 -93.5t-16.5 -113q0 -45 10 -87t30.5 -79t57 -59t85.5 -22z" />
    <glyph glyph-name="uni01D2" unicode="&#x1d2;" 
d="M342 576h-115l-141 156h110l89 -74l89 74h110zM284 -12q-108 0 -171 71t-63 196t63 196.5t171 71.5t171.5 -71.5t63.5 -196.5t-63 -196t-172 -71zM284 100q55 0 86.5 41t31.5 114t-31.5 115t-86.5 42q-53 0 -85 -42.5t-32 -114.5t31.5 -113.5t85.5 -41.5z" />
    <glyph glyph-name="uni01D3" unicode="&#x1d3;" horiz-adv-x="706" 
d="M410 765h-115l-141 156h110l89 -74l89 74h110zM353 -12q-57 0 -104 14.5t-86 46t-61 87t-22 131.5v433h120v-433q0 -91 39.5 -127.5t113.5 -36.5t113.5 37t39.5 127v433h120v-433q0 -75 -21.5 -130.5t-60 -87t-86 -46.5t-105.5 -15z" />
    <glyph glyph-name="uni01D4" unicode="&#x1d4;" horiz-adv-x="578" 
d="M341 576h-115l-141 156h110l89 -74l89 74h110zM386 0v49q-48 -61 -134 -61q-80 0 -131 50.5t-51 159.5v313h117v-292q0 -119 96 -119q103 0 103 117v294h117v-511h-117z" />
    <glyph glyph-name="AEacute" unicode="&#x1fc;" horiz-adv-x="866" 
d="M380 765l142 156h152l-178 -156h-116zM-19 0l407 700h414v-113h-287v-169h158v-113h-158v-192h308v-113h-428v153h-198l-87 -153h-129zM260 261h135v246q-9 -21 -32 -64z" />
    <glyph glyph-name="aeacute" unicode="&#x1fd;" horiz-adv-x="857" 
d="M324 576l142 156h152l-178 -156h-116zM224 -12q-79 0 -129 44.5t-50 125.5q0 84 56.5 127t136.5 43q72 0 118 -27v26q0 49 -23.5 71t-73.5 22q-79 0 -145 -48l-36 95q84 56 195 56t155 -61q59 61 161 61q98 0 160.5 -61t62.5 -179q0 -42 -5 -72h-337q2 -54 36.5 -87
t82.5 -33q68 0 108 53l74 -76q-67 -80 -182 -80q-118 0 -180 82q-78 -82 -185 -82zM470 310h226q-4 54 -34 82t-73 28q-50 0 -82 -27t-37 -83zM248 91q64 0 108 49v66q-40 21 -97 21q-44 0 -72 -17t-28 -52q0 -31 23 -49t66 -18z" />
    <glyph glyph-name="Oslashacute" unicode="&#x1fe;" horiz-adv-x="729" 
d="M234 765l142 156h152l-178 -156h-116zM60 -12l73 107q-75 100 -75 255q0 68 17 130t51.5 115.5t96 85t142.5 31.5q91 0 159 -41l28 41h117l-73 -107q75 -100 75 -255q0 -68 -17 -130t-51.5 -115.5t-95.5 -85t-142 -31.5q-92 0 -160 42l-28 -42h-117zM210 208l246 363
q-39 26 -91 26q-49 0 -86 -23t-57.5 -60.5t-30 -79t-9.5 -84.5q0 -80 28 -142zM365 103q48 0 85 23t57 60.5t30 79t10 84.5q0 82 -28 142l-246 -362q38 -27 92 -27z" />
    <glyph glyph-name="oslashacute" unicode="&#x1ff;" 
d="M448 732l-178 -156h-116l142 156h152zM519 523l-55 -81q55 -72 55 -187q0 -125 -63 -196t-172 -71q-64 0 -111 25l-17 -25h-106l55 81q-55 71 -55 186q0 125 63 196.5t171 71.5q62 0 112 -25l17 25h106zM167 255q0 -44 12 -77l152 224q-20 10 -47 10q-53 0 -85 -42.5
t-32 -114.5zM402 255q0 45 -12 78l-152 -224q21 -9 46 -9q55 0 86.5 41t31.5 114z" />
    <glyph glyph-name="Scommaaccent" unicode="&#x218;" horiz-adv-x="610" 
d="M309 -12q-96 0 -165.5 48.5t-98.5 132.5l111 41q22 -49 63 -78.5t94 -29.5q55 0 87.5 25t32.5 72q0 19 -9 35.5t-20.5 27.5t-34.5 22t-39 17.5t-47 16.5l-61.5 22t-55 26.5t-51 37.5t-31 50.5t-13.5 69.5q0 80 62 134t168 54q88 0 146 -41.5t78 -108.5l-108 -36
q-32 72 -124 72q-47 0 -73.5 -19.5t-26.5 -55.5q0 -24 20.5 -43t44 -28.5t69.5 -24.5l45.5 -16.5t43.5 -18.5t44 -23.5t36.5 -28.5t31.5 -37.5t19 -46t8 -57.5q0 -98 -69.5 -154.5t-176.5 -56.5zM250 -247q37 33 50 72q-27 0 -46 18t-19 46q0 31 20 51t49 20q32 0 52 -20.5
t20 -56.5q0 -86 -86 -156z" />
    <glyph glyph-name="scommaaccent" unicode="&#x219;" horiz-adv-x="485" 
d="M239 -12q-62 0 -116.5 24t-82.5 64l80 68q54 -54 119 -54q83 0 83 50q0 17 -14.5 31t-31 21.5t-53.5 22.5q-88 29 -128.5 66.5t-40.5 99.5q0 67 51.5 104.5t130.5 37.5q116 0 183 -79l-81 -66q-45 43 -102 43q-69 0 -69 -42q0 -21 25.5 -36t74.5 -31q83 -28 125.5 -66
t42.5 -106q0 -73 -53 -112.5t-143 -39.5zM186 -247q37 33 50 72q-27 0 -46 18t-19 46q0 31 20 51t49 20q32 0 52 -20.5t20 -56.5q0 -86 -86 -156z" />
    <glyph glyph-name="uni021A" unicode="&#x21a;" horiz-adv-x="598" 
d="M359 585v-585h-120v585h-199v115h518v-115h-199zM244 -247q37 33 50 72q-27 0 -46 18t-19 46q0 31 20 51t49 20q32 0 52 -20.5t20 -56.5q0 -86 -86 -156z" />
    <glyph glyph-name="uni021B" unicode="&#x21b;" horiz-adv-x="386" 
d="M225 -12q-119 0 -119 131v290h-76v102h76v155l117 56v-211h118v-102h-118v-267q0 -49 43 -49q39 0 80 23l-14 -105q-44 -23 -107 -23zM164 -247q37 33 50 72q-27 0 -46 18t-19 46q0 31 20 51t49 20q32 0 52 -20.5t20 -56.5q0 -86 -86 -156z" />
    <glyph glyph-name="uni0237" unicode="&#x237;" horiz-adv-x="269" 
d="M-7 -214l-58 90q80 17 110.5 42t30.5 74v519h117v-485q0 -111 -49 -162q-54 -57 -151 -78z" />
    <glyph glyph-name="circumflex" unicode="&#x2c6;" horiz-adv-x="438" 
d="M308 576l-89 74l-89 -74h-110l142 156h115l141 -156h-110z" />
    <glyph glyph-name="caron" unicode="&#x2c7;" horiz-adv-x="438" 
d="M276 576h-115l-141 156h110l89 -74l89 74h110z" />
    <glyph glyph-name="uni02C9" unicode="&#x2c9;" horiz-adv-x="438" 
d="M54 592v96h330v-96h-330z" />
    <glyph glyph-name="breve" unicode="&#x2d8;" horiz-adv-x="438" 
d="M219 574q-92 0 -140 48t-48 120h94q0 -33 24.5 -56t69.5 -23q44 0 69 23t25 56h94q0 -72 -48 -120t-140 -48z" />
    <glyph glyph-name="dotaccent" unicode="&#x2d9;" horiz-adv-x="438" 
d="M219 586q-29 0 -48.5 19.5t-19.5 48.5t19.5 48.5t48.5 19.5t48.5 -20t19.5 -48t-19.5 -48t-48.5 -20z" />
    <glyph glyph-name="ring" unicode="&#x2da;" horiz-adv-x="438" 
d="M219 529q-53 0 -90 36.5t-37 88.5t37 88.5t90 36.5q52 0 89 -36.5t37 -88.5t-37 -88.5t-89 -36.5zM219 611q17 0 29.5 12.5t12.5 30.5t-12.5 31t-29.5 13q-18 0 -30 -12.5t-12 -31.5t12 -31t30 -12z" />
    <glyph glyph-name="ogonek" unicode="&#x2db;" horiz-adv-x="438" 
d="M224 -242q-56 0 -89.5 28.5t-33.5 77.5t36 87t101 59h83q-64 -26 -94 -62.5t-30 -73.5q0 -24 12.5 -36t31.5 -12q26 0 40 19l56 -40q-43 -47 -113 -47z" />
    <glyph glyph-name="tilde" unicode="&#x2dc;" horiz-adv-x="438" 
d="M298 585q-38 0 -90.5 23.5t-74.5 23.5q-46 0 -47 -43h-56q0 134 110 134q38 0 90 -23.5t75 -23.5q44 0 47 43h56q0 -134 -110 -134z" />
    <glyph glyph-name="hungarumlaut" unicode="&#x2dd;" horiz-adv-x="438" 
d="M135 576h-116l142 156h152zM350 576h-116l142 156h152z" />
    <glyph glyph-name="uni0312" unicode="&#x312;" horiz-adv-x="0" 
d="M-219 586q-32 0 -52 20.5t-20 56.5q0 86 86 156l40 -26q-37 -33 -50 -72q27 0 46 -18t19 -46q0 -31 -20.5 -51t-48.5 -20z" />
    <glyph glyph-name="uni0326" unicode="&#x326;" horiz-adv-x="0" 
d="M-274 -247q37 33 50 72q-27 0 -46 18t-19 46q0 31 20 51t49 20q32 0 52 -20.5t20 -56.5q0 -86 -86 -156z" />
    <glyph glyph-name="uni03A9" unicode="&#x3a9;" horiz-adv-x="749" 
d="M420 0v99q67 72 97 136.5t30 153.5q0 87 -41.5 147.5t-130.5 60.5q-47 0 -81.5 -18t-53.5 -48.5t-28 -66t-9 -76.5q0 -88 30 -152.5t97 -136.5v-99h-255v115h128q-124 103 -124 275q0 47 9.5 91t31.5 87t55.5 74.5t84.5 50.5t115 19q63 0 114.5 -19t84.5 -51t55.5 -74
t32 -86.5t9.5 -91.5q0 -170 -125 -275h128v-115h-254z" />
    <glyph glyph-name="uni03BC" unicode="&#x3bc;" horiz-adv-x="581" 
d="M389 0v48q-41 -60 -115 -60q-54 0 -84 33v-166l-117 -55v711h117v-292q0 -64 23.5 -91.5t71.5 -27.5q104 0 104 117v294h117v-511h-117z" />
    <glyph glyph-name="pi" unicode="&#x3c0;" horiz-adv-x="663" 
d="M512 -12q-119 0 -119 131v271h-128v-28q0 -152 -28 -245t-113 -140l-99 78q29 17 48 34t39.5 47t30.5 77t10 110v67h-90v121h562v-121h-115v-249q0 -49 43 -49q36 0 80 23l-15 -104q-44 -23 -106 -23z" />
    <glyph glyph-name="Wgrave" unicode="&#x1e80;" horiz-adv-x="852" 
d="M441 765l-178 156h152l142 -156h-116zM190 0l-150 700h123l83 -412q11 -58 12 -67q3 22 14 67l103 412h102l105 -411q10 -36 14 -67q4 29 12 66l83 412h121l-151 -700h-110l-113 433q-11 39 -14 65q-3 -24 -13 -64l-111 -434h-110z" />
    <glyph glyph-name="wgrave" unicode="&#x1e81;" horiz-adv-x="739" 
d="M385 576l-178 156h152l142 -156h-116zM175 0l-140 511h115l66 -283q5 -23 12 -60q5 27 13 60l75 283h107l74 -283q8 -33 13 -60q7 37 12 60l67 283h115l-140 -511h-104l-75 276q-15 59 -16 70q-4 -20 -16 -70l-75 -276h-103z" />
    <glyph glyph-name="Wacute" unicode="&#x1e82;" horiz-adv-x="852" 
d="M296 765l142 156h152l-178 -156h-116zM190 0l-150 700h123l83 -412q11 -58 12 -67q3 22 14 67l103 412h102l105 -411q10 -36 14 -67q4 29 12 66l83 412h121l-151 -700h-110l-113 433q-11 39 -14 65q-3 -24 -13 -64l-111 -434h-110z" />
    <glyph glyph-name="wacute" unicode="&#x1e83;" horiz-adv-x="739" 
d="M240 576l142 156h152l-178 -156h-116zM175 0l-140 511h115l66 -283q5 -23 12 -60q5 27 13 60l75 283h107l74 -283q8 -33 13 -60q7 37 12 60l67 283h115l-140 -511h-104l-75 276q-15 59 -16 70q-4 -20 -16 -70l-75 -276h-103z" />
    <glyph glyph-name="Wdieresis" unicode="&#x1e84;" horiz-adv-x="852" 
d="M333 775q-29 0 -48.5 19.5t-19.5 48.5t19.5 48.5t48.5 19.5t48.5 -19.5t19.5 -48.5t-19.5 -48.5t-48.5 -19.5zM518 775q-28 0 -48 19.5t-20 48.5t20 48.5t48 19.5t48 -19.5t20 -48.5t-20 -48.5t-48 -19.5zM190 0l-150 700h123l83 -412q11 -58 12 -67q3 22 14 67l103 412
h102l105 -411q10 -36 14 -67q4 29 12 66l83 412h121l-151 -700h-110l-113 433q-11 39 -14 65q-3 -24 -13 -64l-111 -434h-110z" />
    <glyph glyph-name="wdieresis" unicode="&#x1e85;" horiz-adv-x="739" 
d="M277 586q-29 0 -48.5 20t-19.5 48t19.5 48t48.5 20t48.5 -20t19.5 -48t-19.5 -48t-48.5 -20zM462 586q-28 0 -48 20t-20 48t20 48t48 20t48 -20t20 -48t-20 -48t-48 -20zM175 0l-140 511h115l66 -283q5 -23 12 -60q5 27 13 60l75 283h107l74 -283q8 -33 13 -60
q7 37 12 60l67 283h115l-140 -511h-104l-75 276q-15 59 -16 70q-4 -20 -16 -70l-75 -276h-103z" />
    <glyph glyph-name="Ygrave" unicode="&#x1ef2;" horiz-adv-x="679" 
d="M329 765l-178 156h152l142 -156h-116zM280 0v274l-252 426h136l176 -303l176 303h136l-253 -426v-274h-119z" />
    <glyph glyph-name="ygrave" unicode="&#x1ef3;" horiz-adv-x="554" 
d="M292 576l-178 156h152l142 -156h-116zM138 -194l79 202l-192 503h118l119 -314q9 -22 15 -46q5 22 14 46l120 314h118l-270 -705h-121z" />
    <glyph glyph-name="endash" unicode="&#x2013;" horiz-adv-x="495" 
d="M50 236v102h395v-102h-395z" />
    <glyph glyph-name="emdash" unicode="&#x2014;" horiz-adv-x="575" 
d="M-5 236v102h585v-102h-585z" />
    <glyph glyph-name="uni2015" unicode="&#x2015;" horiz-adv-x="575" 
d="M-5 236v102h585v-102h-585z" />
    <glyph glyph-name="quoteleft" unicode="&#x2018;" horiz-adv-x="235" 
d="M117 428q-35 0 -58.5 24.5t-23.5 68.5q0 57 33 108t82 83l47 -33q-17 -15 -37.5 -44t-25.5 -54q27 -6 44.5 -25.5t17.5 -48.5q0 -35 -23 -57t-56 -22z" />
    <glyph glyph-name="quoteright" unicode="&#x2019;" horiz-adv-x="235" 
d="M38 461q18 16 38 44.5t25 53.5q-26 6 -44 25.5t-18 48.5q0 35 23.5 57t55.5 22q35 0 58.5 -24.5t23.5 -68.5q0 -56 -33 -108.5t-82 -82.5z" />
    <glyph glyph-name="quotesinglbase" unicode="&#x201a;" horiz-adv-x="235" 
d="M38 -108q18 16 38 44.5t25 53.5q-26 6 -44 25.5t-18 48.5q0 35 23.5 57.5t55.5 22.5q35 0 58.5 -24.5t23.5 -69.5q0 -56 -33 -108.5t-82 -82.5z" />
    <glyph glyph-name="quotereversed" unicode="&#x201b;" horiz-adv-x="235" 
d="M150 428q-49 31 -82 83t-33 108q0 44 23.5 68.5t58.5 24.5q33 0 56 -22t23 -57q0 -29 -17.5 -48.5t-44.5 -25.5q5 -25 25.5 -54t37.5 -44z" />
    <glyph glyph-name="quotedblleft" unicode="&#x201c;" horiz-adv-x="466" 
d="M117 428q-35 0 -58.5 24.5t-23.5 68.5q0 57 33 108t82 83l47 -33q-17 -15 -37.5 -44t-25.5 -54q27 -6 44.5 -25.5t17.5 -48.5q0 -35 -23 -57t-56 -22zM348 428q-35 0 -58.5 24.5t-23.5 68.5q0 56 33 108t82 83l47 -33q-17 -15 -37 -43.5t-26 -54.5q27 -6 44.5 -25.5
t17.5 -48.5q0 -35 -23 -57t-56 -22z" />
    <glyph glyph-name="quotedblright" unicode="&#x201d;" horiz-adv-x="466" 
d="M38 461q18 16 38 44.5t25 53.5q-26 6 -44 25.5t-18 48.5q0 35 23.5 57t55.5 22q35 0 58.5 -24.5t23.5 -68.5q0 -56 -33 -108.5t-82 -82.5zM269 461q18 16 38 44.5t25 53.5q-26 6 -44 25.5t-18 48.5q0 35 23.5 57t55.5 22q35 0 58.5 -24.5t23.5 -68.5q0 -56 -33 -108.5
t-82 -82.5z" />
    <glyph glyph-name="quotedblbase" unicode="&#x201e;" horiz-adv-x="466" 
d="M38 -108q18 16 38 44.5t25 53.5q-26 6 -44 25.5t-18 48.5q0 35 23.5 57.5t55.5 22.5q35 0 58.5 -24.5t23.5 -69.5q0 -56 -33 -108.5t-82 -82.5zM269 -108q18 16 38 44.5t25 53.5q-26 6 -44 25.5t-18 48.5q0 35 23.5 57.5t55.5 22.5q35 0 58.5 -24.5t23.5 -69.5
q0 -56 -33 -108.5t-82 -82.5z" />
    <glyph glyph-name="dagger" unicode="&#x2020;" horiz-adv-x="572" 
d="M336 432l9 -97l-31 -476h-54l-32 476l8 97l-108 -15h-63v113h63l108 -16l-8 73v125h117v-125l-9 -73l109 16h62v-113h-62z" />
    <glyph glyph-name="daggerdbl" unicode="&#x2021;" horiz-adv-x="572" 
d="M507 42h-62l-109 15l9 -73v-125h-117v125l8 73l-108 -15h-63v112h63l108 -14l-8 96v99l8 97l-108 -15h-63v113h63l108 -16l-8 73v125h117v-125l-9 -73l109 16h62v-113h-62l-109 15l9 -97v-99l-9 -96l109 14h62v-112z" />
    <glyph glyph-name="bullet" unicode="&#x2022;" horiz-adv-x="414" 
d="M206 209q-62 0 -104 41t-42 100t42 101t104 42q61 0 104.5 -42t43.5 -101t-43.5 -100t-104.5 -41z" />
    <glyph glyph-name="ellipsis" unicode="&#x2026;" horiz-adv-x="990" 
d="M165 -12q-32 0 -53.5 21t-21.5 52q0 30 21.5 51.5t53.5 21.5q31 0 53 -21.5t22 -51.5q0 -31 -21.5 -52t-53.5 -21zM495 -12q-32 0 -53.5 21t-21.5 52q0 30 21.5 51.5t53.5 21.5q31 0 53 -21.5t22 -51.5q0 -31 -21.5 -52t-53.5 -21zM825 -12q-32 0 -53.5 21t-21.5 52
q0 30 21.5 51.5t53.5 21.5q31 0 53 -21.5t22 -51.5q0 -31 -21.5 -52t-53.5 -21z" />
    <glyph glyph-name="perthousand" unicode="&#x2030;" horiz-adv-x="1241" 
d="M212 351q-84 0 -125.5 54t-41.5 127q0 69 41.5 124.5t125.5 55.5t125.5 -54t41.5 -126q0 -70 -41 -125.5t-126 -55.5zM241 -12h-112l478 724h112zM212 445q34 0 51.5 24.5t17.5 62.5q0 39 -17.5 62.5t-51.5 23.5t-51.5 -24.5t-17.5 -61.5q0 -40 17.5 -63.5t51.5 -23.5z
M636 -12q-85 0 -126 54t-41 127q0 69 41.5 124.5t125.5 55.5t125.5 -53.5t41.5 -126.5q0 -71 -41 -126t-126 -55zM1029 -12q-85 0 -126 54t-41 127q0 69 41.5 124.5t125.5 55.5t125.5 -53.5t41.5 -126.5q0 -71 -41 -126t-126 -55zM636 82q34 0 51.5 24.5t17.5 62.5
q0 39 -18 62.5t-51 23.5q-34 0 -51.5 -24t-17.5 -62q0 -40 17.5 -63.5t51.5 -23.5zM1029 82q34 0 51.5 24.5t17.5 62.5q0 39 -18 62.5t-51 23.5q-34 0 -51.5 -24t-17.5 -62q0 -40 17.5 -63.5t51.5 -23.5z" />
    <glyph glyph-name="minute" unicode="&#x2032;" horiz-adv-x="234" 
d="M35 404l20 326h144l-63 -326h-101z" />
    <glyph glyph-name="second" unicode="&#x2033;" horiz-adv-x="434" 
d="M35 404l20 326h144l-63 -326h-101zM235 404l20 326h144l-63 -326h-101z" />
    <glyph glyph-name="guilsinglleft" unicode="&#x2039;" horiz-adv-x="324" 
d="M182 0l-152 256l152 255h127l-152 -255l152 -256h-127z" />
    <glyph glyph-name="guilsinglright" unicode="&#x203a;" horiz-adv-x="324" 
d="M15 0l152 256l-152 255h127l152 -255l-152 -256h-127z" />
    <glyph glyph-name="fraction" unicode="&#x2044;" horiz-adv-x="348" 
d="M-120 -12l478 724h110l-478 -724h-110z" />
    <glyph glyph-name="uni207F" unicode="&#x207f;" horiz-adv-x="471" 
d="M317 283v247q0 45 -20.5 67t-54.5 22q-82 0 -82 -88v-248h-100v419h100v-41q38 51 112 51q63 0 103.5 -41t40.5 -131v-257h-99z" />
    <glyph glyph-name="afii08941" unicode="&#x20a4;" horiz-adv-x="601" 
d="M83 0v105q58 29 72 97h-80v94h88q-3 32 -18 66h-70v94h36q-6 22 -6 57q0 81 61.5 140t176.5 59q68 0 117.5 -17.5t101.5 -54.5l-46 -111q-26 21 -42 32.5t-53 24.5t-78 13q-59 0 -88 -26.5t-29 -64.5q0 -25 11 -52h197v-94h-161q11 -30 12 -66h149v-94h-158
q-14 -52 -56 -88h351v-114h-488z" />
    <glyph glyph-name="Euro" unicode="&#x20ac;" horiz-adv-x="635" 
d="M381 -12q-204 0 -249 229h-93l40 92h41q-1 14 -1 39q0 17 1 29h-80l39 93h53q22 107 85.5 174.5t173.5 67.5q100 0 187 -63l-44 -109q-70 60 -143 60q-102 0 -136 -130h250l-38 -93h-225q-1 -12 -1 -27q0 -28 1 -41h199l-39 -93h-145q28 -115 124 -115q70 0 118 71
l96 -59q-75 -125 -214 -125z" />
    <glyph glyph-name="uni2105" unicode="&#x2105;" horiz-adv-x="1056" 
d="M239 272q-88 0 -138.5 58.5t-50.5 161.5t51 161.5t137 58.5q131 0 169 -117l-95 -31q-18 55 -71 55q-43 0 -67.5 -34.5t-24.5 -92.5t24 -92t64 -34q58 0 77 62l93 -29q-36 -127 -168 -127zM225 -12l478 724h105l-478 -724h-105zM813 -12q-89 0 -140.5 58.5t-51.5 160.5
t51.5 161t140.5 59t141 -59t52 -161t-52 -160.5t-141 -58.5zM813 82q44 0 69 33t25 92t-25 93t-69 34t-69 -34t-25 -93t25 -92t69 -33z" />
    <glyph glyph-name="uni2113" unicode="&#x2113;" horiz-adv-x="482" 
d="M253 -12q-55 0 -88 30.5t-33 95.5v97q-25 -14 -40 -19l-37 93q39 17 77 40v178q0 114 39 161.5t113 47.5q68 0 110.5 -39.5t42.5 -112.5q0 -52 -17 -97t-49 -81t-58 -58t-64 -48v-127q0 -33 10.5 -44.5t32.5 -11.5q38 0 74 43l34 -81q-57 -67 -147 -67zM285 620
q-20 0 -28 -22t-8 -89v-113q71 63 71 150q0 74 -35 74z" />
    <glyph glyph-name="uni2116" unicode="&#x2116;" horiz-adv-x="1182" 
d="M914 273q-88 0 -140 58.5t-52 160.5q0 103 52 161.5t140 58.5t140.5 -58.5t52.5 -161.5q0 -102 -52.5 -160.5t-140.5 -58.5zM629 0h-109l-290 442q-14 21 -29 52q3 -24 3 -52v-442h-119v700h116l283 -435q10 -15 29 -53q-3 27 -3 53v435h119v-700zM914 367q44 0 69 33
t25 92t-25 93t-69 34t-68.5 -33.5t-24.5 -93.5q0 -59 24.5 -92t68.5 -33zM722 111v92h385v-92h-385z" />
    <glyph glyph-name="trademark" unicode="&#x2122;" horiz-adv-x="823" 
d="M129 278v342h-109v80h303v-80h-108v-342h-86zM753 278h-86v232l-9 -22l-104 -215l-104 215l-10 23v-233h-86v422h83l107 -221l10 -23l9 23l107 221h83v-422z" />
    <glyph glyph-name="uni2126" unicode="&#x2126;" horiz-adv-x="749" 
d="M420 0v99q67 72 97 136.5t30 153.5q0 87 -41.5 147.5t-130.5 60.5q-47 0 -81.5 -18t-53.5 -48.5t-28 -66t-9 -76.5q0 -88 30 -152.5t97 -136.5v-99h-255v115h128q-124 103 -124 275q0 47 9.5 91t31.5 87t55.5 74.5t84.5 50.5t115 19q63 0 114.5 -19t84.5 -51t55.5 -74
t32 -86.5t9.5 -91.5q0 -170 -125 -275h128v-115h-254z" />
    <glyph glyph-name="estimated" unicode="&#x212e;" horiz-adv-x="810" 
d="M410 -12q-145 0 -245 100t-100 262q0 89 29 160t78 115t111 67t130 23q135 0 230 -96t102 -273h-509v-210q24 -32 70 -53t106 -21q145 0 231 132l60 -38q-54 -83 -123 -125.5t-170 -42.5zM236 419l344 1v153q-26 30 -71.5 49.5t-97.5 19.5q-107 0 -175 -63v-160z" />
    <glyph glyph-name="uni2153" unicode="&#x2153;" horiz-adv-x="740" 
d="M12 -12l478 724h110l-478 -724h-110zM66 283v322h-53v72q56 0 72 28h77v-422h-96zM556 -8q-58 0 -97.5 32.5t-57.5 91.5l91 24q14 -59 66 -59q23 0 37.5 12.5t14.5 34.5q0 47 -59 47h-35v85h34q45 0 45 40q0 18 -10.5 29.5t-30.5 11.5q-37 0 -53 -42l-86 31
q19 46 56.5 72.5t87.5 26.5q61 0 97 -35t36 -86q0 -27 -14.5 -51t-36.5 -37q66 -27 66 -97q0 -59 -41 -95t-110 -36z" />
    <glyph glyph-name="uni2154" unicode="&#x2154;" horiz-adv-x="901" 
d="M25 283q0 167 147 242q17 9 27 15.5t18 17.5t8 24q0 17 -12.5 29t-34.5 12q-50 0 -63 -57l-90 22q13 55 55 89.5t100 34.5q66 0 106 -36t40 -93q0 -28 -7.5 -48.5t-26 -37t-33.5 -26t-45 -25.5q-56 -29 -76 -73h187v-90h-300zM173 -12l478 724h110l-478 -724h-110z
M717 -8q-58 0 -97.5 32.5t-57.5 91.5l91 24q14 -59 66 -59q23 0 37.5 12.5t14.5 34.5q0 47 -59 47h-35v85h34q45 0 45 40q0 18 -10.5 29.5t-30.5 11.5q-37 0 -53 -42l-86 31q19 46 56.5 72.5t87.5 26.5q61 0 97 -35t36 -86q0 -27 -14.5 -51t-36.5 -37q66 -27 66 -97
q0 -59 -41 -95t-110 -36z" />
    <glyph glyph-name="oneeighth" unicode="&#x215b;" horiz-adv-x="743" 
d="M12 -12l478 724h110l-478 -724h-110zM66 283v322h-53v72q56 0 72 28h77v-422h-96zM556 -8q-68 0 -110.5 37.5t-42.5 97.5q0 33 18 60.5t47 42.5q-48 30 -48 84q0 51 37 83t99 32t99 -31.5t37 -83.5q0 -54 -47 -84q29 -15 47 -42.5t18 -60.5q0 -61 -42.5 -98t-111.5 -37z
M556 269q22 0 34.5 11.5t12.5 29.5t-12.5 30t-34.5 12q-19 0 -32.5 -12.5t-13.5 -29.5t13.5 -29t32.5 -12zM556 71q29 0 47 16t18 42t-18 43.5t-47 17.5q-28 0 -46 -17.5t-18 -43.5t18 -42t46 -16z" />
    <glyph glyph-name="threeeighths" unicode="&#x215c;" horiz-adv-x="861" 
d="M168 276q-58 0 -98.5 32.5t-57.5 90.5l92 24q14 -59 66 -59q23 0 37 12.5t14 34.5q0 47 -59 47h-34v85h33q46 0 46 40q0 18 -11 29.5t-31 11.5q-37 0 -52 -42l-86 31q18 46 56 72.5t88 26.5q60 0 96.5 -35t36.5 -86q0 -57 -51 -88q65 -28 65 -97q0 -59 -40.5 -94.5
t-109.5 -35.5zM131 -12l478 724h110l-478 -724h-110zM675 -8q-69 0 -111.5 37t-42.5 98q0 33 18.5 60.5t46.5 42.5q-47 30 -47 84q0 52 37 83.5t99 31.5t99 -31.5t37 -83.5q0 -54 -47 -84q28 -15 46 -42.5t18 -60.5q0 -61 -42 -98t-111 -37zM675 269q21 0 33.5 11.5
t12.5 29.5t-12.5 30t-33.5 12q-20 0 -33.5 -12.5t-13.5 -29.5t13.5 -29t33.5 -12zM675 71q28 0 46 16t18 42t-18 43.5t-46 17.5t-46.5 -17.5t-18.5 -43.5q0 -25 18 -41.5t47 -16.5z" />
    <glyph glyph-name="fiveeighths" unicode="&#x215d;" horiz-adv-x="860" 
d="M129 -12l478 724h110l-478 -724h-110zM163 276q-82 0 -142 45l52 74q46 -32 87 -32q32 0 51.5 16.5t19.5 44.5q0 26 -14.5 40.5t-39.5 14.5q-38 0 -60 -42l-83 43l12 229h256v-87h-172l-5 -72q27 16 62 16q67 0 103.5 -41.5t36.5 -98.5q0 -69 -45.5 -109.5t-118.5 -40.5z
M673 -8q-68 0 -110.5 37.5t-42.5 97.5q0 33 18 60.5t47 42.5q-48 30 -48 84q0 51 37 83t99 32t99 -31.5t37 -83.5q0 -54 -47 -84q29 -15 47 -42.5t18 -60.5q0 -61 -42.5 -98t-111.5 -37zM673 269q22 0 34.5 11.5t12.5 29.5t-12.5 30t-34.5 12q-19 0 -32.5 -12.5t-13.5 -29.5
t13.5 -29t32.5 -12zM673 71q29 0 47 16t18 42t-18 43.5t-47 17.5q-28 0 -46 -17.5t-18 -43.5t18 -42t46 -16z" />
    <glyph glyph-name="seveneighths" unicode="&#x215e;" horiz-adv-x="770" 
d="M40 -12l478 724h110l-478 -724h-110zM90 283q1 182 101 336h-186v90h295v-79q-59 -68 -85.5 -165t-27.5 -182h-97zM584 -8q-68 0 -111 37t-43 98q0 33 18.5 60.5t46.5 42.5q-47 30 -47 84q0 52 37 83.5t99 31.5t99 -31.5t37 -83.5q0 -54 -47 -84q28 -15 46 -42.5
t18 -60.5q0 -61 -42 -98t-111 -37zM584 269q21 0 33.5 11.5t12.5 29.5t-12.5 30t-33.5 12q-20 0 -33.5 -12.5t-13.5 -29.5t13.5 -29t33.5 -12zM584 71q28 0 46 16t18 42t-18 43.5t-46 17.5t-46.5 -17.5t-18.5 -43.5q0 -25 18 -41.5t47 -16.5z" />
    <glyph glyph-name="arrowleft" unicode="&#x2190;" horiz-adv-x="770" 
d="M328 151q-4 0 -17 8l-270 184q-11 7 -11 17t11 17l270 185q13 8 17 8q12 0 12 -11q0 -5 -6 -21l-44 -128l440 11v-121l-440 11l44 -128q6 -16 6 -21q0 -11 -12 -11z" />
    <glyph glyph-name="arrowup" unicode="&#x2191;" horiz-adv-x="480" 
d="M179 0l12 441l-129 -45q-16 -6 -21 -6q-11 0 -11 12q0 4 8 17l185 270q8 11 17 11q10 0 17 -11l185 -270q8 -13 8 -17q0 -12 -11 -12q-5 0 -21 6l-129 45l12 -441h-122z" />
    <glyph glyph-name="arrowright" unicode="&#x2192;" horiz-adv-x="770" 
d="M442 151q-12 0 -12 11q0 5 6 21l45 128l-441 -11v121l441 -11l-45 128q-6 16 -6 21q0 11 12 11q4 0 17 -8l270 -185q11 -7 11 -17t-11 -17l-270 -184q-13 -8 -17 -8z" />
    <glyph glyph-name="arrowdown" unicode="&#x2193;" horiz-adv-x="494" 
d="M247 0q-10 0 -17 11l-189 276q-8 13 -8 17q0 12 11 12q5 0 21 -6l133 -46l-12 436h122l-12 -436l133 46q16 6 21 6q11 0 11 -12q0 -4 -8 -17l-189 -276q-7 -11 -17 -11z" />
    <glyph glyph-name="arrowboth" unicode="&#x2194;" horiz-adv-x="985" 
d="M657 151q-12 0 -12 11q0 5 6 21l44 126h-404l43 -126q6 -16 6 -21q0 -11 -12 -11q-4 0 -17 8l-270 184q-11 7 -11 17t11 17l270 185q13 8 17 8q12 0 12 -11q0 -5 -6 -21l-43 -126h404l-44 126q-6 16 -6 21q0 11 12 11q4 0 17 -8l270 -185q11 -7 11 -17t-11 -17l-270 -184
q-13 -8 -17 -8z" />
    <glyph glyph-name="arrowupdn" unicode="&#x2195;" horiz-adv-x="494" 
d="M246 -170q-10 0 -17 11l-184 270q-8 13 -8 17q0 12 11 12q5 0 21 -6l126 -43v415l-126 -44q-16 -6 -21 -6q-11 0 -11 12q0 4 8 17l184 270q7 11 17 11t17 -11l186 -270q8 -13 8 -17q0 -12 -11 -12q-5 0 -21 6l-127 44v-415l127 43q16 6 21 6q11 0 11 -12q0 -4 -8 -17
l-186 -270q-7 -11 -17 -11z" />
    <glyph glyph-name="uni2196" unicode="&#x2196;" horiz-adv-x="611" 
d="M503 59l-303 320l-59 -122q-11 -22 -19 -22q-12 0 -15 24l-58 302q-4 22 -4 25q0 7 5 11.5t12 4.5t19 -3l311 -58q22 -4 22 -14q0 -9 -22 -19l-123 -59l320 -303z" />
    <glyph glyph-name="uni2197" unicode="&#x2197;" horiz-adv-x="611" 
d="M108 59l-85 87l319 303l-123 59q-22 11 -22 19q0 9 22 14l311 58q12 3 20 3q16 0 16 -16q0 -3 -4 -25l-57 -302q-5 -24 -16 -24q-3 0 -5 1t-4 3.5t-2.5 4t-3 6.5l-3.5 7l-59 122z" />
    <glyph glyph-name="uni2198" unicode="&#x2198;" horiz-adv-x="611" 
d="M550 59q-2 0 -9.5 1.5t-10.5 1.5l-311 58q-22 5 -22 15q0 7 22 18l123 60l-319 303l85 86l304 -320l59 123l2.5 5t2 4.5t2 4t2.5 3.5t2.5 2t3 1.5t3.5 0.5q11 0 16 -23l57 -303q4 -22 4 -25q0 -16 -16 -16z" />
    <glyph glyph-name="uni2199" unicode="&#x2199;" horiz-adv-x="611" 
d="M62 59q-7 0 -12 4.5t-5 11.5q0 3 4 25l58 303q3 23 15 23q8 0 19 -21l59 -123l303 320l86 -86l-320 -303l123 -60q22 -11 22 -18q0 -11 -22 -15l-311 -58q-4 0 -10.5 -1.5t-8.5 -1.5z" />
    <glyph glyph-name="uni21B3" unicode="&#x21b3;" horiz-adv-x="760" 
d="M714 231q11 -7 11 -17t-11 -17l-270 -184q-13 -8 -17 -8q-12 0 -12 11q0 5 6 21l43 126h-388v537h106v-434h282l-43 126q-6 16 -6 21q0 11 12 11q4 0 17 -8z" />
    <glyph glyph-name="uni21B4" unicode="&#x21b4;" horiz-adv-x="760" 
d="M714 322q11 0 11 -12q0 -4 -8 -17l-184 -270q-7 -11 -17 -11t-17 11l-185 270q-8 13 -8 17q0 12 11 12q5 0 21 -6l124 -42v325h-386v101h493v-426l124 42q16 6 21 6z" />
    <glyph glyph-name="uni21B5" unicode="&#x21b5;" horiz-adv-x="760" 
d="M578 700h106v-537h-388l43 -126q6 -16 6 -21q0 -11 -12 -11q-4 0 -17 8l-270 184q-11 7 -11 17t11 17l270 185q13 8 17 8q12 0 12 -11q0 -5 -6 -21l-43 -126h282v434z" />
    <glyph glyph-name="uni21B6" unicode="&#x21b6;" horiz-adv-x="819" 
d="M465 712q118 0 196 -76.5t78 -210.5v-425h-107v425q0 87 -46 136t-121 49t-120.5 -48.5t-45.5 -136.5v-30l123 42q16 6 21 6q11 0 11 -12q0 -4 -8 -17l-184 -270q-7 -11 -17 -11q-9 0 -17 11l-185 270q-8 13 -8 17q0 12 11 12q5 0 21 -6l124 -42v30q0 134 78.5 210.5
t195.5 76.5z" />
    <glyph glyph-name="uni21B7" unicode="&#x21b7;" horiz-adv-x="819" 
d="M773 443q11 0 11 -12q0 -4 -8 -17l-185 -270q-7 -11 -17 -11t-17 11l-184 270q-8 13 -8 17q0 12 11 12q5 0 21 -6l124 -42v30q0 88 -45.5 136.5t-121.5 48.5q-75 0 -120.5 -49t-45.5 -136v-425h-108v425q0 134 78 210.5t196 76.5q117 0 195.5 -76.5t78.5 -210.5v-30
l124 42q16 6 21 6z" />
    <glyph glyph-name="uni21B8" unicode="&#x21b8;" horiz-adv-x="611" 
d="M45 599v101h544v-101h-544zM503 -32l-303 320l-59 -122q-11 -22 -19 -22q-12 0 -15 24l-58 302q-4 22 -4 25q0 7 5 11.5t12 4.5t19 -3l311 -58q22 -4 22 -14q0 -9 -22 -19l-123 -59l320 -303z" />
    <glyph glyph-name="uni21B9" unicode="&#x21b9;" horiz-adv-x="975" 
d="M548 326q-4 0 -17 8l-270 184q-11 7 -11 17t11 17l270 185q13 8 17 8q12 0 12 -11q0 -5 -6 -21l-44 -128l389 11v-121l-389 11l44 -128q6 -16 6 -21q0 -11 -12 -11zM76 335v400h117v-400h-117zM427 -245q-12 0 -12 11q0 5 6 21l44 128l-389 -12v122l389 -11l-44 128
q-6 16 -6 21q0 11 12 11q4 0 17 -8l270 -185q11 -8 11 -17q0 -10 -11 -17l-270 -184q-13 -8 -17 -8zM782 -235v399h117v-399h-117z" />
    <glyph glyph-name="uni21BA" unicode="&#x21ba;" horiz-adv-x="846" 
d="M785 658q22 -4 22 -15q0 -8 -22 -18l-122 -59q83 -93 83 -216q0 -134 -95 -228.5t-228 -94.5t-228 94.5t-95 228.5q0 135 95 228l72 -72q-65 -65 -65 -156t65 -156t156 -65t156 65t65 156q0 80 -53 143l-57 -120q-10 -21 -19 -21q-12 0 -15 23l-58 303q-4 22 -4 25
q0 7 5 11.5t12 4.5q2 0 8.5 -1.5t10.5 -1.5z" />
    <glyph glyph-name="uni21DA" unicode="&#x21da;" horiz-adv-x="770" 
d="M730 426h-435l-13 -38h448v-55h-447l12 -37h435v-55h-416l20 -58q6 -16 6 -21q0 -11 -12 -11q-4 0 -17 8l-270 184q-11 7 -11 17t11 17l270 185q13 8 17 8q12 0 12 -11q0 -5 -6 -21l-20 -57h416v-55z" />
    <glyph glyph-name="uni21DB" unicode="&#x21db;" horiz-adv-x="770" 
d="M729 377q11 -7 11 -17t-11 -17l-270 -184q-13 -8 -17 -8q-12 0 -12 11q0 5 6 21l20 58h-416v55h435l13 37h-448v55h449l-14 38h-435v55h416l-20 57q-6 16 -6 21q0 11 12 11q4 0 17 -8z" />
    <glyph glyph-name="uni21DC" unicode="&#x21dc;" horiz-adv-x="770" 
d="M662 414h68v-106h-98l-20 63l-39 -120h-64l-39 121l-39 -121h-64l-19 57h-67l43 -125q6 -16 6 -21q0 -11 -11 -11q-4 0 -17 8l-261 185q-11 7 -11 17q0 8 11 16l261 185q11 8 17 8q11 0 11 -11q0 -5 -6 -21l-43 -124h97l21 -64l39 121h64l39 -121l39 121h64z" />
    <glyph glyph-name="uni21DD" unicode="&#x21dd;" horiz-adv-x="770" 
d="M729 377q11 -8 11 -16q0 -10 -11 -17l-260 -185q-13 -8 -17 -8q-12 0 -12 11q0 5 6 21l44 125h-68l-18 -57h-64l-39 121l-39 -121h-64l-39 120l-20 -63h-99v106h68l19 57h64l39 -121l39 121h64l39 -121l20 64h98l-44 124q-6 16 -6 21q0 11 12 11q6 0 17 -8z" />
    <glyph glyph-name="uni21DE" unicode="&#x21de;" horiz-adv-x="480" 
d="M442 419q8 -13 8 -17q0 -12 -11 -12q-5 0 -21 6l-126 44v-103h146v-83h-146v-70h146v-83h-146v-101h-104v101h-147v83h147v70h-147v83h147v103l-126 -44q-16 -6 -21 -6q-11 0 -11 12q0 4 8 17l185 270q8 11 17 11q10 0 17 -11z" />
    <glyph glyph-name="uni21DF" unicode="&#x21df;" horiz-adv-x="480" 
d="M439 310q11 0 11 -12q0 -4 -8 -17l-185 -270q-7 -11 -17 -11q-9 0 -17 11l-185 270q-8 13 -8 17q0 12 11 12q5 0 21 -6l126 -43v102h-147v83h147v70h-147v83h147v101h104v-101h146v-83h-146v-70h146v-83h-146v-102l126 43q16 6 21 6z" />
    <glyph glyph-name="uni21E0" unicode="&#x21e0;" horiz-adv-x="770" 
d="M334 538l-43 -126h76v-103h-76l43 -126q6 -16 6 -21q0 -11 -12 -11q-4 0 -17 8l-270 184q-11 7 -11 17t11 17l270 185q13 8 17 8q12 0 12 -11q0 -5 -6 -21zM444 309v103h105v-103h-105zM626 412h104v-103h-104v103z" />
    <glyph glyph-name="uni21E1" unicode="&#x21e1;" horiz-adv-x="480" 
d="M442 419q8 -13 8 -17q0 -12 -11 -12q-5 0 -21 6l-125 43v-79h-106v79l-125 -43q-16 -6 -21 -6q-11 0 -11 12q0 4 8 17l185 270q8 11 17 11q10 0 17 -11zM187 180v103h106v-103h-106zM187 0v103h106v-103h-106z" />
    <glyph glyph-name="uni21E2" unicode="&#x21e2;" horiz-adv-x="770" 
d="M729 377q11 -7 11 -17t-11 -17l-270 -184q-13 -8 -17 -8q-12 0 -12 11q0 5 6 21l44 126h-77v103h77l-44 126q-6 16 -6 21q0 11 12 11q4 0 17 -8zM40 309v103h105v-103h-105zM222 309v103h104v-103h-104z" />
    <glyph glyph-name="uni21E3" unicode="&#x21e3;" horiz-adv-x="480" 
d="M293 700v-105h-106v105h106zM293 518v-105h-106v105h106zM439 310q11 0 11 -12q0 -4 -8 -17l-185 -270q-7 -11 -17 -11q-9 0 -17 11l-185 270q-8 13 -8 17q0 12 11 12q5 0 21 -6l125 -43v75h106v-75l125 43q16 6 21 6z" />
    <glyph glyph-name="uni21E4" unicode="&#x21e4;" horiz-adv-x="903" 
d="M76 104v511h117v-511h-117zM548 151q-4 0 -17 8l-270 184q-11 7 -11 17t11 17l270 185q13 8 17 8q12 0 12 -11q0 -5 -6 -21l-44 -128l353 11v-121l-353 11l44 -128q6 -16 6 -21q0 -11 -12 -11z" />
    <glyph glyph-name="uni21E5" unicode="&#x21e5;" horiz-adv-x="903" 
d="M710 104v511h117v-511h-117zM355 151q-12 0 -12 11q0 5 6 21l44 128l-353 -11v121l353 -11l-44 128q-6 16 -6 21q0 11 12 11q4 0 17 -8l270 -185q11 -7 11 -17t-11 -17l-270 -184q-13 -8 -17 -8z" />
    <glyph glyph-name="partialdiff" unicode="&#x2202;" horiz-adv-x="590" 
d="M253 -12q-102 0 -162.5 57.5t-60.5 158.5q0 105 72 171.5t171 66.5q92 0 143 -59q-2 28 -4 40q-17 88 -78 131t-146 47l29 111q167 -17 242.5 -111t75.5 -268q0 -70 -15.5 -129.5t-48 -109t-88.5 -78t-130 -28.5zM260 101q61 0 99 35t38 90q0 50 -30 77t-84 27
q-59 0 -96 -35t-37 -89q0 -49 29.5 -77t80.5 -28z" />
    <glyph glyph-name="uni2206" unicode="&#x2206;" horiz-adv-x="669" 
d="M26 0l251 700h116l250 -700h-617zM189 114h292l-123 357q-18 51 -22 71q-5 -20 -22 -71z" />
    <glyph glyph-name="product" unicode="&#x220f;" horiz-adv-x="727" 
d="M520 -140v728h-313v-728h-117v840h547v-840h-117z" />
    <glyph glyph-name="summation" unicode="&#x2211;" horiz-adv-x="617" 
d="M45 -140v108l236 323l-222 302v108h504v-113h-355l220 -298l-232 -317h386v-113h-537z" />
    <glyph glyph-name="minus" unicode="&#x2212;" horiz-adv-x="630" 
d="M80 287v113h470v-113h-470z" />
    <glyph glyph-name="uni2215" unicode="&#x2215;" horiz-adv-x="348" 
d="M-120 -12l478 724h110l-478 -724h-110z" />
    <glyph glyph-name="uni2219" unicode="&#x2219;" horiz-adv-x="232" 
d="M116 272q-34 0 -57 22.5t-23 54.5q0 33 23 56t57 23t57 -23t23 -56q0 -32 -23 -54.5t-57 -22.5z" />
    <glyph glyph-name="radical" unicode="&#x221a;" horiz-adv-x="567" 
d="M537 700l-213 -700h-95l-184 348h126l92 -180l154 532h120z" />
    <glyph glyph-name="infinity" unicode="&#x221e;" horiz-adv-x="1006" 
d="M728 114q-141 0 -225 131q-85 -131 -225 -131q-105 0 -174 62.5t-69 170.5t69 171t174 63q140 0 225 -131q85 131 223 131q107 0 176 -62.5t69 -171.5q0 -108 -69 -170.5t-174 -62.5zM282 226q96 0 169 121q-72 122 -169 122q-57 0 -93.5 -32.5t-36.5 -89.5
q0 -56 36.5 -88.5t93.5 -32.5zM724 226q57 0 93.5 32.5t36.5 88.5q0 57 -36.5 89.5t-93.5 32.5q-98 0 -168 -122q73 -121 168 -121z" />
    <glyph glyph-name="integral" unicode="&#x222b;" horiz-adv-x="425" 
d="M150 -140q-59 0 -110 24v94q44 -16 73 -16q41 0 41 41v588q0 121 122 121q62 0 109 -24v-94q-42 16 -73 16q-41 0 -41 -40v-589q0 -121 -121 -121z" />
    <glyph glyph-name="approxequal" unicode="&#x2248;" horiz-adv-x="630" 
d="M413 367q-46 0 -107.5 28t-84.5 28q-46 0 -53 -56h-89q0 73 34 121.5t104 48.5q47 0 107.5 -28t84.5 -28q48 0 53 56h89q0 -73 -34 -121.5t-104 -48.5zM413 151q-46 0 -107.5 28t-84.5 28q-46 0 -53 -56h-89q0 73 34 121t104 48q47 0 107.5 -28t84.5 -28q48 0 53 56h89
q0 -73 -34 -121t-104 -48z" />
    <glyph glyph-name="notequal" unicode="&#x2260;" horiz-adv-x="630" 
d="M300 182l-36 -80h-125l36 80h-101v114h152l42 94h-194v114h245l39 87h126l-39 -87h101v-114h-152l-42 -94h194v-114h-246z" />
    <glyph glyph-name="lessequal" unicode="&#x2264;" horiz-adv-x="630" 
d="M551 164l-471 172v95l471 171v-115l-308 -104l308 -103v-116zM80 0v113h470v-113h-470z" />
    <glyph glyph-name="greaterequal" unicode="&#x2265;" horiz-adv-x="630" 
d="M80 164v116l308 103l-308 104v115l471 -171v-95zM80 0v113h470v-113h-470z" />
    <glyph glyph-name="lozenge" unicode="&#x25ca;" horiz-adv-x="604" 
d="M257 -12l-202 362l202 362h91l201 -362l-201 -362h-91zM302 560l-123 -210l123 -210l124 210z" />
    <glyph glyph-name="uni25CC" unicode="&#x25cc;" horiz-adv-x="644" 
d="M292 594q0 14 8.5 23t21.5 9t21.5 -9t8.5 -23q0 -13 -8.5 -21.5t-21.5 -8.5t-21.5 8.5t-8.5 21.5zM201 576q0 14 8.5 23t22.5 9q13 0 21.5 -9t8.5 -23q0 -13 -8.5 -21.5t-21.5 -8.5t-22 8.5t-9 21.5zM381 576q0 14 9 22.5t21 8.5q14 0 23 -8.5t9 -22.5q0 -13 -9 -21.5
t-23 -8.5q-13 0 -21.5 8.5t-8.5 21.5zM125 526q0 14 9 22t22 8q30 0 30 -30q0 -14 -8 -22.5t-22 -8.5q-13 0 -22 8.5t-9 22.5zM458 526q0 14 8.5 22t21.5 8q14 0 22.5 -8t8.5 -22t-8.5 -22.5t-22.5 -8.5q-13 0 -21.5 8.5t-8.5 22.5zM509 449q0 13 8.5 22.5t21.5 9.5
q14 0 22.5 -9.5t8.5 -22.5q0 -12 -8.5 -21t-22.5 -9q-13 0 -21.5 9t-8.5 21zM74 449q0 13 9 22t22 9q14 0 22.5 -8.5t8.5 -22.5q0 -12 -9.5 -21.5t-21.5 -9.5q-13 0 -22 9.5t-9 21.5zM55 359q0 14 9 22.5t23 8.5q30 0 30 -31q0 -30 -30 -30q-14 0 -23 8.5t-9 21.5zM527 359
q0 14 8 22.5t22 8.5q13 0 22.5 -8.5t9.5 -22.5q0 -13 -9.5 -21.5t-22.5 -8.5t-21.5 8.5t-8.5 21.5zM74 269q0 14 8.5 22.5t22.5 8.5q13 0 21.5 -8.5t8.5 -22.5q0 -13 -8.5 -22t-21.5 -9t-22 9t-9 22zM508 270q0 13 9 21.5t22 8.5q14 0 22.5 -8.5t8.5 -21.5q0 -14 -8.5 -22.5
t-22.5 -8.5q-13 0 -22 8.5t-9 22.5zM125 193q0 14 9 22.5t22 8.5q14 0 22 -8.5t8 -22.5q0 -13 -8 -21.5t-22 -8.5q-13 0 -22 8.5t-9 21.5zM458 193q0 14 8.5 22.5t21.5 8.5q14 0 22.5 -8.5t8.5 -22.5q0 -13 -8.5 -21.5t-22.5 -8.5q-13 0 -21.5 8.5t-8.5 21.5zM201 143
q0 13 9 21.5t23 8.5q13 0 21.5 -8.5t8.5 -21.5t-9 -22.5t-21 -9.5q-14 0 -23 9t-9 23zM382 142q0 14 8.5 22.5t21.5 8.5q31 0 31 -31q0 -14 -8.5 -22.5t-22.5 -8.5q-13 0 -21.5 9t-8.5 22zM292 124q0 14 8.5 22.5t21.5 8.5q14 0 22 -8.5t8 -22.5t-8.5 -22.5t-21.5 -8.5
t-21.5 9t-8.5 22z" />
    <glyph glyph-name="uniF6C3" unicode="&#xf6c3;" horiz-adv-x="0" 
d="M-149 730v-8q0 -143 -104 -244l-37 28q30 62 30 224h111z" />
    <glyph glyph-name="u1F3A9" unicode="&#x1f3a9;" horiz-adv-x="935" 
d="M459 9q-169 0 -294 88t-125 201q0 30 13.5 54t40.5 42.5t55.5 31t70.5 27.5q20 75 68 190q24 55 61 55q31 0 65 -16.5t55 -16.5q18 0 54 16.5t65 16.5q38 0 53 -43q65 -177 72 -202q182 -52 182 -159q0 -109 -128 -197t-308 -88zM469 207q62 0 115 20.5t84 50t48.5 58.5
t17.5 49q0 11 -7 30l-14 37q-30 -56 -102 -91t-145 -35q-64 0 -136.5 31t-109.5 95l-19 -55q-2 -8 -2 -11q0 -11 8.5 -31t30 -46t51 -48.5t77 -38t103.5 -15.5z" />
    <glyph glyph-name="u1F427" unicode="&#x1f427;" horiz-adv-x="706" 
d="M232 -5q-4 0 -19 4.5t-35.5 11.5t-34.5 10q-12 3 -34 7.5t-29 6.5q-3 1 -8 2.5t-6 1.5q-16 4 -16 20q0 7 6 20t6 22q0 10 -4.5 23t-4.5 18q0 16 17 18q5 2 27 4q29 6 29 34q2 -12 2 -14q0 -13 -10.5 -22t-24.5 -9h-19q-12 0 -12 -9q0 -7 6 -22t6 -24q0 -7 -5.5 -19.5
t-5.5 -19.5t7 -10q3 -1 54 -12.5t83 -21.5q9 -3 19 -3q44 0 44 33q0 24 -20 57q-74 116 -100 116q-5 0 -8 -1.5t-4 -3t-2 -1.5q-4 0 -4 19q0 16 7 30q8 12 16.5 33t11.5 27q10 35 21 52q3 7 11 17l19.5 26l20.5 27q13 25 13 36q0 1 -0.5 4t-0.5 5q-4 51 -4 125q0 45 28 68.5
t66 23.5q37 0 63.5 -13.5t38.5 -34.5t17 -40t5 -38v-16q0 -87 57 -149q35 -37 59 -104q12 -35 13 -62q2 -10 2 -15q0 -25 -24 -41q-23 -33 -46 -33q-9 0 -17 4q-10 3 -19.5 21t-15.5 18q-15 0 -15 -30q0 -9 3.5 -29.5t3.5 -33.5q0 -10 -2.5 -29.5t-2.5 -30.5q0 -14 11.5 -25
t27.5 -11q17 0 31 14q36 30 76 43q1 0 10 3.5l14.5 5.5t11 7t5.5 10q0 7 -9 12.5t-19 9.5t-19 15.5t-9 28.5q0 16 5 23q2 -18 4 -26q7 -22 31 -36.5t24 -24.5q0 -16 -41 -37q-34 -17 -55 -31l-31 -26q-9 -9 -36 -9q-28 0 -42.5 17.5t-23.5 17.5q-7 0 -23 1t-24 1
q-9 0 -27.5 -1t-28.5 -1q-28 0 -55.5 -17.5t-36.5 -17.5zM286 33q9 5 9 16q0 7 -4 14.5t-8 12.5l-4 5q0 5 8 5q2 0 7 -4t17.5 -8t33.5 -4q25 0 50.5 9.5t34.5 28.5q5 10 12 10q4 0 4 -14q0 -23 -8 -43q-3 -15 -3 -16q0 -6 10 -6q3 23 6 39.5t4 23t1 14.5q0 7 -2 18.5
t-4 20.5l-1 9q0 44 28 44q3 0 3 3q1 11 12 17.5t24 6.5q7 0 16 -4t14 -5q-3 5 -11.5 10.5t-10.5 6.5q6 18 6 36q0 28 -14 65.5t-38 48.5q45 -58 45 -118q0 -8 -2 -20q-4 -19 -27 -19q-11 0 -11 22q0 87 -37 127q-8 39 -31 73q-8 8 -8 24v6q6 15 6 22t-5.5 11t-16.5 6.5
t-14 4.5q-3 3 -8.5 4.5t-8.5 5t-3 11.5q0 28 21 28q9 0 14.5 -7t5.5 -17q0 -8 -2 -13t-2 -6q0 -4 13 -4q6 2 7 6q0 34 -7 47q-11 17 -26 17q-14 0 -26 -9.5t-12 -23.5q0 -17 2 -25q-5 4 -18 4h-8q-6 0 -6 5q0 45 -25 45q-9 0 -16.5 -12t-7.5 -25q0 -8 4 -19.5t10 -11.5l7 6
q-12 0 -12 22q0 20 15 20t15 -27q0 -6 -5 -9q-7 -9 -23 -21q-5 -4 -7 -11q-3 -2 -3 -3q0 -4 6 -6q4 -6 8 -10t7 -6t4 -3q4 -4 16 -4h7q11 0 39 7q15 3 24.5 8.5t13.5 9.5l4 4l1 -1h2q3 0 3 -4t-6 -8l-42 -16q-26 -11 -44 -11q-1 0 -4.5 1t-5.5 1h-9q13 -17 29 -17
q23 0 61 25q1 0 3 0.5t4.5 1.5t5.5 2q1 0 4 -3q0 -5 -11 -11q-16 -7 -44 -27q-14 -14 -26 -14q-15 0 -22 12l-21 29q-3 -3 -3 -4t0.5 -3t0.5 -3q0 -3 -7 -17q-20 -40 -20 -52q0 -4 2 -10t2 -8q-7 -4 -13 -18q-30 -52 -30 -91q0 -10 1 -16q0 -1 -1.5 -7t-1.5 -11q-1 -5 -6 -5
q-3 0 -5 2t-5.5 8t-5.5 9q-5 11 -5 26q0 5 2 19v4q-8 -4 -8 -25q0 -17 8 -33q1 -10 12 -19q18 -15 33 -31l53 -42q9 -8 9 -19q0 -8 -6 -15t-10 -7q-8 0 -8 -3q0 -1 2.5 -4l6 -7.5t5.5 -7.5q11 -17 12 -46zM387 557h4q1 1 1 6q0 3 -6 9q-2 2 -4 2t-3 -2q8 -5 8 -15zM295 553
q2 2 2 4q0 4 -2 9t-4 5q-3 0 -3 -5q4 0 4 -9q0 -4 3 -4zM302 534q-2 0 -3 4q8 4 9 6q-2 -6 -3 -7zM342 536q-3 3 -4 8q2 -2 7 -2v-4q0 -2 -3 -2z" />
    <glyph glyph-name="i.TRK" horiz-adv-x="269" 
d="M135 581q-29 0 -49.5 20.5t-20.5 49.5t20.5 49t49.5 20t49 -20t20 -49t-20 -49.5t-49 -20.5zM76 0v511h117v-511h-117z" />
    <glyph glyph-name="Jacute" horiz-adv-x="565" 
d="M296 765l142 156h152l-178 -156h-116zM249 -12q-76 0 -136.5 37.5t-92.5 105.5l104 50q39 -78 125 -78q117 0 117 149v448h119v-461q0 -57 -14.5 -102t-37.5 -72.5t-55 -45t-63.5 -24.5t-65.5 -7z" />
    <glyph glyph-name="jacute" horiz-adv-x="269" 
d="M25 576l142 156h152l-178 -156h-116zM-7 -214l-58 90q80 17 110.5 42t30.5 74v519h117v-485q0 -111 -49 -162q-54 -57 -151 -78z" />
    <glyph glyph-name="zero.dnom" horiz-adv-x="393" 
d="M197 -7q-58 0 -95 34t-50.5 80t-13.5 104q0 40 8 76t25 69.5t49.5 53t76.5 19.5q58 0 95 -34t50 -80t13 -104q0 -40 -7.5 -75.5t-24.5 -69t-49 -53.5t-77 -20zM197 84q32 0 46.5 37t14.5 90q0 54 -15 90.5t-46 36.5q-32 0 -47 -37t-15 -90q0 -54 15 -90.5t47 -36.5z" />
    <glyph glyph-name="one.dnom" horiz-adv-x="212" 
d="M63 0v322h-53v72q55 0 73 28h76v-422h-96z" />
    <glyph glyph-name="two.dnom" horiz-adv-x="364" 
d="M25 0q0 167 147 242q18 10 27 16t17.5 17t8.5 24q0 17 -12.5 29t-34.5 12q-50 0 -63 -57l-90 22q13 55 55 89.5t100 34.5q66 0 106 -36t40 -93q0 -28 -8 -49t-26 -37t-33.5 -26t-44.5 -25q-56 -29 -76 -73h187v-90h-300z" />
    <glyph glyph-name="three.dnom" horiz-adv-x="351" 
d="M168 -8q-58 0 -98.5 32.5t-57.5 91.5l92 24q14 -59 66 -59q23 0 37 12.5t14 34.5q0 47 -59 47h-34v85h33q46 0 46 40q0 18 -11 29.5t-31 11.5q-37 0 -52 -42l-86 31q18 46 56 72.5t88 26.5q60 0 96.5 -35t36.5 -86q0 -27 -14.5 -51t-36.5 -37q65 -28 65 -97
q0 -59 -40.5 -95t-109.5 -36z" />
    <glyph glyph-name="four.dnom" horiz-adv-x="385" 
d="M216 0v83h-209v63l211 277h89v-255h55v-85h-55v-83h-91zM216 168v129l-99 -129h99z" />
    <glyph glyph-name="five.dnom" horiz-adv-x="355" 
d="M163 -7q-82 0 -142 45l52 74q46 -32 87 -32q31 0 51 17t20 44q0 26 -14.5 40.5t-39.5 14.5q-37 0 -60 -42l-83 43l12 229h256v-87h-172l-5 -72q30 16 62 16q67 0 103.5 -41.5t36.5 -98.5q0 -69 -45.5 -109.5t-118.5 -40.5z" />
    <glyph glyph-name="six.dnom" horiz-adv-x="363" 
d="M190 -7q-76 0 -115.5 47t-39.5 125q0 108 63 179t189 89v-84q-114 -19 -143 -95q24 13 64 13q59 0 97 -36t38 -100q0 -63 -42 -100.5t-111 -37.5zM188 77q28 0 46 14.5t18 39.5t-17.5 38.5t-46.5 13.5q-26 0 -43 -13.5t-17 -38.5q0 -24 17 -39t43 -15z" />
    <glyph glyph-name="seven.dnom" horiz-adv-x="310" 
d="M90 0q1 182 101 336h-186v90h295v-79q-59 -67 -85.5 -164.5t-27.5 -182.5h-97z" />
    <glyph glyph-name="eight.dnom" horiz-adv-x="372" 
d="M186 -8q-68 0 -111 37t-43 98q0 33 18.5 60.5t46.5 42.5q-47 30 -47 84q0 52 37 83.5t99 31.5t99 -31.5t37 -83.5q0 -54 -47 -84q28 -15 46 -42.5t18 -60.5q0 -61 -42 -98t-111 -37zM186 269q21 0 33.5 11.5t12.5 29.5t-12.5 30t-33.5 12q-20 0 -33.5 -12.5t-13.5 -29.5
t13.5 -29t33.5 -12zM186 71q28 0 46 16t18 42t-18 43.5t-46 17.5t-46.5 -17.5t-18.5 -43.5q0 -25 18 -41.5t47 -16.5z" />
    <glyph glyph-name="nine.dnom" horiz-adv-x="361" 
d="M91 -7v84q104 5 131 93q-22 -15 -62 -15q-63 0 -101.5 36.5t-38.5 99.5q0 62 42.5 100t111.5 38q76 0 116 -46t40 -120q0 -119 -59.5 -192.5t-179.5 -77.5zM174 239q29 0 46 13.5t17 39.5q0 24 -17.5 38.5t-44.5 14.5q-28 0 -45.5 -14.5t-17.5 -39.5t17 -38.5t45 -13.5z
" />
    <glyph glyph-name="zero.numr" horiz-adv-x="393" 
d="M197 276q-58 0 -95 34t-50.5 80t-13.5 104q0 40 8 76t25 69.5t49.5 53t76.5 19.5q58 0 95 -34t50 -80t13 -104q0 -40 -7.5 -75.5t-24.5 -69t-49 -53.5t-77 -20zM197 367q32 0 46.5 37t14.5 90q0 54 -15 90.5t-46 36.5q-32 0 -47 -37t-15 -90t15 -90t47 -37z" />
    <glyph glyph-name="one.numr" horiz-adv-x="212" 
d="M63 283v322h-53v72q55 0 73 28h76v-422h-96z" />
    <glyph glyph-name="two.numr" horiz-adv-x="364" 
d="M25 283q0 167 147 242q17 9 27 15.5t18 17.5t8 24q0 17 -12.5 29t-34.5 12q-50 0 -63 -57l-90 22q13 55 55 89.5t100 34.5q66 0 106 -36t40 -93q0 -28 -7.5 -48.5t-26 -37t-33.5 -26t-45 -25.5q-56 -29 -76 -73h187v-90h-300z" />
    <glyph glyph-name="three.numr" horiz-adv-x="351" 
d="M168 276q-58 0 -98.5 32.5t-57.5 90.5l92 24q14 -59 66 -59q23 0 37 12.5t14 34.5q0 47 -59 47h-34v85h33q46 0 46 40q0 18 -11 29.5t-31 11.5q-37 0 -52 -42l-86 31q18 46 56 72.5t88 26.5q60 0 96.5 -35t36.5 -86q0 -57 -51 -88q65 -28 65 -97q0 -59 -40.5 -94.5
t-109.5 -35.5z" />
    <glyph glyph-name="four.numr" horiz-adv-x="385" 
d="M216 283v83h-209v63l211 277h89v-255h55v-85h-55v-83h-91zM216 451v129l-99 -129h99z" />
    <glyph glyph-name="five.numr" horiz-adv-x="355" 
d="M163 276q-82 0 -142 45l52 74q46 -32 87 -32q32 0 51.5 16.5t19.5 44.5q0 26 -14.5 40.5t-39.5 14.5q-38 0 -60 -42l-83 43l12 229h256v-87h-172l-5 -72q27 16 62 16q67 0 103.5 -41.5t36.5 -98.5q0 -69 -45.5 -109.5t-118.5 -40.5z" />
    <glyph glyph-name="six.numr" horiz-adv-x="363" 
d="M190 276q-76 0 -115.5 47t-39.5 125q0 108 63.5 179t188.5 89v-84q-114 -19 -143 -95q24 13 64 13q59 0 97 -36.5t38 -99.5t-42 -100.5t-111 -37.5zM188 360q28 0 46 14.5t18 39.5t-17.5 38.5t-46.5 13.5q-26 0 -43 -13.5t-17 -38.5q0 -24 17 -39t43 -15z" />
    <glyph glyph-name="seven.numr" horiz-adv-x="310" 
d="M90 283q1 182 101 336h-186v90h295v-79q-59 -68 -85.5 -165t-27.5 -182h-97z" />
    <glyph glyph-name="eight.numr" horiz-adv-x="372" 
d="M186 275q-68 0 -111 37t-43 98q0 33 18.5 60.5t46.5 42.5q-47 30 -47 84q0 52 37 83.5t99 31.5t99 -31.5t37 -83.5q0 -54 -47 -84q28 -15 46 -42.5t18 -60.5q0 -61 -42 -98t-111 -37zM186 552q21 0 33.5 11.5t12.5 29.5t-12.5 30t-33.5 12q-20 0 -33.5 -12.5t-13.5 -29.5
t13.5 -29t33.5 -12zM186 354q28 0 46 16t18 42t-18 43.5t-46 17.5t-46.5 -17.5t-18.5 -43.5q0 -25 18 -41.5t47 -16.5z" />
    <glyph glyph-name="nine.numr" horiz-adv-x="361" 
d="M91 276v84q104 5 131 93q-22 -15 -62 -15q-63 0 -101.5 36.5t-38.5 99.5q0 62 42.5 100t111.5 38q76 0 116 -46t40 -120q0 -119 -59.5 -192.5t-179.5 -77.5zM174 522q29 0 46 13.5t17 39.5q0 24 -17.5 38.5t-44.5 14.5q-28 0 -45.5 -14.5t-17.5 -39.5t17 -38.5t45 -13.5z
" />
    </font>
</defs>
</svg>
